<?xml version="1.0" standalone="no"?>
 <!DOCTYPE svg PUBLIC "-//W3C//DTD SVG 1.1//EN" 
 "http://www.w3.org/Graphics/SVG/1.1/DTD/svg11.dtd"> 
<svg
  xmlns:svg="http://www.w3.org/2000/svg"
  xmlns="http://www.w3.org/2000/svg"
  xmlns:xlink="http://www.w3.org/1999/xlink"
  version="1.1"
  width="29.700220cm" height="21.000720cm" viewBox="0 0 297002200 210007200">
<title>SVG Picture created as 5x5x2-Edge_Cuts.svg date 2022/06/25 12:16:43 </title>
  <desc>Picture generated by PCBNEW </desc>
<g style="fill:#000000; fill-opacity:1.000000;stroke:#000000; stroke-opacity:1.000000;
stroke-linecap:round; stroke-linejoin:round;"
 transform="translate(0 0) scale(1 1)">
</g>
<g style="fill:#000000; fill-opacity:0.0; 
stroke:#000000; stroke-width:0.000000; stroke-opacity:1; 
stroke-linecap:round; stroke-linejoin:round;">
</g>
<g style="fill:#000000; fill-opacity:0.0; 
stroke:#000000; stroke-width:100000.000000; stroke-opacity:1; 
stroke-linecap:round; stroke-linejoin:round;">
<path d="M240000000 38000000
L240000000 138000000
" />
<path d="M240000000 138000000
L140000000 138000000
" />
<path d="M36000000 38000000
L136000000 38000000
" />
<path d="M140000000 138000000
L140000000 38000000
" />
<path d="M194500000 38000000
L194500000 44300000
" />
<path d="M185500000 38000000
L140000000 38000000
" />
<path d="M36000000 138000000
L36000000 38000000
" />
<path d="M136000000 138000000
L36000000 138000000
" />
<path d="M194500000 38000000
L240000000 38000000
" />
<path d="M194500000 44300000
L185500000 44300000
" />
<path d="M185500000 44300000
L185500000 38000000
" />
<path d="M136000000 38000000
L136000000 138000000
" />
<circle cx="36000000.000000" cy="38000000.000000" r="1666666.000000" /> 
<path d="M33500000 38000000
L38500000 38000000
" />
<path d="M36000000 35500000
L36000000 40500000
" />
<circle cx="240000000.000000" cy="38000000.000000" r="1666666.000000" /> 
<path d="M237500000 38000000
L242500000 38000000
" />
<path d="M240000000 35500000
L240000000 40500000
" />
<circle cx="140000000.000000" cy="38000000.000000" r="1666666.000000" /> 
<path d="M137500000 38000000
L142500000 38000000
" />
<path d="M140000000 35500000
L140000000 40500000
" />
<circle cx="36000000.000000" cy="138000000.000000" r="1666666.000000" /> 
<path d="M33500000 138000000
L38500000 138000000
" />
<path d="M36000000 135500000
L36000000 140500000
" />
<circle cx="140000000.000000" cy="138000000.000000" r="1666666.000000" /> 
<path d="M137500000 138000000
L142500000 138000000
" />
<path d="M140000000 135500000
L140000000 140500000
" />
<circle cx="136000000.000000" cy="38000000.000000" r="1666666.000000" /> 
<path d="M133500000 38000000
L138500000 38000000
" />
<path d="M136000000 35500000
L136000000 40500000
" />
<circle cx="240000000.000000" cy="138000000.000000" r="1666666.000000" /> 
<path d="M237500000 138000000
L242500000 138000000
" />
<path d="M240000000 135500000
L240000000 140500000
" />
<circle cx="136000000.000000" cy="138000000.000000" r="1666666.000000" /> 
<path d="M133500000 138000000
L138500000 138000000
" />
<path d="M136000000 135500000
L136000000 140500000
" />
</g>
<g style="fill:#000000; fill-opacity:0.0; 
stroke:#000000; stroke-width:120000.000000; stroke-opacity:1; 
stroke-linecap:round; stroke-linejoin:round;">
<path d="M103200000 94550000
L103200000 91450000
" />
<path d="M106800000 91450000
L106800000 94550000
" />
<path d="M105400000 94550000
L104600000 94550000
" />
<path d="M104600000 91450000
L105400000 91450000
" />
<path d="M104599999.712916 91450000.010276 A700448.000000 700448.000000 0.0 0 0 103200000.287084 91450000.010276" />
<path d="M103200000.287084 94549999.989724 A700448.000000 700448.000000 0.0 0 0 104599999.712916 94549999.989724" />
<path d="M105400000.287084 94549999.989724 A700448.000000 700448.000000 0.0 0 0 106799999.712916 94549999.989724" />
<path d="M106799999.712916 91450000.010276 A700448.000000 700448.000000 0.0 0 0 105400000.287084 91450000.010276" />
<path d="M125800000 129450000
L125800000 132550000
" />
<path d="M124400000 132550000
L123600000 132550000
" />
<path d="M122200000 132550000
L122200000 129450000
" />
<path d="M123600000 129450000
L124400000 129450000
" />
<path d="M125799999.712916 129450000.010276 A700448.000000 700448.000000 0.0 0 0 124400000.287084 129450000.010276" />
<path d="M123599999.712916 129450000.010276 A700448.000000 700448.000000 0.0 0 0 122200000.287084 129450000.010276" />
<path d="M124400000.287084 132549999.989724 A700448.000000 700448.000000 0.0 0 0 125799999.712916 132549999.989724" />
<path d="M122200000.287084 132549999.989724 A700448.000000 700448.000000 0.0 0 0 123599999.712916 132549999.989724" />
<path d="M84200000 132550000
L84200000 129450000
" />
<path d="M85600000 129450000
L86400000 129450000
" />
<path d="M86400000 132550000
L85600000 132550000
" />
<path d="M87800000 129450000
L87800000 132550000
" />
<path d="M86400000.287084 132549999.989724 A700448.000000 700448.000000 0.0 0 0 87799999.712916 132549999.989724" />
<path d="M87799999.712916 129450000.010276 A700448.000000 700448.000000 0.0 0 0 86400000.287084 129450000.010276" />
<path d="M84200000.287084 132549999.989724 A700448.000000 700448.000000 0.0 0 0 85599999.712916 132549999.989724" />
<path d="M85599999.712916 129450000.010276 A700448.000000 700448.000000 0.0 0 0 84200000.287084 129450000.010276" />
<path d="M123600000 110450000
L124400000 110450000
" />
<path d="M125800000 110450000
L125800000 113550000
" />
<path d="M122200000 113550000
L122200000 110450000
" />
<path d="M124400000 113550000
L123600000 113550000
" />
<path d="M122200000.287084 113549999.989724 A700448.000000 700448.000000 0.0 0 0 123599999.712916 113549999.989724" />
<path d="M125799999.712916 110450000.010276 A700448.000000 700448.000000 0.0 0 0 124400000.287084 110450000.010276" />
<path d="M124400000.287084 113549999.989724 A700448.000000 700448.000000 0.0 0 0 125799999.712916 113549999.989724" />
<path d="M123599999.712916 110450000.010276 A700448.000000 700448.000000 0.0 0 0 122200000.287084 110450000.010276" />
<path d="M49800000 129450000
L49800000 132550000
" />
<path d="M47600000 129450000
L48400000 129450000
" />
<path d="M48400000 132550000
L47600000 132550000
" />
<path d="M46200000 132550000
L46200000 129450000
" />
<path d="M47599999.712916 129450000.010276 A700448.000000 700448.000000 0.0 0 0 46200000.287084 129450000.010276" />
<path d="M49799999.712916 129450000.010276 A700448.000000 700448.000000 0.0 0 0 48400000.287084 129450000.010276" />
<path d="M46200000.287084 132549999.989724 A700448.000000 700448.000000 0.0 0 0 47599999.712916 132549999.989724" />
<path d="M48400000.287084 132549999.989724 A700448.000000 700448.000000 0.0 0 0 49799999.712916 132549999.989724" />
<path d="M106800000 129450000
L106800000 132550000
" />
<path d="M105400000 132550000
L104600000 132550000
" />
<path d="M104600000 129450000
L105400000 129450000
" />
<path d="M103200000 132550000
L103200000 129450000
" />
<path d="M105400000.287084 132549999.989724 A700448.000000 700448.000000 0.0 0 0 106799999.712916 132549999.989724" />
<path d="M104599999.712916 129450000.010276 A700448.000000 700448.000000 0.0 0 0 103200000.287084 129450000.010276" />
<path d="M106799999.712916 129450000.010276 A700448.000000 700448.000000 0.0 0 0 105400000.287084 129450000.010276" />
<path d="M103200000.287084 132549999.989724 A700448.000000 700448.000000 0.0 0 0 104599999.712916 132549999.989724" />
<path d="M106800000 72450000
L106800000 75550000
" />
<path d="M103200000 75550000
L103200000 72450000
" />
<path d="M104600000 72450000
L105400000 72450000
" />
<path d="M105400000 75550000
L104600000 75550000
" />
<path d="M103200000.287084 75549999.989724 A700448.000000 700448.000000 0.0 0 0 104599999.712916 75549999.989724" />
<path d="M104599999.712916 72450000.010276 A700448.000000 700448.000000 0.0 0 0 103200000.287084 72450000.010276" />
<path d="M105400000.287084 75549999.989724 A700448.000000 700448.000000 0.0 0 0 106799999.712916 75549999.989724" />
<path d="M106799999.712916 72450000.010276 A700448.000000 700448.000000 0.0 0 0 105400000.287084 72450000.010276" />
<path d="M49800000 110450000
L49800000 113550000
" />
<path d="M47600000 110450000
L48400000 110450000
" />
<path d="M46200000 113550000
L46200000 110450000
" />
<path d="M48400000 113550000
L47600000 113550000
" />
<path d="M47599999.712916 110450000.010276 A700448.000000 700448.000000 0.0 0 0 46200000.287084 110450000.010276" />
<path d="M46200000.287084 113549999.989724 A700448.000000 700448.000000 0.0 0 0 47599999.712916 113549999.989724" />
<path d="M48400000.287084 113549999.989724 A700448.000000 700448.000000 0.0 0 0 49799999.712916 113549999.989724" />
<path d="M49799999.712916 110450000.010276 A700448.000000 700448.000000 0.0 0 0 48400000.287084 110450000.010276" />
<path d="M67400000 94550000
L66600000 94550000
" />
<path d="M65200000 94550000
L65200000 91450000
" />
<path d="M66600000 91450000
L67400000 91450000
" />
<path d="M68800000 91450000
L68800000 94550000
" />
<path d="M68799999.712916 91450000.010276 A700448.000000 700448.000000 0.0 0 0 67400000.287084 91450000.010276" />
<path d="M66599999.712916 91450000.010276 A700448.000000 700448.000000 0.0 0 0 65200000.287084 91450000.010276" />
<path d="M67400000.287084 94549999.989724 A700448.000000 700448.000000 0.0 0 0 68799999.712916 94549999.989724" />
<path d="M65200000.287084 94549999.989724 A700448.000000 700448.000000 0.0 0 0 66599999.712916 94549999.989724" />
<path d="M66600000 53450000
L67400000 53450000
" />
<path d="M65200000 56550000
L65200000 53450000
" />
<path d="M67400000 56550000
L66600000 56550000
" />
<path d="M68800000 53450000
L68800000 56550000
" />
<path d="M67400000.287084 56549999.989724 A700448.000000 700448.000000 0.0 0 0 68799999.712916 56549999.989724" />
<path d="M66599999.712916 53450000.010276 A700448.000000 700448.000000 0.0 0 0 65200000.287084 53450000.010276" />
<path d="M68799999.712916 53450000.010276 A700448.000000 700448.000000 0.0 0 0 67400000.287084 53450000.010276" />
<path d="M65200000.287084 56549999.989724 A700448.000000 700448.000000 0.0 0 0 66599999.712916 56549999.989724" />
<path d="M65200000 113550000
L65200000 110450000
" />
<path d="M68800000 110450000
L68800000 113550000
" />
<path d="M66600000 110450000
L67400000 110450000
" />
<path d="M67400000 113550000
L66600000 113550000
" />
<path d="M66599999.712916 110450000.010276 A700448.000000 700448.000000 0.0 0 0 65200000.287084 110450000.010276" />
<path d="M67400000.287084 113549999.989724 A700448.000000 700448.000000 0.0 0 0 68799999.712916 113549999.989724" />
<path d="M68799999.712916 110450000.010276 A700448.000000 700448.000000 0.0 0 0 67400000.287084 110450000.010276" />
<path d="M65200000.287084 113549999.989724 A700448.000000 700448.000000 0.0 0 0 66599999.712916 113549999.989724" />
<path d="M104600000 53450000
L105400000 53450000
" />
<path d="M105400000 56550000
L104600000 56550000
" />
<path d="M103200000 56550000
L103200000 53450000
" />
<path d="M106800000 53450000
L106800000 56550000
" />
<path d="M105400000.287084 56549999.989724 A700448.000000 700448.000000 0.0 0 0 106799999.712916 56549999.989724" />
<path d="M103200000.287084 56549999.989724 A700448.000000 700448.000000 0.0 0 0 104599999.712916 56549999.989724" />
<path d="M104599999.712916 53450000.010276 A700448.000000 700448.000000 0.0 0 0 103200000.287084 53450000.010276" />
<path d="M106799999.712916 53450000.010276 A700448.000000 700448.000000 0.0 0 0 105400000.287084 53450000.010276" />
<path d="M86400000 113550000
L85600000 113550000
" />
<path d="M84200000 113550000
L84200000 110450000
" />
<path d="M87800000 110450000
L87800000 113550000
" />
<path d="M85600000 110450000
L86400000 110450000
" />
<path d="M86400000.287084 113549999.989724 A700448.000000 700448.000000 0.0 0 0 87799999.712916 113549999.989724" />
<path d="M84200000.287084 113549999.989724 A700448.000000 700448.000000 0.0 0 0 85599999.712916 113549999.989724" />
<path d="M87799999.712916 110450000.010276 A700448.000000 700448.000000 0.0 0 0 86400000.287084 110450000.010276" />
<path d="M85599999.712916 110450000.010276 A700448.000000 700448.000000 0.0 0 0 84200000.287084 110450000.010276" />
<path d="M103200000 113550000
L103200000 110450000
" />
<path d="M105400000 113550000
L104600000 113550000
" />
<path d="M106800000 110450000
L106800000 113550000
" />
<path d="M104600000 110450000
L105400000 110450000
" />
<path d="M106799999.712916 110450000.010276 A700448.000000 700448.000000 0.0 0 0 105400000.287084 110450000.010276" />
<path d="M103200000.287084 113549999.989724 A700448.000000 700448.000000 0.0 0 0 104599999.712916 113549999.989724" />
<path d="M105400000.287084 113549999.989724 A700448.000000 700448.000000 0.0 0 0 106799999.712916 113549999.989724" />
<path d="M104599999.712916 110450000.010276 A700448.000000 700448.000000 0.0 0 0 103200000.287084 110450000.010276" />
<path d="M49800000 53450000
L49800000 56550000
" />
<path d="M46200000 56550000
L46200000 53450000
" />
<path d="M47600000 53450000
L48400000 53450000
" />
<path d="M48400000 56550000
L47600000 56550000
" />
<path d="M48400000.287084 56549999.989724 A700448.000000 700448.000000 0.0 0 0 49799999.712916 56549999.989724" />
<path d="M46200000.287084 56549999.989724 A700448.000000 700448.000000 0.0 0 0 47599999.712916 56549999.989724" />
<path d="M49799999.712916 53450000.010276 A700448.000000 700448.000000 0.0 0 0 48400000.287084 53450000.010276" />
<path d="M47599999.712916 53450000.010276 A700448.000000 700448.000000 0.0 0 0 46200000.287084 53450000.010276" />
<path d="M124400000 75550000
L123600000 75550000
" />
<path d="M125800000 72450000
L125800000 75550000
" />
<path d="M123600000 72450000
L124400000 72450000
" />
<path d="M122200000 75550000
L122200000 72450000
" />
<path d="M124400000.287084 75549999.989724 A700448.000000 700448.000000 0.0 0 0 125799999.712916 75549999.989724" />
<path d="M122200000.287084 75549999.989724 A700448.000000 700448.000000 0.0 0 0 123599999.712916 75549999.989724" />
<path d="M125799999.712916 72450000.010276 A700448.000000 700448.000000 0.0 0 0 124400000.287084 72450000.010276" />
<path d="M123599999.712916 72450000.010276 A700448.000000 700448.000000 0.0 0 0 122200000.287084 72450000.010276" />
<path d="M84200000 94550000
L84200000 91450000
" />
<path d="M85600000 91450000
L86400000 91450000
" />
<path d="M87800000 91450000
L87800000 94550000
" />
<path d="M86400000 94550000
L85600000 94550000
" />
<path d="M86400000.287084 94549999.989724 A700448.000000 700448.000000 0.0 0 0 87799999.712916 94549999.989724" />
<path d="M84200000.287084 94549999.989724 A700448.000000 700448.000000 0.0 0 0 85599999.712916 94549999.989724" />
<path d="M87799999.712916 91450000.010276 A700448.000000 700448.000000 0.0 0 0 86400000.287084 91450000.010276" />
<path d="M85599999.712916 91450000.010276 A700448.000000 700448.000000 0.0 0 0 84200000.287084 91450000.010276" />
<path d="M68800000 72450000
L68800000 75550000
" />
<path d="M66600000 72450000
L67400000 72450000
" />
<path d="M65200000 75550000
L65200000 72450000
" />
<path d="M67400000 75550000
L66600000 75550000
" />
<path d="M65200000.287084 75549999.989724 A700448.000000 700448.000000 0.0 0 0 66599999.712916 75549999.989724" />
<path d="M67400000.287084 75549999.989724 A700448.000000 700448.000000 0.0 0 0 68799999.712916 75549999.989724" />
<path d="M68799999.712916 72450000.010276 A700448.000000 700448.000000 0.0 0 0 67400000.287084 72450000.010276" />
<path d="M66599999.712916 72450000.010276 A700448.000000 700448.000000 0.0 0 0 65200000.287084 72450000.010276" />
<path d="M49800000 72450000
L49800000 75550000
" />
<path d="M48400000 75550000
L47600000 75550000
" />
<path d="M47600000 72450000
L48400000 72450000
" />
<path d="M46200000 75550000
L46200000 72450000
" />
<path d="M47599999.712916 72450000.010276 A700448.000000 700448.000000 0.0 0 0 46200000.287084 72450000.010276" />
<path d="M48400000.287084 75549999.989724 A700448.000000 700448.000000 0.0 0 0 49799999.712916 75549999.989724" />
<path d="M46200000.287084 75549999.989724 A700448.000000 700448.000000 0.0 0 0 47599999.712916 75549999.989724" />
<path d="M49799999.712916 72450000.010276 A700448.000000 700448.000000 0.0 0 0 48400000.287084 72450000.010276" />
<path d="M85600000 53450000
L86400000 53450000
" />
<path d="M84200000 56550000
L84200000 53450000
" />
<path d="M87800000 53450000
L87800000 56550000
" />
<path d="M86400000 56550000
L85600000 56550000
" />
<path d="M85599999.712916 53450000.010276 A700448.000000 700448.000000 0.0 0 0 84200000.287084 53450000.010276" />
<path d="M86400000.287084 56549999.989724 A700448.000000 700448.000000 0.0 0 0 87799999.712916 56549999.989724" />
<path d="M84200000.287084 56549999.989724 A700448.000000 700448.000000 0.0 0 0 85599999.712916 56549999.989724" />
<path d="M87799999.712916 53450000.010276 A700448.000000 700448.000000 0.0 0 0 86400000.287084 53450000.010276" />
<path d="M124400000 94550000
L123600000 94550000
" />
<path d="M122200000 94550000
L122200000 91450000
" />
<path d="M125800000 91450000
L125800000 94550000
" />
<path d="M123600000 91450000
L124400000 91450000
" />
<path d="M122200000.287084 94549999.989724 A700448.000000 700448.000000 0.0 0 0 123599999.712916 94549999.989724" />
<path d="M125799999.712916 91450000.010276 A700448.000000 700448.000000 0.0 0 0 124400000.287084 91450000.010276" />
<path d="M124400000.287084 94549999.989724 A700448.000000 700448.000000 0.0 0 0 125799999.712916 94549999.989724" />
<path d="M123599999.712916 91450000.010276 A700448.000000 700448.000000 0.0 0 0 122200000.287084 91450000.010276" />
<path d="M86400000 75550000
L85600000 75550000
" />
<path d="M84200000 75550000
L84200000 72450000
" />
<path d="M87800000 72450000
L87800000 75550000
" />
<path d="M85600000 72450000
L86400000 72450000
" />
<path d="M85599999.712916 72450000.010276 A700448.000000 700448.000000 0.0 0 0 84200000.287084 72450000.010276" />
<path d="M84200000.287084 75549999.989724 A700448.000000 700448.000000 0.0 0 0 85599999.712916 75549999.989724" />
<path d="M87799999.712916 72450000.010276 A700448.000000 700448.000000 0.0 0 0 86400000.287084 72450000.010276" />
<path d="M86400000.287084 75549999.989724 A700448.000000 700448.000000 0.0 0 0 87799999.712916 75549999.989724" />
<path d="M123600000 53450000
L124400000 53450000
" />
<path d="M124400000 56550000
L123600000 56550000
" />
<path d="M125800000 53450000
L125800000 56550000
" />
<path d="M122200000 56550000
L122200000 53450000
" />
<path d="M125799999.712916 53450000.010276 A700448.000000 700448.000000 0.0 0 0 124400000.287084 53450000.010276" />
<path d="M123599999.712916 53450000.010276 A700448.000000 700448.000000 0.0 0 0 122200000.287084 53450000.010276" />
<path d="M124400000.287084 56549999.989724 A700448.000000 700448.000000 0.0 0 0 125799999.712916 56549999.989724" />
<path d="M122200000.287084 56549999.989724 A700448.000000 700448.000000 0.0 0 0 123599999.712916 56549999.989724" />
<path d="M68800000 129450000
L68800000 132550000
" />
<path d="M65200000 132550000
L65200000 129450000
" />
<path d="M67400000 132550000
L66600000 132550000
" />
<path d="M66600000 129450000
L67400000 129450000
" />
<path d="M66599999.712916 129450000.010276 A700448.000000 700448.000000 0.0 0 0 65200000.287084 129450000.010276" />
<path d="M65200000.287084 132549999.989724 A700448.000000 700448.000000 0.0 0 0 66599999.712916 132549999.989724" />
<path d="M68799999.712916 129450000.010276 A700448.000000 700448.000000 0.0 0 0 67400000.287084 129450000.010276" />
<path d="M67400000.287084 132549999.989724 A700448.000000 700448.000000 0.0 0 0 68799999.712916 132549999.989724" />
<path d="M47600000 91450000
L48400000 91450000
" />
<path d="M48400000 94550000
L47600000 94550000
" />
<path d="M49800000 91450000
L49800000 94550000
" />
<path d="M46200000 94550000
L46200000 91450000
" />
<path d="M46200000.287084 94549999.989724 A700448.000000 700448.000000 0.0 0 0 47599999.712916 94549999.989724" />
<path d="M48400000.287084 94549999.989724 A700448.000000 700448.000000 0.0 0 0 49799999.712916 94549999.989724" />
<path d="M47599999.712916 91450000.010276 A700448.000000 700448.000000 0.0 0 0 46200000.287084 91450000.010276" />
<path d="M49799999.712916 91450000.010276 A700448.000000 700448.000000 0.0 0 0 48400000.287084 91450000.010276" />
<g >
</g>
<g >
</g>
<g >
</g>
<g >
</g>
<g >
</g>
<g >
</g>
<g >
</g>
<g >
</g>
<g >
</g>
<g >
</g>
<g >
</g>
<g >
</g>
<g >
</g>
<g >
</g>
<g >
</g>
<g >
</g>
<g >
</g>
<g >
</g>
<g >
</g>
<g >
</g>
<g >
</g>
<g >
</g>
<g >
</g>
<g >
</g>
<g >
</g>
<g >
</g>
<g >
</g>
<g >
</g>
<g >
</g>
<g >
</g>
<g >
</g>
<g >
</g>
<g >
</g>
<g >
</g>
<g >
</g>
<g >
</g>
<g >
</g>
<g >
</g>
<g >
</g>
<g >
</g>
<g >
</g>
<g >
</g>
<g >
</g>
<g >
</g>
<g >
</g>
<g >
</g>
<g >
</g>
<g >
</g>
<g >
</g>
<g >
</g>
<g >
</g>
<g >
</g>
<g >
</g>
<g >
</g>
<g >
</g>
<g >
</g>
<g >
</g>
<g >
</g>
<g >
</g>
<g >
</g>
<g >
</g>
<g >
</g>
<g >
</g>
<g >
</g>
<g >
</g>
<g >
</g>
<g >
</g>
<g >
</g>
<g >
</g>
<g >
</g>
<g >
</g>
<g >
</g>
<g >
</g>
<g >
</g>
<g >
</g>
<g >
</g>
<g >
</g>
<g >
</g>
<g >
</g>
<g >
</g>
<g >
</g>
<g >
</g>
<g >
</g>
<g >
</g>
<g >
</g>
<g >
</g>
<g >
</g>
<g >
</g>
<g >
</g>
<g >
</g>
<g >
</g>
<g >
</g>
<g >
</g>
<g >
</g>
<g >
</g>
<g >
</g>
<g >
</g>
<g >
</g>
<g >
</g>
<g >
</g>
<g >
</g>
<g >
</g>
<g >
</g>
<g >
</g>
<g >
</g>
<g >
</g>
<g >
</g>
<g >
</g>
<g >
</g>
<g >
</g>
<g >
</g>
<g >
</g>
<g >
</g>
<g >
</g>
<g >
</g>
<g >
</g>
<g >
</g>
<g >
</g>
<g >
</g>
<g >
</g>
<g >
</g>
<g >
</g>
<g >
</g>
<g >
</g>
<g >
</g>
<g >
</g>
<g >
</g>
<g >
</g>
<g >
</g>
<g >
</g>
<g >
</g>
<g >
</g>
<g >
</g>
<g >
</g>
<g >
</g>
<g >
</g>
<g >
</g>
<g >
</g>
<g >
</g>
<g >
</g>
<g >
</g>
<g >
</g>
<g >
</g>
<g >
</g>
<g >
</g>
<g >
</g>
<g >
</g>
<g >
</g>
<g >
</g>
<g >
</g>
<g >
</g>
<g >
</g>
<g >
</g>
<g >
</g>
<g >
</g>
<g >
</g>
<g >
</g>
<g >
</g>
<g >
</g>
<g >
</g>
<g >
</g>
<g >
</g>
<g >
</g>
<g >
</g>
<g >
</g>
<g >
</g>
<g >
</g>
<g >
</g>
<g >
</g>
<g >
</g>
<g >
</g>
<g >
</g>
<g >
</g>
<g >
</g>
<g >
</g>
<g >
</g>
<g >
</g>
<g >
</g>
<g >
</g>
<g >
</g>
<g >
</g>
<g >
</g>
<g >
</g>
<g >
</g>
<g >
</g>
<g >
</g>
<g >
</g>
<g >
</g>
<g >
</g>
<g >
</g>
<g >
</g>
<g >
</g>
<g >
</g>
<g >
</g>
<g >
</g>
<g >
</g>
<g >
</g>
<g >
</g>
<g >
</g>
<g >
</g>
<g >
</g>
<g >
</g>
<g >
</g>
<g >
</g>
<g >
</g>
<g >
</g>
<g >
</g>
<g >
</g>
<g >
</g>
<g >
</g>
<g >
</g>
<g >
</g>
<g >
</g>
<g >
</g>
<g >
</g>
<g >
</g>
<g >
</g>
<g >
</g>
<g >
</g>
<g >
</g>
<g >
</g>
<g >
</g>
<g >
</g>
<g >
</g>
<g >
</g>
<g >
</g>
<g >
</g>
<g >
</g>
<g >
</g>
<g >
</g>
<g >
</g>
<g >
</g>
<g >
</g>
<g >
</g>
<g >
</g>
<g >
</g>
<g >
</g>
<g >
</g>
<g >
</g>
<g >
</g>
<g >
</g>
<g >
</g>
<g >
</g>
<g >
</g>
<g >
</g>
<g >
</g>
<g >
</g>
<g >
</g>
<g >
</g>
<g >
</g>
<g >
</g>
<g >
</g>
<g >
</g>
<g >
</g>
<g >
</g>
<g >
</g>
<g >
</g>
</g> 
</svg>
