M48
; DRILL file {KiCad (6.0.5)} date Sun 26 Jun 2022 09:28:03 PM CEST
; FORMAT={-:-/ absolute / metric / decimal}
; #@! TF.CreationDate,2022-06-26T21:28:03+02:00
; #@! TF.GenerationSoftware,Kicad,Pcbnew,(6.0.5)
; #@! TF.FileFunction,Plated,1,4,PTH
FMAT,2
METRIC
; #@! TA.AperFunction,Plated,PTH,ViaDrill
T1C0.400
; #@! TA.AperFunction,Plated,PTH,ComponentDrill
T2C1.000
; #@! TA.AperFunction,Plated,PTH,ComponentDrill
T3C1.300
; #@! TA.AperFunction,Plated,PTH,ComponentDrill
T4C1.500
%
G90
G05
T1
X41.0Y-54.25
X42.5Y-71.5
X42.5Y-109.5
X43.75Y-131.75
X43.825Y-75.0
X43.825Y-112.75
X44.0Y-93.75
X53.5Y-57.5
X53.5Y-95.5
X53.5Y-133.25
X57.0Y-51.5
X57.0Y-70.5
X57.0Y-89.5
X57.0Y-108.0
X57.0Y-127.0
X61.5Y-71.5
X61.5Y-109.5
X72.5Y-57.5
X72.5Y-95.5
X72.5Y-133.236
X76.0Y-51.5
X76.0Y-70.5
X76.0Y-89.5
X76.0Y-108.0
X76.0Y-127.0
X80.5Y-71.5
X80.5Y-109.5
X91.5Y-57.5
X91.5Y-95.5
X91.5Y-133.25
X95.0Y-51.5
X95.0Y-70.5
X95.0Y-89.5
X95.0Y-108.0
X95.0Y-127.0
X99.5Y-71.5
X99.5Y-109.5
X110.5Y-57.5
X110.5Y-95.5
X110.5Y-133.25
X114.0Y-51.5
X114.0Y-70.5
X114.0Y-89.5
X114.0Y-108.0
X114.0Y-127.0
X115.0Y-43.0
X115.0Y-62.0
X115.0Y-81.0
X115.0Y-100.0
X115.0Y-119.0
X118.5Y-71.5
X118.5Y-109.5
X127.0Y-129.0
X128.0Y-73.25
X128.175Y-54.5
X128.175Y-92.25
X128.25Y-111.25
X129.5Y-57.5
X129.5Y-95.5
X129.5Y-133.25
T2
X37.975Y-104.475
X37.975Y-107.015
X37.975Y-109.555
X38.0Y-66.46
X38.0Y-69.0
X38.0Y-71.54
X64.46Y-136.0
X64.475Y-40.025
X67.0Y-136.0
X67.015Y-40.025
X69.54Y-136.0
X69.555Y-40.025
X102.42Y-136.0
X102.46Y-40.0
X104.96Y-136.0
X105.0Y-40.0
X107.5Y-136.0
X107.54Y-40.0
X134.0Y-66.475
X134.0Y-69.015
X134.0Y-71.555
T3
X116.75Y-47.46
X116.75Y-52.54
X131.25Y-47.46
X131.25Y-50.0
X131.25Y-52.54
T4
X124.5Y-44.5G85X123.0Y-44.5
G05
X124.5Y-55.5G85X123.0Y-55.5
G05
T0
M30
