M48
; DRILL file {KiCad (6.0.5)} date Sun 26 Jun 2022 09:28:03 PM CEST
; FORMAT={-:-/ absolute / metric / decimal}
; #@! TF.CreationDate,2022-06-26T21:28:03+02:00
; #@! TF.GenerationSoftware,Kicad,Pcbnew,(6.0.5)
; #@! TF.FileFunction,NonPlated,1,4,NPTH
FMAT,2
METRIC
; #@! TA.AperFunction,NonPlated,NPTH,ComponentDrill
T1C1.750
; #@! TA.AperFunction,NonPlated,NPTH,ComponentDrill
T2C3.050
; #@! TA.AperFunction,NonPlated,NPTH,ComponentDrill
T3C3.200
; #@! TA.AperFunction,NonPlated,NPTH,ComponentDrill
T4C4.000
%
G90
G05
T1
X42.92Y-50.0
X42.92Y-69.0
X42.92Y-88.0
X42.92Y-107.0
X42.92Y-126.0
X53.08Y-50.0
X53.08Y-69.0
X53.08Y-88.0
X53.08Y-107.0
X53.08Y-126.0
X61.92Y-50.0
X61.92Y-69.0
X61.92Y-88.0
X61.92Y-107.0
X61.92Y-126.0
X72.08Y-50.0
X72.08Y-69.0
X72.08Y-88.0
X72.08Y-107.0
X72.08Y-126.0
X80.92Y-50.0
X80.92Y-69.0
X80.92Y-88.0
X80.92Y-107.0
X80.92Y-126.0
X91.08Y-50.0
X91.08Y-69.0
X91.08Y-88.0
X91.08Y-107.0
X91.08Y-126.0
X99.92Y-50.0
X99.92Y-69.0
X99.92Y-88.0
X99.92Y-107.0
X99.92Y-126.0
X110.08Y-50.0
X110.08Y-69.0
X110.08Y-88.0
X110.08Y-107.0
X110.08Y-126.0
X118.92Y-50.0
X118.92Y-69.0
X118.92Y-88.0
X118.92Y-107.0
X118.92Y-126.0
X129.08Y-50.0
X129.08Y-69.0
X129.08Y-88.0
X129.08Y-107.0
X129.08Y-126.0
T2
X44.19Y-47.46
X44.19Y-66.46
X44.19Y-85.46
X44.19Y-104.46
X44.19Y-123.46
X50.54Y-44.92
X50.54Y-63.92
X50.54Y-82.92
X50.54Y-101.92
X50.54Y-120.92
X63.19Y-47.46
X63.19Y-66.46
X63.19Y-85.46
X63.19Y-104.46
X63.19Y-123.46
X69.54Y-44.92
X69.54Y-63.92
X69.54Y-82.92
X69.54Y-101.92
X69.54Y-120.92
X82.19Y-47.46
X82.19Y-66.46
X82.19Y-85.46
X82.19Y-104.46
X82.19Y-123.46
X88.54Y-44.92
X88.54Y-63.92
X88.54Y-82.92
X88.54Y-101.92
X88.54Y-120.92
X101.19Y-47.46
X101.19Y-66.46
X101.19Y-85.46
X101.19Y-104.46
X101.19Y-123.46
X107.54Y-44.92
X107.54Y-63.92
X107.54Y-82.92
X107.54Y-101.92
X107.54Y-120.92
X120.19Y-47.46
X120.19Y-66.46
X120.19Y-85.46
X120.19Y-104.46
X120.19Y-123.46
X126.54Y-44.92
X126.54Y-63.92
X126.54Y-82.92
X126.54Y-101.92
X126.54Y-120.92
T3
X39.5Y-41.5
X39.5Y-134.5
X132.5Y-41.5
X132.5Y-134.5
T4
X48.0Y-50.0
X48.0Y-69.0
X48.0Y-88.0
X48.0Y-107.0
X48.0Y-126.0
X67.0Y-50.0
X67.0Y-69.0
X67.0Y-88.0
X67.0Y-107.0
X67.0Y-126.0
X86.0Y-50.0
X86.0Y-69.0
X86.0Y-88.0
X86.0Y-107.0
X86.0Y-126.0
X105.0Y-50.0
X105.0Y-69.0
X105.0Y-88.0
X105.0Y-107.0
X105.0Y-126.0
X124.0Y-50.0
X124.0Y-69.0
X124.0Y-88.0
X124.0Y-107.0
X124.0Y-126.0
T0
M30
