G04 #@! TF.GenerationSoftware,KiCad,Pcbnew,(6.0.5)*
G04 #@! TF.CreationDate,2022-06-26T21:28:20+02:00*
G04 #@! TF.ProjectId,5x5x2-part1,35783578-322d-4706-9172-74312e6b6963,rev?*
G04 #@! TF.SameCoordinates,Original*
G04 #@! TF.FileFunction,Soldermask,Bot*
G04 #@! TF.FilePolarity,Negative*
%FSLAX46Y46*%
G04 Gerber Fmt 4.6, Leading zero omitted, Abs format (unit mm)*
G04 Created by KiCad (PCBNEW (6.0.5)) date 2022-06-26 21:28:20*
%MOMM*%
%LPD*%
G01*
G04 APERTURE LIST*
G04 Aperture macros list*
%AMRoundRect*
0 Rectangle with rounded corners*
0 $1 Rounding radius*
0 $2 $3 $4 $5 $6 $7 $8 $9 X,Y pos of 4 corners*
0 Add a 4 corners polygon primitive as box body*
4,1,4,$2,$3,$4,$5,$6,$7,$8,$9,$2,$3,0*
0 Add four circle primitives for the rounded corners*
1,1,$1+$1,$2,$3*
1,1,$1+$1,$4,$5*
1,1,$1+$1,$6,$7*
1,1,$1+$1,$8,$9*
0 Add four rect primitives between the rounded corners*
20,1,$1+$1,$2,$3,$4,$5,0*
20,1,$1+$1,$4,$5,$6,$7,0*
20,1,$1+$1,$6,$7,$8,$9,0*
20,1,$1+$1,$8,$9,$2,$3,0*%
G04 Aperture macros list end*
%ADD10C,1.750000*%
%ADD11C,4.000000*%
%ADD12C,3.050000*%
%ADD13RoundRect,0.250000X-1.025000X-1.000000X1.025000X-1.000000X1.025000X1.000000X-1.025000X1.000000X0*%
%ADD14C,3.200000*%
%ADD15O,4.000000X2.300000*%
%ADD16C,1.800000*%
%ADD17R,1.100000X1.100000*%
%ADD18RoundRect,0.250000X-0.475000X0.250000X-0.475000X-0.250000X0.475000X-0.250000X0.475000X0.250000X0*%
%ADD19R,1.700000X1.000000*%
%ADD20R,1.700000X1.700000*%
%ADD21O,1.700000X1.700000*%
%ADD22RoundRect,0.250000X0.475000X-0.250000X0.475000X0.250000X-0.475000X0.250000X-0.475000X-0.250000X0*%
%ADD23RoundRect,0.250000X0.450000X-0.262500X0.450000X0.262500X-0.450000X0.262500X-0.450000X-0.262500X0*%
G04 APERTURE END LIST*
D10*
X72080000Y-69000000D03*
D11*
X67000000Y-69000000D03*
D12*
X69540000Y-63920000D03*
D10*
X61920000Y-69000000D03*
D12*
X63190000Y-66460000D03*
D13*
X59915000Y-66460000D03*
X72842000Y-63920000D03*
D14*
X39500000Y-41500000D03*
D10*
X72080000Y-107000000D03*
X61920000Y-107000000D03*
D11*
X67000000Y-107000000D03*
D12*
X69540000Y-101920000D03*
X63190000Y-104460000D03*
D13*
X59915000Y-104460000D03*
X72842000Y-101920000D03*
D14*
X39500000Y-134500000D03*
D12*
X101190000Y-66460000D03*
D10*
X110080000Y-69000000D03*
D11*
X105000000Y-69000000D03*
D12*
X107540000Y-63920000D03*
D10*
X99920000Y-69000000D03*
D13*
X97915000Y-66460000D03*
X110842000Y-63920000D03*
D10*
X80920000Y-126000000D03*
X91080000Y-126000000D03*
D11*
X86000000Y-126000000D03*
D12*
X82190000Y-123460000D03*
X88540000Y-120920000D03*
D13*
X78915000Y-123460000D03*
X91842000Y-120920000D03*
D10*
X118920000Y-88000000D03*
D12*
X120190000Y-85460000D03*
D10*
X129080000Y-88000000D03*
D12*
X126540000Y-82920000D03*
D11*
X124000000Y-88000000D03*
D13*
X116915000Y-85460000D03*
X129842000Y-82920000D03*
D14*
X132500000Y-41500000D03*
D11*
X86000000Y-107000000D03*
D10*
X91080000Y-107000000D03*
X80920000Y-107000000D03*
D12*
X82190000Y-104460000D03*
X88540000Y-101920000D03*
D13*
X78915000Y-104460000D03*
X91842000Y-101920000D03*
D11*
X124000000Y-50000000D03*
D12*
X120190000Y-47460000D03*
D10*
X118920000Y-50000000D03*
D12*
X126540000Y-44920000D03*
D10*
X129080000Y-50000000D03*
D13*
X116915000Y-47460000D03*
X129842000Y-44920000D03*
D11*
X124000000Y-126000000D03*
D12*
X126540000Y-120920000D03*
D10*
X118920000Y-126000000D03*
X129080000Y-126000000D03*
D12*
X120190000Y-123460000D03*
D13*
X116915000Y-123460000D03*
X129842000Y-120920000D03*
D10*
X110080000Y-126000000D03*
D11*
X105000000Y-126000000D03*
D10*
X99920000Y-126000000D03*
D12*
X107540000Y-120920000D03*
X101190000Y-123460000D03*
D13*
X97915000Y-123460000D03*
X110842000Y-120920000D03*
D12*
X88540000Y-63920000D03*
X82190000Y-66460000D03*
D10*
X80920000Y-69000000D03*
D11*
X86000000Y-69000000D03*
D10*
X91080000Y-69000000D03*
D13*
X78915000Y-66460000D03*
X91842000Y-63920000D03*
D14*
X132500000Y-134500000D03*
D10*
X61920000Y-126000000D03*
D12*
X63190000Y-123460000D03*
D11*
X67000000Y-126000000D03*
D10*
X72080000Y-126000000D03*
D12*
X69540000Y-120920000D03*
D13*
X59915000Y-123460000D03*
X72842000Y-120920000D03*
D10*
X118920000Y-69000000D03*
D11*
X124000000Y-69000000D03*
D12*
X126540000Y-63920000D03*
X120190000Y-66460000D03*
D10*
X129080000Y-69000000D03*
D13*
X116915000Y-66460000D03*
X129842000Y-63920000D03*
D10*
X99920000Y-107000000D03*
D11*
X105000000Y-107000000D03*
D10*
X110080000Y-107000000D03*
D12*
X107540000Y-101920000D03*
X101190000Y-104460000D03*
D13*
X97915000Y-104460000D03*
X110842000Y-101920000D03*
D10*
X72080000Y-50000000D03*
D12*
X63190000Y-47460000D03*
X69540000Y-44920000D03*
D11*
X67000000Y-50000000D03*
D10*
X61920000Y-50000000D03*
D13*
X59915000Y-47460000D03*
X72842000Y-44920000D03*
D15*
X123750000Y-44500000D03*
D16*
X131250000Y-52540000D03*
X131250000Y-47460000D03*
X131250000Y-50000000D03*
X116750000Y-47460000D03*
X116750000Y-52540000D03*
D10*
X61920000Y-88000000D03*
D12*
X63190000Y-85460000D03*
X69540000Y-82920000D03*
D10*
X72080000Y-88000000D03*
D11*
X67000000Y-88000000D03*
D13*
X59915000Y-85460000D03*
X72842000Y-82920000D03*
D10*
X91080000Y-50000000D03*
D12*
X88540000Y-44920000D03*
X82190000Y-47460000D03*
D11*
X86000000Y-50000000D03*
D10*
X80920000Y-50000000D03*
D13*
X78915000Y-47460000D03*
X91842000Y-44920000D03*
D12*
X120190000Y-104460000D03*
D11*
X124000000Y-107000000D03*
D10*
X118920000Y-107000000D03*
X129080000Y-107000000D03*
D12*
X126540000Y-101920000D03*
D13*
X116915000Y-104460000D03*
X129842000Y-101920000D03*
D11*
X48000000Y-107000000D03*
D10*
X53080000Y-107000000D03*
D12*
X44190000Y-104460000D03*
D10*
X42920000Y-107000000D03*
D12*
X50540000Y-101920000D03*
D13*
X40915000Y-104460000D03*
X53842000Y-101920000D03*
D10*
X53080000Y-50000000D03*
D12*
X44190000Y-47460000D03*
D10*
X42920000Y-50000000D03*
D11*
X48000000Y-50000000D03*
D12*
X50540000Y-44920000D03*
D13*
X40915000Y-47460000D03*
X53842000Y-44920000D03*
D12*
X101190000Y-85460000D03*
D10*
X110080000Y-88000000D03*
D11*
X105000000Y-88000000D03*
D12*
X107540000Y-82920000D03*
D10*
X99920000Y-88000000D03*
D13*
X97915000Y-85460000D03*
X110842000Y-82920000D03*
D12*
X44190000Y-123460000D03*
X50540000Y-120920000D03*
D10*
X53080000Y-126000000D03*
D11*
X48000000Y-126000000D03*
D10*
X42920000Y-126000000D03*
D13*
X40915000Y-123460000D03*
X53842000Y-120920000D03*
D12*
X44190000Y-66460000D03*
D10*
X53080000Y-69000000D03*
X42920000Y-69000000D03*
D12*
X50540000Y-63920000D03*
D11*
X48000000Y-69000000D03*
D13*
X40915000Y-66460000D03*
X53842000Y-63920000D03*
D12*
X50540000Y-82920000D03*
D10*
X53080000Y-88000000D03*
D12*
X44190000Y-85460000D03*
D10*
X42920000Y-88000000D03*
D11*
X48000000Y-88000000D03*
D13*
X40915000Y-85460000D03*
X53842000Y-82920000D03*
D11*
X86000000Y-88000000D03*
D10*
X80920000Y-88000000D03*
D12*
X82190000Y-85460000D03*
X88540000Y-82920000D03*
D10*
X91080000Y-88000000D03*
D13*
X78915000Y-85460000D03*
X91842000Y-82920000D03*
D10*
X110080000Y-50000000D03*
D12*
X107540000Y-44920000D03*
X101190000Y-47460000D03*
D10*
X99920000Y-50000000D03*
D11*
X105000000Y-50000000D03*
D13*
X97915000Y-47460000D03*
X110842000Y-44920000D03*
D17*
X76000000Y-105900000D03*
X76000000Y-103100000D03*
D18*
X61500000Y-73000000D03*
X61500000Y-74900000D03*
D17*
X115100000Y-41500000D03*
X117900000Y-41500000D03*
D19*
X107750000Y-93700000D03*
X107750000Y-92300000D03*
X102250000Y-92300000D03*
X102250000Y-93700000D03*
X126750000Y-131700000D03*
X126750000Y-130300000D03*
X121250000Y-130300000D03*
X121250000Y-131700000D03*
D17*
X95000000Y-48800000D03*
X95000000Y-46000000D03*
X114000000Y-105900000D03*
X114000000Y-103100000D03*
D18*
X99500000Y-111050000D03*
X99500000Y-112950000D03*
D19*
X88750000Y-131700000D03*
X88750000Y-130300000D03*
X83250000Y-130300000D03*
X83250000Y-131700000D03*
D17*
X114000000Y-124800000D03*
X114000000Y-122000000D03*
X57000000Y-48900000D03*
X57000000Y-46100000D03*
D18*
X118500000Y-73050000D03*
X118500000Y-74950000D03*
D17*
X57000000Y-86900000D03*
X57000000Y-84100000D03*
X115100000Y-117500000D03*
X117900000Y-117500000D03*
D18*
X53500000Y-54050000D03*
X53500000Y-55950000D03*
D20*
X64475000Y-40025000D03*
D21*
X67015000Y-40025000D03*
X69555000Y-40025000D03*
D17*
X95000000Y-105800000D03*
X95000000Y-103000000D03*
D18*
X110500000Y-54100000D03*
X110500000Y-56000000D03*
X91500000Y-130050000D03*
X91500000Y-131950000D03*
X99500000Y-73100000D03*
X99500000Y-75000000D03*
D17*
X115100000Y-79500000D03*
X117900000Y-79500000D03*
X76000000Y-67900000D03*
X76000000Y-65100000D03*
D20*
X102420000Y-136000000D03*
D21*
X104960000Y-136000000D03*
X107500000Y-136000000D03*
D20*
X102460000Y-40000000D03*
D21*
X105000000Y-40000000D03*
X107540000Y-40000000D03*
D19*
X121250000Y-111300000D03*
X121250000Y-112700000D03*
X126750000Y-112700000D03*
X126750000Y-111300000D03*
D18*
X42500000Y-111050000D03*
X42500000Y-112950000D03*
X72500000Y-54000000D03*
X72500000Y-55900000D03*
D19*
X50750000Y-131700000D03*
X50750000Y-130300000D03*
X45250000Y-130300000D03*
X45250000Y-131700000D03*
X107750000Y-131700000D03*
X107750000Y-130300000D03*
X102250000Y-130300000D03*
X102250000Y-131700000D03*
D18*
X118500000Y-111050000D03*
X118500000Y-112950000D03*
D17*
X114000000Y-87000000D03*
X114000000Y-84200000D03*
D19*
X102250000Y-73300000D03*
X102250000Y-74700000D03*
X107750000Y-74700000D03*
X107750000Y-73300000D03*
D18*
X133750000Y-47250000D03*
X133750000Y-49150000D03*
D19*
X45250000Y-111300000D03*
X45250000Y-112700000D03*
X50750000Y-112700000D03*
X50750000Y-111300000D03*
X69750000Y-93700000D03*
X69750000Y-92300000D03*
X64250000Y-92300000D03*
X64250000Y-93700000D03*
D18*
X42500000Y-73050000D03*
X42500000Y-74950000D03*
X80500000Y-111050000D03*
X80500000Y-112950000D03*
X110500000Y-92100000D03*
X110500000Y-94000000D03*
D19*
X69750000Y-55700000D03*
X69750000Y-54300000D03*
X64250000Y-54300000D03*
X64250000Y-55700000D03*
D17*
X76000000Y-48900000D03*
X76000000Y-46100000D03*
D18*
X129500000Y-54550000D03*
X129500000Y-56450000D03*
D19*
X64250000Y-111300000D03*
X64250000Y-112700000D03*
X69750000Y-112700000D03*
X69750000Y-111300000D03*
X107750000Y-55700000D03*
X107750000Y-54300000D03*
X102250000Y-54300000D03*
X102250000Y-55700000D03*
X83250000Y-111300000D03*
X83250000Y-112700000D03*
X88750000Y-112700000D03*
X88750000Y-111300000D03*
D18*
X129500000Y-92050000D03*
X129500000Y-93950000D03*
D17*
X57000000Y-124900000D03*
X57000000Y-122100000D03*
X114000000Y-67800000D03*
X114000000Y-65000000D03*
D19*
X102250000Y-111300000D03*
X102250000Y-112700000D03*
X107750000Y-112700000D03*
X107750000Y-111300000D03*
X50750000Y-55700000D03*
X50750000Y-54300000D03*
X45250000Y-54300000D03*
X45250000Y-55700000D03*
X121250000Y-73300000D03*
X121250000Y-74700000D03*
X126750000Y-74700000D03*
X126750000Y-73300000D03*
X88750000Y-93700000D03*
X88750000Y-92300000D03*
X83250000Y-92300000D03*
X83250000Y-93700000D03*
D18*
X61500000Y-111050000D03*
X61500000Y-112950000D03*
D22*
X133750000Y-52900000D03*
X133750000Y-51000000D03*
D17*
X95000000Y-67800000D03*
X95000000Y-65000000D03*
X76000000Y-124800000D03*
X76000000Y-122000000D03*
D18*
X72500000Y-130050000D03*
X72500000Y-131950000D03*
X91500000Y-54100000D03*
X91500000Y-56000000D03*
D19*
X64250000Y-73300000D03*
X64250000Y-74700000D03*
X69750000Y-74700000D03*
X69750000Y-73300000D03*
X45250000Y-73300000D03*
X45250000Y-74700000D03*
X50750000Y-74700000D03*
X50750000Y-73300000D03*
D20*
X37975000Y-104475000D03*
D21*
X37975000Y-107015000D03*
X37975000Y-109555000D03*
D17*
X115100000Y-98500000D03*
X117900000Y-98500000D03*
D18*
X110500000Y-130050000D03*
X110500000Y-131950000D03*
X80500000Y-73050000D03*
X80500000Y-74950000D03*
D23*
X42500000Y-55912500D03*
X42500000Y-54087500D03*
D19*
X88750000Y-55700000D03*
X88750000Y-54300000D03*
X83250000Y-54300000D03*
X83250000Y-55700000D03*
D20*
X134000000Y-66475000D03*
D21*
X134000000Y-69015000D03*
X134000000Y-71555000D03*
D19*
X126750000Y-93700000D03*
X126750000Y-92300000D03*
X121250000Y-92300000D03*
X121250000Y-93700000D03*
D17*
X115100000Y-60500000D03*
X117900000Y-60500000D03*
X114000000Y-48900000D03*
X114000000Y-46100000D03*
D19*
X83250000Y-73300000D03*
X83250000Y-74700000D03*
X88750000Y-74700000D03*
X88750000Y-73300000D03*
D18*
X91500000Y-92100000D03*
X91500000Y-94000000D03*
D19*
X126750000Y-55700000D03*
X126750000Y-54300000D03*
X121250000Y-54300000D03*
X121250000Y-55700000D03*
D17*
X95000000Y-124900000D03*
X95000000Y-122100000D03*
X57000000Y-105900000D03*
X57000000Y-103100000D03*
D20*
X64460000Y-136000000D03*
D21*
X67000000Y-136000000D03*
X69540000Y-136000000D03*
D20*
X38000000Y-66460000D03*
D21*
X38000000Y-69000000D03*
X38000000Y-71540000D03*
D18*
X53500000Y-92100000D03*
X53500000Y-94000000D03*
D19*
X69750000Y-131700000D03*
X69750000Y-130300000D03*
X64250000Y-130300000D03*
X64250000Y-131700000D03*
D18*
X72500000Y-92100000D03*
X72500000Y-94000000D03*
D19*
X50750000Y-93700000D03*
X50750000Y-92300000D03*
X45250000Y-92300000D03*
X45250000Y-93700000D03*
D17*
X95000000Y-86900000D03*
X95000000Y-84100000D03*
D18*
X129500000Y-130050000D03*
X129500000Y-131950000D03*
D17*
X57000000Y-67800000D03*
X57000000Y-65000000D03*
X76000000Y-86800000D03*
X76000000Y-84000000D03*
D18*
X53500000Y-130050000D03*
X53500000Y-131950000D03*
M02*
