G04 #@! TF.GenerationSoftware,KiCad,Pcbnew,(6.0.5)*
G04 #@! TF.CreationDate,2022-06-26T21:28:20+02:00*
G04 #@! TF.ProjectId,5x5x2-part1,35783578-322d-4706-9172-74312e6b6963,rev?*
G04 #@! TF.SameCoordinates,Original*
G04 #@! TF.FileFunction,Profile,NP*
%FSLAX46Y46*%
G04 Gerber Fmt 4.6, Leading zero omitted, Abs format (unit mm)*
G04 Created by KiCad (PCBNEW (6.0.5)) date 2022-06-26 21:28:20*
%MOMM*%
%LPD*%
G01*
G04 APERTURE LIST*
G04 #@! TA.AperFunction,Profile*
%ADD10C,0.100000*%
G04 #@! TD*
G04 #@! TA.AperFunction,Profile*
%ADD11C,0.120000*%
G04 #@! TD*
G04 APERTURE END LIST*
D10*
X36000000Y-38000000D02*
X136000000Y-38000000D01*
X36000000Y-138000000D02*
X36000000Y-38000000D01*
X136000000Y-138000000D02*
X36000000Y-138000000D01*
X136000000Y-38000000D02*
X136000000Y-138000000D01*
D11*
X103200000Y-94550000D02*
X103200000Y-91450000D01*
X106800000Y-91450000D02*
X106800000Y-94550000D01*
X105400000Y-94550000D02*
X104600000Y-94550000D01*
X104600000Y-91450000D02*
X105400000Y-91450000D01*
X104600000Y-91450000D02*
G75*
G03*
X103200000Y-91450000I-700000J-25056D01*
G01*
X103200000Y-94550000D02*
G75*
G03*
X104600000Y-94550000I700000J25056D01*
G01*
X105400000Y-94550000D02*
G75*
G03*
X106800000Y-94550000I700000J25056D01*
G01*
X106800000Y-91450000D02*
G75*
G03*
X105400000Y-91450000I-700000J-25056D01*
G01*
X125800000Y-129450000D02*
X125800000Y-132550000D01*
X124400000Y-132550000D02*
X123600000Y-132550000D01*
X122200000Y-132550000D02*
X122200000Y-129450000D01*
X123600000Y-129450000D02*
X124400000Y-129450000D01*
X125800000Y-129450000D02*
G75*
G03*
X124400000Y-129450000I-700000J-25056D01*
G01*
X123600000Y-129450000D02*
G75*
G03*
X122200000Y-129450000I-700000J-25056D01*
G01*
X124400000Y-132550000D02*
G75*
G03*
X125800000Y-132550000I700000J25056D01*
G01*
X122200000Y-132550000D02*
G75*
G03*
X123600000Y-132550000I700000J25056D01*
G01*
X84200000Y-132550000D02*
X84200000Y-129450000D01*
X85600000Y-129450000D02*
X86400000Y-129450000D01*
X86400000Y-132550000D02*
X85600000Y-132550000D01*
X87800000Y-129450000D02*
X87800000Y-132550000D01*
X86400000Y-132550000D02*
G75*
G03*
X87800000Y-132550000I700000J25056D01*
G01*
X87800000Y-129450000D02*
G75*
G03*
X86400000Y-129450000I-700000J-25056D01*
G01*
X84200000Y-132550000D02*
G75*
G03*
X85600000Y-132550000I700000J25056D01*
G01*
X85600000Y-129450000D02*
G75*
G03*
X84200000Y-129450000I-700000J-25056D01*
G01*
X123600000Y-110450000D02*
X124400000Y-110450000D01*
X125800000Y-110450000D02*
X125800000Y-113550000D01*
X122200000Y-113550000D02*
X122200000Y-110450000D01*
X124400000Y-113550000D02*
X123600000Y-113550000D01*
X122200000Y-113550000D02*
G75*
G03*
X123600000Y-113550000I700000J25056D01*
G01*
X125800000Y-110450000D02*
G75*
G03*
X124400000Y-110450000I-700000J-25056D01*
G01*
X124400000Y-113550000D02*
G75*
G03*
X125800000Y-113550000I700000J25056D01*
G01*
X123600000Y-110450000D02*
G75*
G03*
X122200000Y-110450000I-700000J-25056D01*
G01*
X49800000Y-129450000D02*
X49800000Y-132550000D01*
X47600000Y-129450000D02*
X48400000Y-129450000D01*
X48400000Y-132550000D02*
X47600000Y-132550000D01*
X46200000Y-132550000D02*
X46200000Y-129450000D01*
X47600000Y-129450000D02*
G75*
G03*
X46200000Y-129450000I-700000J-25056D01*
G01*
X49800000Y-129450000D02*
G75*
G03*
X48400000Y-129450000I-700000J-25056D01*
G01*
X46200000Y-132550000D02*
G75*
G03*
X47600000Y-132550000I700000J25056D01*
G01*
X48400000Y-132550000D02*
G75*
G03*
X49800000Y-132550000I700000J25056D01*
G01*
X106800000Y-129450000D02*
X106800000Y-132550000D01*
X105400000Y-132550000D02*
X104600000Y-132550000D01*
X104600000Y-129450000D02*
X105400000Y-129450000D01*
X103200000Y-132550000D02*
X103200000Y-129450000D01*
X105400000Y-132550000D02*
G75*
G03*
X106800000Y-132550000I700000J25056D01*
G01*
X104600000Y-129450000D02*
G75*
G03*
X103200000Y-129450000I-700000J-25056D01*
G01*
X106800000Y-129450000D02*
G75*
G03*
X105400000Y-129450000I-700000J-25056D01*
G01*
X103200000Y-132550000D02*
G75*
G03*
X104600000Y-132550000I700000J25056D01*
G01*
X106800000Y-72450000D02*
X106800000Y-75550000D01*
X103200000Y-75550000D02*
X103200000Y-72450000D01*
X104600000Y-72450000D02*
X105400000Y-72450000D01*
X105400000Y-75550000D02*
X104600000Y-75550000D01*
X103200000Y-75550000D02*
G75*
G03*
X104600000Y-75550000I700000J25056D01*
G01*
X104600000Y-72450000D02*
G75*
G03*
X103200000Y-72450000I-700000J-25056D01*
G01*
X105400000Y-75550000D02*
G75*
G03*
X106800000Y-75550000I700000J25056D01*
G01*
X106800000Y-72450000D02*
G75*
G03*
X105400000Y-72450000I-700000J-25056D01*
G01*
X49800000Y-110450000D02*
X49800000Y-113550000D01*
X47600000Y-110450000D02*
X48400000Y-110450000D01*
X46200000Y-113550000D02*
X46200000Y-110450000D01*
X48400000Y-113550000D02*
X47600000Y-113550000D01*
X47600000Y-110450000D02*
G75*
G03*
X46200000Y-110450000I-700000J-25056D01*
G01*
X46200000Y-113550000D02*
G75*
G03*
X47600000Y-113550000I700000J25056D01*
G01*
X48400000Y-113550000D02*
G75*
G03*
X49800000Y-113550000I700000J25056D01*
G01*
X49800000Y-110450000D02*
G75*
G03*
X48400000Y-110450000I-700000J-25056D01*
G01*
X67400000Y-94550000D02*
X66600000Y-94550000D01*
X65200000Y-94550000D02*
X65200000Y-91450000D01*
X66600000Y-91450000D02*
X67400000Y-91450000D01*
X68800000Y-91450000D02*
X68800000Y-94550000D01*
X68800000Y-91450000D02*
G75*
G03*
X67400000Y-91450000I-700000J-25056D01*
G01*
X66600000Y-91450000D02*
G75*
G03*
X65200000Y-91450000I-700000J-25056D01*
G01*
X67400000Y-94550000D02*
G75*
G03*
X68800000Y-94550000I700000J25056D01*
G01*
X65200000Y-94550000D02*
G75*
G03*
X66600000Y-94550000I700000J25056D01*
G01*
X66600000Y-53450000D02*
X67400000Y-53450000D01*
X65200000Y-56550000D02*
X65200000Y-53450000D01*
X67400000Y-56550000D02*
X66600000Y-56550000D01*
X68800000Y-53450000D02*
X68800000Y-56550000D01*
X67400000Y-56550000D02*
G75*
G03*
X68800000Y-56550000I700000J25056D01*
G01*
X66600000Y-53450000D02*
G75*
G03*
X65200000Y-53450000I-700000J-25056D01*
G01*
X68800000Y-53450000D02*
G75*
G03*
X67400000Y-53450000I-700000J-25056D01*
G01*
X65200000Y-56550000D02*
G75*
G03*
X66600000Y-56550000I700000J25056D01*
G01*
X65200000Y-113550000D02*
X65200000Y-110450000D01*
X68800000Y-110450000D02*
X68800000Y-113550000D01*
X66600000Y-110450000D02*
X67400000Y-110450000D01*
X67400000Y-113550000D02*
X66600000Y-113550000D01*
X66600000Y-110450000D02*
G75*
G03*
X65200000Y-110450000I-700000J-25056D01*
G01*
X67400000Y-113550000D02*
G75*
G03*
X68800000Y-113550000I700000J25056D01*
G01*
X68800000Y-110450000D02*
G75*
G03*
X67400000Y-110450000I-700000J-25056D01*
G01*
X65200000Y-113550000D02*
G75*
G03*
X66600000Y-113550000I700000J25056D01*
G01*
X104600000Y-53450000D02*
X105400000Y-53450000D01*
X105400000Y-56550000D02*
X104600000Y-56550000D01*
X103200000Y-56550000D02*
X103200000Y-53450000D01*
X106800000Y-53450000D02*
X106800000Y-56550000D01*
X105400000Y-56550000D02*
G75*
G03*
X106800000Y-56550000I700000J25056D01*
G01*
X103200000Y-56550000D02*
G75*
G03*
X104600000Y-56550000I700000J25056D01*
G01*
X104600000Y-53450000D02*
G75*
G03*
X103200000Y-53450000I-700000J-25056D01*
G01*
X106800000Y-53450000D02*
G75*
G03*
X105400000Y-53450000I-700000J-25056D01*
G01*
X86400000Y-113550000D02*
X85600000Y-113550000D01*
X84200000Y-113550000D02*
X84200000Y-110450000D01*
X87800000Y-110450000D02*
X87800000Y-113550000D01*
X85600000Y-110450000D02*
X86400000Y-110450000D01*
X86400000Y-113550000D02*
G75*
G03*
X87800000Y-113550000I700000J25056D01*
G01*
X84200000Y-113550000D02*
G75*
G03*
X85600000Y-113550000I700000J25056D01*
G01*
X87800000Y-110450000D02*
G75*
G03*
X86400000Y-110450000I-700000J-25056D01*
G01*
X85600000Y-110450000D02*
G75*
G03*
X84200000Y-110450000I-700000J-25056D01*
G01*
X103200000Y-113550000D02*
X103200000Y-110450000D01*
X105400000Y-113550000D02*
X104600000Y-113550000D01*
X106800000Y-110450000D02*
X106800000Y-113550000D01*
X104600000Y-110450000D02*
X105400000Y-110450000D01*
X106800000Y-110450000D02*
G75*
G03*
X105400000Y-110450000I-700000J-25056D01*
G01*
X103200000Y-113550000D02*
G75*
G03*
X104600000Y-113550000I700000J25056D01*
G01*
X105400000Y-113550000D02*
G75*
G03*
X106800000Y-113550000I700000J25056D01*
G01*
X104600000Y-110450000D02*
G75*
G03*
X103200000Y-110450000I-700000J-25056D01*
G01*
X49800000Y-53450000D02*
X49800000Y-56550000D01*
X46200000Y-56550000D02*
X46200000Y-53450000D01*
X47600000Y-53450000D02*
X48400000Y-53450000D01*
X48400000Y-56550000D02*
X47600000Y-56550000D01*
X48400000Y-56550000D02*
G75*
G03*
X49800000Y-56550000I700000J25056D01*
G01*
X46200000Y-56550000D02*
G75*
G03*
X47600000Y-56550000I700000J25056D01*
G01*
X49800000Y-53450000D02*
G75*
G03*
X48400000Y-53450000I-700000J-25056D01*
G01*
X47600000Y-53450000D02*
G75*
G03*
X46200000Y-53450000I-700000J-25056D01*
G01*
X124400000Y-75550000D02*
X123600000Y-75550000D01*
X125800000Y-72450000D02*
X125800000Y-75550000D01*
X123600000Y-72450000D02*
X124400000Y-72450000D01*
X122200000Y-75550000D02*
X122200000Y-72450000D01*
X124400000Y-75550000D02*
G75*
G03*
X125800000Y-75550000I700000J25056D01*
G01*
X122200000Y-75550000D02*
G75*
G03*
X123600000Y-75550000I700000J25056D01*
G01*
X125800000Y-72450000D02*
G75*
G03*
X124400000Y-72450000I-700000J-25056D01*
G01*
X123600000Y-72450000D02*
G75*
G03*
X122200000Y-72450000I-700000J-25056D01*
G01*
X84200000Y-94550000D02*
X84200000Y-91450000D01*
X85600000Y-91450000D02*
X86400000Y-91450000D01*
X87800000Y-91450000D02*
X87800000Y-94550000D01*
X86400000Y-94550000D02*
X85600000Y-94550000D01*
X86400000Y-94550000D02*
G75*
G03*
X87800000Y-94550000I700000J25056D01*
G01*
X84200000Y-94550000D02*
G75*
G03*
X85600000Y-94550000I700000J25056D01*
G01*
X87800000Y-91450000D02*
G75*
G03*
X86400000Y-91450000I-700000J-25056D01*
G01*
X85600000Y-91450000D02*
G75*
G03*
X84200000Y-91450000I-700000J-25056D01*
G01*
X68800000Y-72450000D02*
X68800000Y-75550000D01*
X66600000Y-72450000D02*
X67400000Y-72450000D01*
X65200000Y-75550000D02*
X65200000Y-72450000D01*
X67400000Y-75550000D02*
X66600000Y-75550000D01*
X65200000Y-75550000D02*
G75*
G03*
X66600000Y-75550000I700000J25056D01*
G01*
X67400000Y-75550000D02*
G75*
G03*
X68800000Y-75550000I700000J25056D01*
G01*
X68800000Y-72450000D02*
G75*
G03*
X67400000Y-72450000I-700000J-25056D01*
G01*
X66600000Y-72450000D02*
G75*
G03*
X65200000Y-72450000I-700000J-25056D01*
G01*
X49800000Y-72450000D02*
X49800000Y-75550000D01*
X48400000Y-75550000D02*
X47600000Y-75550000D01*
X47600000Y-72450000D02*
X48400000Y-72450000D01*
X46200000Y-75550000D02*
X46200000Y-72450000D01*
X47600000Y-72450000D02*
G75*
G03*
X46200000Y-72450000I-700000J-25056D01*
G01*
X48400000Y-75550000D02*
G75*
G03*
X49800000Y-75550000I700000J25056D01*
G01*
X46200000Y-75550000D02*
G75*
G03*
X47600000Y-75550000I700000J25056D01*
G01*
X49800000Y-72450000D02*
G75*
G03*
X48400000Y-72450000I-700000J-25056D01*
G01*
X85600000Y-53450000D02*
X86400000Y-53450000D01*
X84200000Y-56550000D02*
X84200000Y-53450000D01*
X87800000Y-53450000D02*
X87800000Y-56550000D01*
X86400000Y-56550000D02*
X85600000Y-56550000D01*
X85600000Y-53450000D02*
G75*
G03*
X84200000Y-53450000I-700000J-25056D01*
G01*
X86400000Y-56550000D02*
G75*
G03*
X87800000Y-56550000I700000J25056D01*
G01*
X84200000Y-56550000D02*
G75*
G03*
X85600000Y-56550000I700000J25056D01*
G01*
X87800000Y-53450000D02*
G75*
G03*
X86400000Y-53450000I-700000J-25056D01*
G01*
X124400000Y-94550000D02*
X123600000Y-94550000D01*
X122200000Y-94550000D02*
X122200000Y-91450000D01*
X125800000Y-91450000D02*
X125800000Y-94550000D01*
X123600000Y-91450000D02*
X124400000Y-91450000D01*
X122200000Y-94550000D02*
G75*
G03*
X123600000Y-94550000I700000J25056D01*
G01*
X125800000Y-91450000D02*
G75*
G03*
X124400000Y-91450000I-700000J-25056D01*
G01*
X124400000Y-94550000D02*
G75*
G03*
X125800000Y-94550000I700000J25056D01*
G01*
X123600000Y-91450000D02*
G75*
G03*
X122200000Y-91450000I-700000J-25056D01*
G01*
X86400000Y-75550000D02*
X85600000Y-75550000D01*
X84200000Y-75550000D02*
X84200000Y-72450000D01*
X87800000Y-72450000D02*
X87800000Y-75550000D01*
X85600000Y-72450000D02*
X86400000Y-72450000D01*
X85600000Y-72450000D02*
G75*
G03*
X84200000Y-72450000I-700000J-25056D01*
G01*
X84200000Y-75550000D02*
G75*
G03*
X85600000Y-75550000I700000J25056D01*
G01*
X87800000Y-72450000D02*
G75*
G03*
X86400000Y-72450000I-700000J-25056D01*
G01*
X86400000Y-75550000D02*
G75*
G03*
X87800000Y-75550000I700000J25056D01*
G01*
X123600000Y-53450000D02*
X124400000Y-53450000D01*
X124400000Y-56550000D02*
X123600000Y-56550000D01*
X125800000Y-53450000D02*
X125800000Y-56550000D01*
X122200000Y-56550000D02*
X122200000Y-53450000D01*
X125800000Y-53450000D02*
G75*
G03*
X124400000Y-53450000I-700000J-25056D01*
G01*
X123600000Y-53450000D02*
G75*
G03*
X122200000Y-53450000I-700000J-25056D01*
G01*
X124400000Y-56550000D02*
G75*
G03*
X125800000Y-56550000I700000J25056D01*
G01*
X122200000Y-56550000D02*
G75*
G03*
X123600000Y-56550000I700000J25056D01*
G01*
X68800000Y-129450000D02*
X68800000Y-132550000D01*
X65200000Y-132550000D02*
X65200000Y-129450000D01*
X67400000Y-132550000D02*
X66600000Y-132550000D01*
X66600000Y-129450000D02*
X67400000Y-129450000D01*
X66600000Y-129450000D02*
G75*
G03*
X65200000Y-129450000I-700000J-25056D01*
G01*
X65200000Y-132550000D02*
G75*
G03*
X66600000Y-132550000I700000J25056D01*
G01*
X68800000Y-129450000D02*
G75*
G03*
X67400000Y-129450000I-700000J-25056D01*
G01*
X67400000Y-132550000D02*
G75*
G03*
X68800000Y-132550000I700000J25056D01*
G01*
X47600000Y-91450000D02*
X48400000Y-91450000D01*
X48400000Y-94550000D02*
X47600000Y-94550000D01*
X49800000Y-91450000D02*
X49800000Y-94550000D01*
X46200000Y-94550000D02*
X46200000Y-91450000D01*
X46200000Y-94550000D02*
G75*
G03*
X47600000Y-94550000I700000J25056D01*
G01*
X48400000Y-94550000D02*
G75*
G03*
X49800000Y-94550000I700000J25056D01*
G01*
X47600000Y-91450000D02*
G75*
G03*
X46200000Y-91450000I-700000J-25056D01*
G01*
X49800000Y-91450000D02*
G75*
G03*
X48400000Y-91450000I-700000J-25056D01*
G01*
M02*
