G04 #@! TF.GenerationSoftware,KiCad,Pcbnew,(6.0.5)*
G04 #@! TF.CreationDate,2022-06-26T21:28:20+02:00*
G04 #@! TF.ProjectId,5x5x2-part1,35783578-322d-4706-9172-74312e6b6963,rev?*
G04 #@! TF.SameCoordinates,Original*
G04 #@! TF.FileFunction,Legend,Top*
G04 #@! TF.FilePolarity,Positive*
%FSLAX46Y46*%
G04 Gerber Fmt 4.6, Leading zero omitted, Abs format (unit mm)*
G04 Created by KiCad (PCBNEW (6.0.5)) date 2022-06-26 21:28:20*
%MOMM*%
%LPD*%
G01*
G04 APERTURE LIST*
G04 Aperture macros list*
%AMRoundRect*
0 Rectangle with rounded corners*
0 $1 Rounding radius*
0 $2 $3 $4 $5 $6 $7 $8 $9 X,Y pos of 4 corners*
0 Add a 4 corners polygon primitive as box body*
4,1,4,$2,$3,$4,$5,$6,$7,$8,$9,$2,$3,0*
0 Add four circle primitives for the rounded corners*
1,1,$1+$1,$2,$3*
1,1,$1+$1,$4,$5*
1,1,$1+$1,$6,$7*
1,1,$1+$1,$8,$9*
0 Add four rect primitives between the rounded corners*
20,1,$1+$1,$2,$3,$4,$5,0*
20,1,$1+$1,$4,$5,$6,$7,0*
20,1,$1+$1,$6,$7,$8,$9,0*
20,1,$1+$1,$8,$9,$2,$3,0*%
G04 Aperture macros list end*
%ADD10C,0.150000*%
%ADD11C,0.120000*%
%ADD12C,0.250000*%
%ADD13C,1.750000*%
%ADD14C,4.000000*%
%ADD15C,3.050000*%
%ADD16C,3.200000*%
%ADD17RoundRect,0.250000X-0.450000X0.262500X-0.450000X-0.262500X0.450000X-0.262500X0.450000X0.262500X0*%
%ADD18RoundRect,0.250000X0.450000X-0.262500X0.450000X0.262500X-0.450000X0.262500X-0.450000X-0.262500X0*%
%ADD19O,4.000000X2.300000*%
%ADD20C,1.800000*%
%ADD21R,1.700000X1.700000*%
%ADD22O,1.700000X1.700000*%
G04 APERTURE END LIST*
D10*
X60190476Y-63154761D02*
X60333333Y-63202380D01*
X60571428Y-63202380D01*
X60666666Y-63154761D01*
X60714285Y-63107142D01*
X60761904Y-63011904D01*
X60761904Y-62916666D01*
X60714285Y-62821428D01*
X60666666Y-62773809D01*
X60571428Y-62726190D01*
X60380952Y-62678571D01*
X60285714Y-62630952D01*
X60238095Y-62583333D01*
X60190476Y-62488095D01*
X60190476Y-62392857D01*
X60238095Y-62297619D01*
X60285714Y-62250000D01*
X60380952Y-62202380D01*
X60619047Y-62202380D01*
X60761904Y-62250000D01*
X61095238Y-62202380D02*
X61333333Y-63202380D01*
X61523809Y-62488095D01*
X61714285Y-63202380D01*
X61952380Y-62202380D01*
X62285714Y-62297619D02*
X62333333Y-62250000D01*
X62428571Y-62202380D01*
X62666666Y-62202380D01*
X62761904Y-62250000D01*
X62809523Y-62297619D01*
X62857142Y-62392857D01*
X62857142Y-62488095D01*
X62809523Y-62630952D01*
X62238095Y-63202380D01*
X62857142Y-63202380D01*
X63238095Y-62297619D02*
X63285714Y-62250000D01*
X63380952Y-62202380D01*
X63619047Y-62202380D01*
X63714285Y-62250000D01*
X63761904Y-62297619D01*
X63809523Y-62392857D01*
X63809523Y-62488095D01*
X63761904Y-62630952D01*
X63190476Y-63202380D01*
X63809523Y-63202380D01*
X60190476Y-101154761D02*
X60333333Y-101202380D01*
X60571428Y-101202380D01*
X60666666Y-101154761D01*
X60714285Y-101107142D01*
X60761904Y-101011904D01*
X60761904Y-100916666D01*
X60714285Y-100821428D01*
X60666666Y-100773809D01*
X60571428Y-100726190D01*
X60380952Y-100678571D01*
X60285714Y-100630952D01*
X60238095Y-100583333D01*
X60190476Y-100488095D01*
X60190476Y-100392857D01*
X60238095Y-100297619D01*
X60285714Y-100250000D01*
X60380952Y-100202380D01*
X60619047Y-100202380D01*
X60761904Y-100250000D01*
X61095238Y-100202380D02*
X61333333Y-101202380D01*
X61523809Y-100488095D01*
X61714285Y-101202380D01*
X61952380Y-100202380D01*
X62761904Y-100535714D02*
X62761904Y-101202380D01*
X62523809Y-100154761D02*
X62285714Y-100869047D01*
X62904761Y-100869047D01*
X63238095Y-100297619D02*
X63285714Y-100250000D01*
X63380952Y-100202380D01*
X63619047Y-100202380D01*
X63714285Y-100250000D01*
X63761904Y-100297619D01*
X63809523Y-100392857D01*
X63809523Y-100488095D01*
X63761904Y-100630952D01*
X63190476Y-101202380D01*
X63809523Y-101202380D01*
X98190476Y-63154761D02*
X98333333Y-63202380D01*
X98571428Y-63202380D01*
X98666666Y-63154761D01*
X98714285Y-63107142D01*
X98761904Y-63011904D01*
X98761904Y-62916666D01*
X98714285Y-62821428D01*
X98666666Y-62773809D01*
X98571428Y-62726190D01*
X98380952Y-62678571D01*
X98285714Y-62630952D01*
X98238095Y-62583333D01*
X98190476Y-62488095D01*
X98190476Y-62392857D01*
X98238095Y-62297619D01*
X98285714Y-62250000D01*
X98380952Y-62202380D01*
X98619047Y-62202380D01*
X98761904Y-62250000D01*
X99095238Y-62202380D02*
X99333333Y-63202380D01*
X99523809Y-62488095D01*
X99714285Y-63202380D01*
X99952380Y-62202380D01*
X100285714Y-62297619D02*
X100333333Y-62250000D01*
X100428571Y-62202380D01*
X100666666Y-62202380D01*
X100761904Y-62250000D01*
X100809523Y-62297619D01*
X100857142Y-62392857D01*
X100857142Y-62488095D01*
X100809523Y-62630952D01*
X100238095Y-63202380D01*
X100857142Y-63202380D01*
X101714285Y-62535714D02*
X101714285Y-63202380D01*
X101476190Y-62154761D02*
X101238095Y-62869047D01*
X101857142Y-62869047D01*
X79190476Y-120154761D02*
X79333333Y-120202380D01*
X79571428Y-120202380D01*
X79666666Y-120154761D01*
X79714285Y-120107142D01*
X79761904Y-120011904D01*
X79761904Y-119916666D01*
X79714285Y-119821428D01*
X79666666Y-119773809D01*
X79571428Y-119726190D01*
X79380952Y-119678571D01*
X79285714Y-119630952D01*
X79238095Y-119583333D01*
X79190476Y-119488095D01*
X79190476Y-119392857D01*
X79238095Y-119297619D01*
X79285714Y-119250000D01*
X79380952Y-119202380D01*
X79619047Y-119202380D01*
X79761904Y-119250000D01*
X80095238Y-119202380D02*
X80333333Y-120202380D01*
X80523809Y-119488095D01*
X80714285Y-120202380D01*
X80952380Y-119202380D01*
X81809523Y-119202380D02*
X81333333Y-119202380D01*
X81285714Y-119678571D01*
X81333333Y-119630952D01*
X81428571Y-119583333D01*
X81666666Y-119583333D01*
X81761904Y-119630952D01*
X81809523Y-119678571D01*
X81857142Y-119773809D01*
X81857142Y-120011904D01*
X81809523Y-120107142D01*
X81761904Y-120154761D01*
X81666666Y-120202380D01*
X81428571Y-120202380D01*
X81333333Y-120154761D01*
X81285714Y-120107142D01*
X82190476Y-119202380D02*
X82809523Y-119202380D01*
X82476190Y-119583333D01*
X82619047Y-119583333D01*
X82714285Y-119630952D01*
X82761904Y-119678571D01*
X82809523Y-119773809D01*
X82809523Y-120011904D01*
X82761904Y-120107142D01*
X82714285Y-120154761D01*
X82619047Y-120202380D01*
X82333333Y-120202380D01*
X82238095Y-120154761D01*
X82190476Y-120107142D01*
X117190476Y-82154761D02*
X117333333Y-82202380D01*
X117571428Y-82202380D01*
X117666666Y-82154761D01*
X117714285Y-82107142D01*
X117761904Y-82011904D01*
X117761904Y-81916666D01*
X117714285Y-81821428D01*
X117666666Y-81773809D01*
X117571428Y-81726190D01*
X117380952Y-81678571D01*
X117285714Y-81630952D01*
X117238095Y-81583333D01*
X117190476Y-81488095D01*
X117190476Y-81392857D01*
X117238095Y-81297619D01*
X117285714Y-81250000D01*
X117380952Y-81202380D01*
X117619047Y-81202380D01*
X117761904Y-81250000D01*
X118095238Y-81202380D02*
X118333333Y-82202380D01*
X118523809Y-81488095D01*
X118714285Y-82202380D01*
X118952380Y-81202380D01*
X119238095Y-81202380D02*
X119857142Y-81202380D01*
X119523809Y-81583333D01*
X119666666Y-81583333D01*
X119761904Y-81630952D01*
X119809523Y-81678571D01*
X119857142Y-81773809D01*
X119857142Y-82011904D01*
X119809523Y-82107142D01*
X119761904Y-82154761D01*
X119666666Y-82202380D01*
X119380952Y-82202380D01*
X119285714Y-82154761D01*
X119238095Y-82107142D01*
X120761904Y-81202380D02*
X120285714Y-81202380D01*
X120238095Y-81678571D01*
X120285714Y-81630952D01*
X120380952Y-81583333D01*
X120619047Y-81583333D01*
X120714285Y-81630952D01*
X120761904Y-81678571D01*
X120809523Y-81773809D01*
X120809523Y-82011904D01*
X120761904Y-82107142D01*
X120714285Y-82154761D01*
X120619047Y-82202380D01*
X120380952Y-82202380D01*
X120285714Y-82154761D01*
X120238095Y-82107142D01*
X79190476Y-101154761D02*
X79333333Y-101202380D01*
X79571428Y-101202380D01*
X79666666Y-101154761D01*
X79714285Y-101107142D01*
X79761904Y-101011904D01*
X79761904Y-100916666D01*
X79714285Y-100821428D01*
X79666666Y-100773809D01*
X79571428Y-100726190D01*
X79380952Y-100678571D01*
X79285714Y-100630952D01*
X79238095Y-100583333D01*
X79190476Y-100488095D01*
X79190476Y-100392857D01*
X79238095Y-100297619D01*
X79285714Y-100250000D01*
X79380952Y-100202380D01*
X79619047Y-100202380D01*
X79761904Y-100250000D01*
X80095238Y-100202380D02*
X80333333Y-101202380D01*
X80523809Y-100488095D01*
X80714285Y-101202380D01*
X80952380Y-100202380D01*
X81761904Y-100535714D02*
X81761904Y-101202380D01*
X81523809Y-100154761D02*
X81285714Y-100869047D01*
X81904761Y-100869047D01*
X82190476Y-100202380D02*
X82809523Y-100202380D01*
X82476190Y-100583333D01*
X82619047Y-100583333D01*
X82714285Y-100630952D01*
X82761904Y-100678571D01*
X82809523Y-100773809D01*
X82809523Y-101011904D01*
X82761904Y-101107142D01*
X82714285Y-101154761D01*
X82619047Y-101202380D01*
X82333333Y-101202380D01*
X82238095Y-101154761D01*
X82190476Y-101107142D01*
X117190476Y-44154761D02*
X117333333Y-44202380D01*
X117571428Y-44202380D01*
X117666666Y-44154761D01*
X117714285Y-44107142D01*
X117761904Y-44011904D01*
X117761904Y-43916666D01*
X117714285Y-43821428D01*
X117666666Y-43773809D01*
X117571428Y-43726190D01*
X117380952Y-43678571D01*
X117285714Y-43630952D01*
X117238095Y-43583333D01*
X117190476Y-43488095D01*
X117190476Y-43392857D01*
X117238095Y-43297619D01*
X117285714Y-43250000D01*
X117380952Y-43202380D01*
X117619047Y-43202380D01*
X117761904Y-43250000D01*
X118095238Y-43202380D02*
X118333333Y-44202380D01*
X118523809Y-43488095D01*
X118714285Y-44202380D01*
X118952380Y-43202380D01*
X119857142Y-44202380D02*
X119285714Y-44202380D01*
X119571428Y-44202380D02*
X119571428Y-43202380D01*
X119476190Y-43345238D01*
X119380952Y-43440476D01*
X119285714Y-43488095D01*
X120761904Y-43202380D02*
X120285714Y-43202380D01*
X120238095Y-43678571D01*
X120285714Y-43630952D01*
X120380952Y-43583333D01*
X120619047Y-43583333D01*
X120714285Y-43630952D01*
X120761904Y-43678571D01*
X120809523Y-43773809D01*
X120809523Y-44011904D01*
X120761904Y-44107142D01*
X120714285Y-44154761D01*
X120619047Y-44202380D01*
X120380952Y-44202380D01*
X120285714Y-44154761D01*
X120238095Y-44107142D01*
X117190476Y-120154761D02*
X117333333Y-120202380D01*
X117571428Y-120202380D01*
X117666666Y-120154761D01*
X117714285Y-120107142D01*
X117761904Y-120011904D01*
X117761904Y-119916666D01*
X117714285Y-119821428D01*
X117666666Y-119773809D01*
X117571428Y-119726190D01*
X117380952Y-119678571D01*
X117285714Y-119630952D01*
X117238095Y-119583333D01*
X117190476Y-119488095D01*
X117190476Y-119392857D01*
X117238095Y-119297619D01*
X117285714Y-119250000D01*
X117380952Y-119202380D01*
X117619047Y-119202380D01*
X117761904Y-119250000D01*
X118095238Y-119202380D02*
X118333333Y-120202380D01*
X118523809Y-119488095D01*
X118714285Y-120202380D01*
X118952380Y-119202380D01*
X119809523Y-119202380D02*
X119333333Y-119202380D01*
X119285714Y-119678571D01*
X119333333Y-119630952D01*
X119428571Y-119583333D01*
X119666666Y-119583333D01*
X119761904Y-119630952D01*
X119809523Y-119678571D01*
X119857142Y-119773809D01*
X119857142Y-120011904D01*
X119809523Y-120107142D01*
X119761904Y-120154761D01*
X119666666Y-120202380D01*
X119428571Y-120202380D01*
X119333333Y-120154761D01*
X119285714Y-120107142D01*
X120761904Y-119202380D02*
X120285714Y-119202380D01*
X120238095Y-119678571D01*
X120285714Y-119630952D01*
X120380952Y-119583333D01*
X120619047Y-119583333D01*
X120714285Y-119630952D01*
X120761904Y-119678571D01*
X120809523Y-119773809D01*
X120809523Y-120011904D01*
X120761904Y-120107142D01*
X120714285Y-120154761D01*
X120619047Y-120202380D01*
X120380952Y-120202380D01*
X120285714Y-120154761D01*
X120238095Y-120107142D01*
X98190476Y-120154761D02*
X98333333Y-120202380D01*
X98571428Y-120202380D01*
X98666666Y-120154761D01*
X98714285Y-120107142D01*
X98761904Y-120011904D01*
X98761904Y-119916666D01*
X98714285Y-119821428D01*
X98666666Y-119773809D01*
X98571428Y-119726190D01*
X98380952Y-119678571D01*
X98285714Y-119630952D01*
X98238095Y-119583333D01*
X98190476Y-119488095D01*
X98190476Y-119392857D01*
X98238095Y-119297619D01*
X98285714Y-119250000D01*
X98380952Y-119202380D01*
X98619047Y-119202380D01*
X98761904Y-119250000D01*
X99095238Y-119202380D02*
X99333333Y-120202380D01*
X99523809Y-119488095D01*
X99714285Y-120202380D01*
X99952380Y-119202380D01*
X100809523Y-119202380D02*
X100333333Y-119202380D01*
X100285714Y-119678571D01*
X100333333Y-119630952D01*
X100428571Y-119583333D01*
X100666666Y-119583333D01*
X100761904Y-119630952D01*
X100809523Y-119678571D01*
X100857142Y-119773809D01*
X100857142Y-120011904D01*
X100809523Y-120107142D01*
X100761904Y-120154761D01*
X100666666Y-120202380D01*
X100428571Y-120202380D01*
X100333333Y-120154761D01*
X100285714Y-120107142D01*
X101714285Y-119535714D02*
X101714285Y-120202380D01*
X101476190Y-119154761D02*
X101238095Y-119869047D01*
X101857142Y-119869047D01*
X79190476Y-63154761D02*
X79333333Y-63202380D01*
X79571428Y-63202380D01*
X79666666Y-63154761D01*
X79714285Y-63107142D01*
X79761904Y-63011904D01*
X79761904Y-62916666D01*
X79714285Y-62821428D01*
X79666666Y-62773809D01*
X79571428Y-62726190D01*
X79380952Y-62678571D01*
X79285714Y-62630952D01*
X79238095Y-62583333D01*
X79190476Y-62488095D01*
X79190476Y-62392857D01*
X79238095Y-62297619D01*
X79285714Y-62250000D01*
X79380952Y-62202380D01*
X79619047Y-62202380D01*
X79761904Y-62250000D01*
X80095238Y-62202380D02*
X80333333Y-63202380D01*
X80523809Y-62488095D01*
X80714285Y-63202380D01*
X80952380Y-62202380D01*
X81285714Y-62297619D02*
X81333333Y-62250000D01*
X81428571Y-62202380D01*
X81666666Y-62202380D01*
X81761904Y-62250000D01*
X81809523Y-62297619D01*
X81857142Y-62392857D01*
X81857142Y-62488095D01*
X81809523Y-62630952D01*
X81238095Y-63202380D01*
X81857142Y-63202380D01*
X82190476Y-62202380D02*
X82809523Y-62202380D01*
X82476190Y-62583333D01*
X82619047Y-62583333D01*
X82714285Y-62630952D01*
X82761904Y-62678571D01*
X82809523Y-62773809D01*
X82809523Y-63011904D01*
X82761904Y-63107142D01*
X82714285Y-63154761D01*
X82619047Y-63202380D01*
X82333333Y-63202380D01*
X82238095Y-63154761D01*
X82190476Y-63107142D01*
X60190476Y-120154761D02*
X60333333Y-120202380D01*
X60571428Y-120202380D01*
X60666666Y-120154761D01*
X60714285Y-120107142D01*
X60761904Y-120011904D01*
X60761904Y-119916666D01*
X60714285Y-119821428D01*
X60666666Y-119773809D01*
X60571428Y-119726190D01*
X60380952Y-119678571D01*
X60285714Y-119630952D01*
X60238095Y-119583333D01*
X60190476Y-119488095D01*
X60190476Y-119392857D01*
X60238095Y-119297619D01*
X60285714Y-119250000D01*
X60380952Y-119202380D01*
X60619047Y-119202380D01*
X60761904Y-119250000D01*
X61095238Y-119202380D02*
X61333333Y-120202380D01*
X61523809Y-119488095D01*
X61714285Y-120202380D01*
X61952380Y-119202380D01*
X62809523Y-119202380D02*
X62333333Y-119202380D01*
X62285714Y-119678571D01*
X62333333Y-119630952D01*
X62428571Y-119583333D01*
X62666666Y-119583333D01*
X62761904Y-119630952D01*
X62809523Y-119678571D01*
X62857142Y-119773809D01*
X62857142Y-120011904D01*
X62809523Y-120107142D01*
X62761904Y-120154761D01*
X62666666Y-120202380D01*
X62428571Y-120202380D01*
X62333333Y-120154761D01*
X62285714Y-120107142D01*
X63238095Y-119297619D02*
X63285714Y-119250000D01*
X63380952Y-119202380D01*
X63619047Y-119202380D01*
X63714285Y-119250000D01*
X63761904Y-119297619D01*
X63809523Y-119392857D01*
X63809523Y-119488095D01*
X63761904Y-119630952D01*
X63190476Y-120202380D01*
X63809523Y-120202380D01*
X117190476Y-63154761D02*
X117333333Y-63202380D01*
X117571428Y-63202380D01*
X117666666Y-63154761D01*
X117714285Y-63107142D01*
X117761904Y-63011904D01*
X117761904Y-62916666D01*
X117714285Y-62821428D01*
X117666666Y-62773809D01*
X117571428Y-62726190D01*
X117380952Y-62678571D01*
X117285714Y-62630952D01*
X117238095Y-62583333D01*
X117190476Y-62488095D01*
X117190476Y-62392857D01*
X117238095Y-62297619D01*
X117285714Y-62250000D01*
X117380952Y-62202380D01*
X117619047Y-62202380D01*
X117761904Y-62250000D01*
X118095238Y-62202380D02*
X118333333Y-63202380D01*
X118523809Y-62488095D01*
X118714285Y-63202380D01*
X118952380Y-62202380D01*
X119285714Y-62297619D02*
X119333333Y-62250000D01*
X119428571Y-62202380D01*
X119666666Y-62202380D01*
X119761904Y-62250000D01*
X119809523Y-62297619D01*
X119857142Y-62392857D01*
X119857142Y-62488095D01*
X119809523Y-62630952D01*
X119238095Y-63202380D01*
X119857142Y-63202380D01*
X120761904Y-62202380D02*
X120285714Y-62202380D01*
X120238095Y-62678571D01*
X120285714Y-62630952D01*
X120380952Y-62583333D01*
X120619047Y-62583333D01*
X120714285Y-62630952D01*
X120761904Y-62678571D01*
X120809523Y-62773809D01*
X120809523Y-63011904D01*
X120761904Y-63107142D01*
X120714285Y-63154761D01*
X120619047Y-63202380D01*
X120380952Y-63202380D01*
X120285714Y-63154761D01*
X120238095Y-63107142D01*
X98190476Y-101154761D02*
X98333333Y-101202380D01*
X98571428Y-101202380D01*
X98666666Y-101154761D01*
X98714285Y-101107142D01*
X98761904Y-101011904D01*
X98761904Y-100916666D01*
X98714285Y-100821428D01*
X98666666Y-100773809D01*
X98571428Y-100726190D01*
X98380952Y-100678571D01*
X98285714Y-100630952D01*
X98238095Y-100583333D01*
X98190476Y-100488095D01*
X98190476Y-100392857D01*
X98238095Y-100297619D01*
X98285714Y-100250000D01*
X98380952Y-100202380D01*
X98619047Y-100202380D01*
X98761904Y-100250000D01*
X99095238Y-100202380D02*
X99333333Y-101202380D01*
X99523809Y-100488095D01*
X99714285Y-101202380D01*
X99952380Y-100202380D01*
X100761904Y-100535714D02*
X100761904Y-101202380D01*
X100523809Y-100154761D02*
X100285714Y-100869047D01*
X100904761Y-100869047D01*
X101714285Y-100535714D02*
X101714285Y-101202380D01*
X101476190Y-100154761D02*
X101238095Y-100869047D01*
X101857142Y-100869047D01*
X60190476Y-44154761D02*
X60333333Y-44202380D01*
X60571428Y-44202380D01*
X60666666Y-44154761D01*
X60714285Y-44107142D01*
X60761904Y-44011904D01*
X60761904Y-43916666D01*
X60714285Y-43821428D01*
X60666666Y-43773809D01*
X60571428Y-43726190D01*
X60380952Y-43678571D01*
X60285714Y-43630952D01*
X60238095Y-43583333D01*
X60190476Y-43488095D01*
X60190476Y-43392857D01*
X60238095Y-43297619D01*
X60285714Y-43250000D01*
X60380952Y-43202380D01*
X60619047Y-43202380D01*
X60761904Y-43250000D01*
X61095238Y-43202380D02*
X61333333Y-44202380D01*
X61523809Y-43488095D01*
X61714285Y-44202380D01*
X61952380Y-43202380D01*
X62857142Y-44202380D02*
X62285714Y-44202380D01*
X62571428Y-44202380D02*
X62571428Y-43202380D01*
X62476190Y-43345238D01*
X62380952Y-43440476D01*
X62285714Y-43488095D01*
X63238095Y-43297619D02*
X63285714Y-43250000D01*
X63380952Y-43202380D01*
X63619047Y-43202380D01*
X63714285Y-43250000D01*
X63761904Y-43297619D01*
X63809523Y-43392857D01*
X63809523Y-43488095D01*
X63761904Y-43630952D01*
X63190476Y-44202380D01*
X63809523Y-44202380D01*
X117166666Y-45654761D02*
X117309523Y-45702380D01*
X117547619Y-45702380D01*
X117642857Y-45654761D01*
X117690476Y-45607142D01*
X117738095Y-45511904D01*
X117738095Y-45416666D01*
X117690476Y-45321428D01*
X117642857Y-45273809D01*
X117547619Y-45226190D01*
X117357142Y-45178571D01*
X117261904Y-45130952D01*
X117214285Y-45083333D01*
X117166666Y-44988095D01*
X117166666Y-44892857D01*
X117214285Y-44797619D01*
X117261904Y-44750000D01*
X117357142Y-44702380D01*
X117595238Y-44702380D01*
X117738095Y-44750000D01*
X118071428Y-44702380D02*
X118309523Y-45702380D01*
X118500000Y-44988095D01*
X118690476Y-45702380D01*
X118928571Y-44702380D01*
X119738095Y-44702380D02*
X119547619Y-44702380D01*
X119452380Y-44750000D01*
X119404761Y-44797619D01*
X119309523Y-44940476D01*
X119261904Y-45130952D01*
X119261904Y-45511904D01*
X119309523Y-45607142D01*
X119357142Y-45654761D01*
X119452380Y-45702380D01*
X119642857Y-45702380D01*
X119738095Y-45654761D01*
X119785714Y-45607142D01*
X119833333Y-45511904D01*
X119833333Y-45273809D01*
X119785714Y-45178571D01*
X119738095Y-45130952D01*
X119642857Y-45083333D01*
X119452380Y-45083333D01*
X119357142Y-45130952D01*
X119309523Y-45178571D01*
X119261904Y-45273809D01*
X60190476Y-82154761D02*
X60333333Y-82202380D01*
X60571428Y-82202380D01*
X60666666Y-82154761D01*
X60714285Y-82107142D01*
X60761904Y-82011904D01*
X60761904Y-81916666D01*
X60714285Y-81821428D01*
X60666666Y-81773809D01*
X60571428Y-81726190D01*
X60380952Y-81678571D01*
X60285714Y-81630952D01*
X60238095Y-81583333D01*
X60190476Y-81488095D01*
X60190476Y-81392857D01*
X60238095Y-81297619D01*
X60285714Y-81250000D01*
X60380952Y-81202380D01*
X60619047Y-81202380D01*
X60761904Y-81250000D01*
X61095238Y-81202380D02*
X61333333Y-82202380D01*
X61523809Y-81488095D01*
X61714285Y-82202380D01*
X61952380Y-81202380D01*
X62238095Y-81202380D02*
X62857142Y-81202380D01*
X62523809Y-81583333D01*
X62666666Y-81583333D01*
X62761904Y-81630952D01*
X62809523Y-81678571D01*
X62857142Y-81773809D01*
X62857142Y-82011904D01*
X62809523Y-82107142D01*
X62761904Y-82154761D01*
X62666666Y-82202380D01*
X62380952Y-82202380D01*
X62285714Y-82154761D01*
X62238095Y-82107142D01*
X63238095Y-81297619D02*
X63285714Y-81250000D01*
X63380952Y-81202380D01*
X63619047Y-81202380D01*
X63714285Y-81250000D01*
X63761904Y-81297619D01*
X63809523Y-81392857D01*
X63809523Y-81488095D01*
X63761904Y-81630952D01*
X63190476Y-82202380D01*
X63809523Y-82202380D01*
X79190476Y-44154761D02*
X79333333Y-44202380D01*
X79571428Y-44202380D01*
X79666666Y-44154761D01*
X79714285Y-44107142D01*
X79761904Y-44011904D01*
X79761904Y-43916666D01*
X79714285Y-43821428D01*
X79666666Y-43773809D01*
X79571428Y-43726190D01*
X79380952Y-43678571D01*
X79285714Y-43630952D01*
X79238095Y-43583333D01*
X79190476Y-43488095D01*
X79190476Y-43392857D01*
X79238095Y-43297619D01*
X79285714Y-43250000D01*
X79380952Y-43202380D01*
X79619047Y-43202380D01*
X79761904Y-43250000D01*
X80095238Y-43202380D02*
X80333333Y-44202380D01*
X80523809Y-43488095D01*
X80714285Y-44202380D01*
X80952380Y-43202380D01*
X81857142Y-44202380D02*
X81285714Y-44202380D01*
X81571428Y-44202380D02*
X81571428Y-43202380D01*
X81476190Y-43345238D01*
X81380952Y-43440476D01*
X81285714Y-43488095D01*
X82190476Y-43202380D02*
X82809523Y-43202380D01*
X82476190Y-43583333D01*
X82619047Y-43583333D01*
X82714285Y-43630952D01*
X82761904Y-43678571D01*
X82809523Y-43773809D01*
X82809523Y-44011904D01*
X82761904Y-44107142D01*
X82714285Y-44154761D01*
X82619047Y-44202380D01*
X82333333Y-44202380D01*
X82238095Y-44154761D01*
X82190476Y-44107142D01*
X117190476Y-101154761D02*
X117333333Y-101202380D01*
X117571428Y-101202380D01*
X117666666Y-101154761D01*
X117714285Y-101107142D01*
X117761904Y-101011904D01*
X117761904Y-100916666D01*
X117714285Y-100821428D01*
X117666666Y-100773809D01*
X117571428Y-100726190D01*
X117380952Y-100678571D01*
X117285714Y-100630952D01*
X117238095Y-100583333D01*
X117190476Y-100488095D01*
X117190476Y-100392857D01*
X117238095Y-100297619D01*
X117285714Y-100250000D01*
X117380952Y-100202380D01*
X117619047Y-100202380D01*
X117761904Y-100250000D01*
X118095238Y-100202380D02*
X118333333Y-101202380D01*
X118523809Y-100488095D01*
X118714285Y-101202380D01*
X118952380Y-100202380D01*
X119761904Y-100535714D02*
X119761904Y-101202380D01*
X119523809Y-100154761D02*
X119285714Y-100869047D01*
X119904761Y-100869047D01*
X120761904Y-100202380D02*
X120285714Y-100202380D01*
X120238095Y-100678571D01*
X120285714Y-100630952D01*
X120380952Y-100583333D01*
X120619047Y-100583333D01*
X120714285Y-100630952D01*
X120761904Y-100678571D01*
X120809523Y-100773809D01*
X120809523Y-101011904D01*
X120761904Y-101107142D01*
X120714285Y-101154761D01*
X120619047Y-101202380D01*
X120380952Y-101202380D01*
X120285714Y-101154761D01*
X120238095Y-101107142D01*
X41190476Y-101154761D02*
X41333333Y-101202380D01*
X41571428Y-101202380D01*
X41666666Y-101154761D01*
X41714285Y-101107142D01*
X41761904Y-101011904D01*
X41761904Y-100916666D01*
X41714285Y-100821428D01*
X41666666Y-100773809D01*
X41571428Y-100726190D01*
X41380952Y-100678571D01*
X41285714Y-100630952D01*
X41238095Y-100583333D01*
X41190476Y-100488095D01*
X41190476Y-100392857D01*
X41238095Y-100297619D01*
X41285714Y-100250000D01*
X41380952Y-100202380D01*
X41619047Y-100202380D01*
X41761904Y-100250000D01*
X42095238Y-100202380D02*
X42333333Y-101202380D01*
X42523809Y-100488095D01*
X42714285Y-101202380D01*
X42952380Y-100202380D01*
X43761904Y-100535714D02*
X43761904Y-101202380D01*
X43523809Y-100154761D02*
X43285714Y-100869047D01*
X43904761Y-100869047D01*
X44809523Y-101202380D02*
X44238095Y-101202380D01*
X44523809Y-101202380D02*
X44523809Y-100202380D01*
X44428571Y-100345238D01*
X44333333Y-100440476D01*
X44238095Y-100488095D01*
X41190476Y-44154761D02*
X41333333Y-44202380D01*
X41571428Y-44202380D01*
X41666666Y-44154761D01*
X41714285Y-44107142D01*
X41761904Y-44011904D01*
X41761904Y-43916666D01*
X41714285Y-43821428D01*
X41666666Y-43773809D01*
X41571428Y-43726190D01*
X41380952Y-43678571D01*
X41285714Y-43630952D01*
X41238095Y-43583333D01*
X41190476Y-43488095D01*
X41190476Y-43392857D01*
X41238095Y-43297619D01*
X41285714Y-43250000D01*
X41380952Y-43202380D01*
X41619047Y-43202380D01*
X41761904Y-43250000D01*
X42095238Y-43202380D02*
X42333333Y-44202380D01*
X42523809Y-43488095D01*
X42714285Y-44202380D01*
X42952380Y-43202380D01*
X43857142Y-44202380D02*
X43285714Y-44202380D01*
X43571428Y-44202380D02*
X43571428Y-43202380D01*
X43476190Y-43345238D01*
X43380952Y-43440476D01*
X43285714Y-43488095D01*
X44809523Y-44202380D02*
X44238095Y-44202380D01*
X44523809Y-44202380D02*
X44523809Y-43202380D01*
X44428571Y-43345238D01*
X44333333Y-43440476D01*
X44238095Y-43488095D01*
X98190476Y-82154761D02*
X98333333Y-82202380D01*
X98571428Y-82202380D01*
X98666666Y-82154761D01*
X98714285Y-82107142D01*
X98761904Y-82011904D01*
X98761904Y-81916666D01*
X98714285Y-81821428D01*
X98666666Y-81773809D01*
X98571428Y-81726190D01*
X98380952Y-81678571D01*
X98285714Y-81630952D01*
X98238095Y-81583333D01*
X98190476Y-81488095D01*
X98190476Y-81392857D01*
X98238095Y-81297619D01*
X98285714Y-81250000D01*
X98380952Y-81202380D01*
X98619047Y-81202380D01*
X98761904Y-81250000D01*
X99095238Y-81202380D02*
X99333333Y-82202380D01*
X99523809Y-81488095D01*
X99714285Y-82202380D01*
X99952380Y-81202380D01*
X100238095Y-81202380D02*
X100857142Y-81202380D01*
X100523809Y-81583333D01*
X100666666Y-81583333D01*
X100761904Y-81630952D01*
X100809523Y-81678571D01*
X100857142Y-81773809D01*
X100857142Y-82011904D01*
X100809523Y-82107142D01*
X100761904Y-82154761D01*
X100666666Y-82202380D01*
X100380952Y-82202380D01*
X100285714Y-82154761D01*
X100238095Y-82107142D01*
X101714285Y-81535714D02*
X101714285Y-82202380D01*
X101476190Y-81154761D02*
X101238095Y-81869047D01*
X101857142Y-81869047D01*
X41190476Y-120154761D02*
X41333333Y-120202380D01*
X41571428Y-120202380D01*
X41666666Y-120154761D01*
X41714285Y-120107142D01*
X41761904Y-120011904D01*
X41761904Y-119916666D01*
X41714285Y-119821428D01*
X41666666Y-119773809D01*
X41571428Y-119726190D01*
X41380952Y-119678571D01*
X41285714Y-119630952D01*
X41238095Y-119583333D01*
X41190476Y-119488095D01*
X41190476Y-119392857D01*
X41238095Y-119297619D01*
X41285714Y-119250000D01*
X41380952Y-119202380D01*
X41619047Y-119202380D01*
X41761904Y-119250000D01*
X42095238Y-119202380D02*
X42333333Y-120202380D01*
X42523809Y-119488095D01*
X42714285Y-120202380D01*
X42952380Y-119202380D01*
X43809523Y-119202380D02*
X43333333Y-119202380D01*
X43285714Y-119678571D01*
X43333333Y-119630952D01*
X43428571Y-119583333D01*
X43666666Y-119583333D01*
X43761904Y-119630952D01*
X43809523Y-119678571D01*
X43857142Y-119773809D01*
X43857142Y-120011904D01*
X43809523Y-120107142D01*
X43761904Y-120154761D01*
X43666666Y-120202380D01*
X43428571Y-120202380D01*
X43333333Y-120154761D01*
X43285714Y-120107142D01*
X44809523Y-120202380D02*
X44238095Y-120202380D01*
X44523809Y-120202380D02*
X44523809Y-119202380D01*
X44428571Y-119345238D01*
X44333333Y-119440476D01*
X44238095Y-119488095D01*
X41190476Y-63154761D02*
X41333333Y-63202380D01*
X41571428Y-63202380D01*
X41666666Y-63154761D01*
X41714285Y-63107142D01*
X41761904Y-63011904D01*
X41761904Y-62916666D01*
X41714285Y-62821428D01*
X41666666Y-62773809D01*
X41571428Y-62726190D01*
X41380952Y-62678571D01*
X41285714Y-62630952D01*
X41238095Y-62583333D01*
X41190476Y-62488095D01*
X41190476Y-62392857D01*
X41238095Y-62297619D01*
X41285714Y-62250000D01*
X41380952Y-62202380D01*
X41619047Y-62202380D01*
X41761904Y-62250000D01*
X42095238Y-62202380D02*
X42333333Y-63202380D01*
X42523809Y-62488095D01*
X42714285Y-63202380D01*
X42952380Y-62202380D01*
X43285714Y-62297619D02*
X43333333Y-62250000D01*
X43428571Y-62202380D01*
X43666666Y-62202380D01*
X43761904Y-62250000D01*
X43809523Y-62297619D01*
X43857142Y-62392857D01*
X43857142Y-62488095D01*
X43809523Y-62630952D01*
X43238095Y-63202380D01*
X43857142Y-63202380D01*
X44809523Y-63202380D02*
X44238095Y-63202380D01*
X44523809Y-63202380D02*
X44523809Y-62202380D01*
X44428571Y-62345238D01*
X44333333Y-62440476D01*
X44238095Y-62488095D01*
X41190476Y-82154761D02*
X41333333Y-82202380D01*
X41571428Y-82202380D01*
X41666666Y-82154761D01*
X41714285Y-82107142D01*
X41761904Y-82011904D01*
X41761904Y-81916666D01*
X41714285Y-81821428D01*
X41666666Y-81773809D01*
X41571428Y-81726190D01*
X41380952Y-81678571D01*
X41285714Y-81630952D01*
X41238095Y-81583333D01*
X41190476Y-81488095D01*
X41190476Y-81392857D01*
X41238095Y-81297619D01*
X41285714Y-81250000D01*
X41380952Y-81202380D01*
X41619047Y-81202380D01*
X41761904Y-81250000D01*
X42095238Y-81202380D02*
X42333333Y-82202380D01*
X42523809Y-81488095D01*
X42714285Y-82202380D01*
X42952380Y-81202380D01*
X43238095Y-81202380D02*
X43857142Y-81202380D01*
X43523809Y-81583333D01*
X43666666Y-81583333D01*
X43761904Y-81630952D01*
X43809523Y-81678571D01*
X43857142Y-81773809D01*
X43857142Y-82011904D01*
X43809523Y-82107142D01*
X43761904Y-82154761D01*
X43666666Y-82202380D01*
X43380952Y-82202380D01*
X43285714Y-82154761D01*
X43238095Y-82107142D01*
X44809523Y-82202380D02*
X44238095Y-82202380D01*
X44523809Y-82202380D02*
X44523809Y-81202380D01*
X44428571Y-81345238D01*
X44333333Y-81440476D01*
X44238095Y-81488095D01*
X79190476Y-82154761D02*
X79333333Y-82202380D01*
X79571428Y-82202380D01*
X79666666Y-82154761D01*
X79714285Y-82107142D01*
X79761904Y-82011904D01*
X79761904Y-81916666D01*
X79714285Y-81821428D01*
X79666666Y-81773809D01*
X79571428Y-81726190D01*
X79380952Y-81678571D01*
X79285714Y-81630952D01*
X79238095Y-81583333D01*
X79190476Y-81488095D01*
X79190476Y-81392857D01*
X79238095Y-81297619D01*
X79285714Y-81250000D01*
X79380952Y-81202380D01*
X79619047Y-81202380D01*
X79761904Y-81250000D01*
X80095238Y-81202380D02*
X80333333Y-82202380D01*
X80523809Y-81488095D01*
X80714285Y-82202380D01*
X80952380Y-81202380D01*
X81238095Y-81202380D02*
X81857142Y-81202380D01*
X81523809Y-81583333D01*
X81666666Y-81583333D01*
X81761904Y-81630952D01*
X81809523Y-81678571D01*
X81857142Y-81773809D01*
X81857142Y-82011904D01*
X81809523Y-82107142D01*
X81761904Y-82154761D01*
X81666666Y-82202380D01*
X81380952Y-82202380D01*
X81285714Y-82154761D01*
X81238095Y-82107142D01*
X82190476Y-81202380D02*
X82809523Y-81202380D01*
X82476190Y-81583333D01*
X82619047Y-81583333D01*
X82714285Y-81630952D01*
X82761904Y-81678571D01*
X82809523Y-81773809D01*
X82809523Y-82011904D01*
X82761904Y-82107142D01*
X82714285Y-82154761D01*
X82619047Y-82202380D01*
X82333333Y-82202380D01*
X82238095Y-82154761D01*
X82190476Y-82107142D01*
X98190476Y-44154761D02*
X98333333Y-44202380D01*
X98571428Y-44202380D01*
X98666666Y-44154761D01*
X98714285Y-44107142D01*
X98761904Y-44011904D01*
X98761904Y-43916666D01*
X98714285Y-43821428D01*
X98666666Y-43773809D01*
X98571428Y-43726190D01*
X98380952Y-43678571D01*
X98285714Y-43630952D01*
X98238095Y-43583333D01*
X98190476Y-43488095D01*
X98190476Y-43392857D01*
X98238095Y-43297619D01*
X98285714Y-43250000D01*
X98380952Y-43202380D01*
X98619047Y-43202380D01*
X98761904Y-43250000D01*
X99095238Y-43202380D02*
X99333333Y-44202380D01*
X99523809Y-43488095D01*
X99714285Y-44202380D01*
X99952380Y-43202380D01*
X100857142Y-44202380D02*
X100285714Y-44202380D01*
X100571428Y-44202380D02*
X100571428Y-43202380D01*
X100476190Y-43345238D01*
X100380952Y-43440476D01*
X100285714Y-43488095D01*
X101714285Y-43535714D02*
X101714285Y-44202380D01*
X101476190Y-43154761D02*
X101238095Y-43869047D01*
X101857142Y-43869047D01*
D11*
X59900000Y-76100000D02*
X74100000Y-76100000D01*
X59900000Y-61900000D02*
X59900000Y-76100000D01*
X74100000Y-76100000D02*
X74100000Y-61900000D01*
X74100000Y-61900000D02*
X59900000Y-61900000D01*
X59900000Y-99900000D02*
X59900000Y-114100000D01*
X74100000Y-114100000D02*
X74100000Y-99900000D01*
X74100000Y-99900000D02*
X59900000Y-99900000D01*
X59900000Y-114100000D02*
X74100000Y-114100000D01*
X97900000Y-76100000D02*
X112100000Y-76100000D01*
X112100000Y-61900000D02*
X97900000Y-61900000D01*
X112100000Y-76100000D02*
X112100000Y-61900000D01*
X97900000Y-61900000D02*
X97900000Y-76100000D01*
X133015000Y-51610436D02*
X133015000Y-52064564D01*
X134485000Y-51610436D02*
X134485000Y-52064564D01*
X93100000Y-118900000D02*
X78900000Y-118900000D01*
X78900000Y-133100000D02*
X93100000Y-133100000D01*
X78900000Y-118900000D02*
X78900000Y-133100000D01*
X93100000Y-133100000D02*
X93100000Y-118900000D01*
X116900000Y-95100000D02*
X131100000Y-95100000D01*
X131100000Y-95100000D02*
X131100000Y-80900000D01*
X131100000Y-80900000D02*
X116900000Y-80900000D01*
X116900000Y-80900000D02*
X116900000Y-95100000D01*
X78900000Y-99900000D02*
X78900000Y-114100000D01*
X93100000Y-114100000D02*
X93100000Y-99900000D01*
X93100000Y-99900000D02*
X78900000Y-99900000D01*
X78900000Y-114100000D02*
X93100000Y-114100000D01*
X116900000Y-42900000D02*
X116900000Y-57100000D01*
X131100000Y-42900000D02*
X116900000Y-42900000D01*
X116900000Y-57100000D02*
X131100000Y-57100000D01*
X131100000Y-57100000D02*
X131100000Y-42900000D01*
X133015000Y-48639564D02*
X133015000Y-48185436D01*
X134485000Y-48639564D02*
X134485000Y-48185436D01*
X131100000Y-133100000D02*
X131100000Y-118900000D01*
X116900000Y-133100000D02*
X131100000Y-133100000D01*
X116900000Y-118900000D02*
X116900000Y-133100000D01*
X131100000Y-118900000D02*
X116900000Y-118900000D01*
X97900000Y-133100000D02*
X112100000Y-133100000D01*
X112100000Y-133100000D02*
X112100000Y-118900000D01*
X97900000Y-118900000D02*
X97900000Y-133100000D01*
X112100000Y-118900000D02*
X97900000Y-118900000D01*
X78900000Y-61900000D02*
X78900000Y-76100000D01*
X93100000Y-76100000D02*
X93100000Y-61900000D01*
X93100000Y-61900000D02*
X78900000Y-61900000D01*
X78900000Y-76100000D02*
X93100000Y-76100000D01*
X134485000Y-58889564D02*
X134485000Y-58435436D01*
X133015000Y-58889564D02*
X133015000Y-58435436D01*
X59900000Y-118900000D02*
X59900000Y-133100000D01*
X74100000Y-118900000D02*
X59900000Y-118900000D01*
X74100000Y-133100000D02*
X74100000Y-118900000D01*
X59900000Y-133100000D02*
X74100000Y-133100000D01*
X116900000Y-76100000D02*
X131100000Y-76100000D01*
X131100000Y-76100000D02*
X131100000Y-61900000D01*
X131100000Y-61900000D02*
X116900000Y-61900000D01*
X116900000Y-61900000D02*
X116900000Y-76100000D01*
X133015000Y-55477064D02*
X133015000Y-55022936D01*
X134485000Y-55477064D02*
X134485000Y-55022936D01*
X97900000Y-114100000D02*
X112100000Y-114100000D01*
X112100000Y-99900000D02*
X97900000Y-99900000D01*
X112100000Y-114100000D02*
X112100000Y-99900000D01*
X97900000Y-99900000D02*
X97900000Y-114100000D01*
X59900000Y-42900000D02*
X59900000Y-57100000D01*
X59900000Y-57100000D02*
X74100000Y-57100000D01*
X74100000Y-42900000D02*
X59900000Y-42900000D01*
X74100000Y-57100000D02*
X74100000Y-42900000D01*
D12*
X121720000Y-45210000D02*
X121720000Y-46020000D01*
X121580000Y-44100000D02*
X117750000Y-44100000D01*
X125920000Y-55900000D02*
X129750000Y-55900000D01*
X117750000Y-46930000D02*
X117750000Y-44100000D01*
X125780000Y-54790000D02*
X125780000Y-53810000D01*
X117750000Y-52010000D02*
X117750000Y-47990000D01*
X117750000Y-55900000D02*
X121580000Y-55900000D01*
X117750000Y-55900000D02*
X117750000Y-53070000D01*
X125780000Y-45210000D02*
X125780000Y-46020000D01*
X117750000Y-55900000D02*
X121580000Y-55900000D01*
X129750000Y-44100000D02*
X129750000Y-55900000D01*
X122730000Y-52790000D02*
X122730000Y-47210000D01*
X125920000Y-55900000D02*
X129750000Y-55900000D01*
X121720000Y-54050000D02*
X121720000Y-54790000D01*
X129750000Y-44100000D02*
X125920000Y-44100000D01*
X122730000Y-51780000D02*
G75*
G03*
X122735110Y-48217139I1000000J1780000D01*
G01*
X128080000Y-50000000D02*
G75*
G03*
X128080000Y-50000000I-4330000J0D01*
G01*
X126800000Y-50000000D02*
G75*
G03*
X126800000Y-50000000I-3050000J0D01*
G01*
X127100000Y-50000000D02*
G75*
G03*
X127100000Y-50000000I-3350000J0D01*
G01*
D11*
X59900000Y-95100000D02*
X74100000Y-95100000D01*
X74100000Y-80900000D02*
X59900000Y-80900000D01*
X59900000Y-80900000D02*
X59900000Y-95100000D01*
X74100000Y-95100000D02*
X74100000Y-80900000D01*
X78900000Y-57100000D02*
X93100000Y-57100000D01*
X78900000Y-42900000D02*
X78900000Y-57100000D01*
X93100000Y-42900000D02*
X78900000Y-42900000D01*
X93100000Y-57100000D02*
X93100000Y-42900000D01*
X131100000Y-114100000D02*
X131100000Y-99900000D01*
X116900000Y-114100000D02*
X131100000Y-114100000D01*
X116900000Y-99900000D02*
X116900000Y-114100000D01*
X131100000Y-99900000D02*
X116900000Y-99900000D01*
X40900000Y-114100000D02*
X55100000Y-114100000D01*
X40900000Y-99900000D02*
X40900000Y-114100000D01*
X55100000Y-114100000D02*
X55100000Y-99900000D01*
X55100000Y-99900000D02*
X40900000Y-99900000D01*
X40900000Y-42900000D02*
X40900000Y-57100000D01*
X40900000Y-57100000D02*
X55100000Y-57100000D01*
X55100000Y-42900000D02*
X40900000Y-42900000D01*
X55100000Y-57100000D02*
X55100000Y-42900000D01*
X97900000Y-80900000D02*
X97900000Y-95100000D01*
X112100000Y-80900000D02*
X97900000Y-80900000D01*
X112100000Y-95100000D02*
X112100000Y-80900000D01*
X97900000Y-95100000D02*
X112100000Y-95100000D01*
X40900000Y-133100000D02*
X55100000Y-133100000D01*
X40900000Y-118900000D02*
X40900000Y-133100000D01*
X55100000Y-133100000D02*
X55100000Y-118900000D01*
X55100000Y-118900000D02*
X40900000Y-118900000D01*
X40900000Y-61900000D02*
X40900000Y-76100000D01*
X55100000Y-76100000D02*
X55100000Y-61900000D01*
X40900000Y-76100000D02*
X55100000Y-76100000D01*
X55100000Y-61900000D02*
X40900000Y-61900000D01*
X40900000Y-95100000D02*
X55100000Y-95100000D01*
X55100000Y-80900000D02*
X40900000Y-80900000D01*
X55100000Y-95100000D02*
X55100000Y-80900000D01*
X40900000Y-80900000D02*
X40900000Y-95100000D01*
X78900000Y-95100000D02*
X93100000Y-95100000D01*
X93100000Y-80900000D02*
X78900000Y-80900000D01*
X93100000Y-95100000D02*
X93100000Y-80900000D01*
X78900000Y-80900000D02*
X78900000Y-95100000D01*
X97900000Y-57100000D02*
X112100000Y-57100000D01*
X97900000Y-42900000D02*
X97900000Y-57100000D01*
X112100000Y-57100000D02*
X112100000Y-42900000D01*
X112100000Y-42900000D02*
X97900000Y-42900000D01*
%LPC*%
D13*
X72080000Y-69000000D03*
D14*
X67000000Y-69000000D03*
D15*
X69540000Y-63920000D03*
D13*
X61920000Y-69000000D03*
D15*
X63190000Y-66460000D03*
D16*
X39500000Y-41500000D03*
D13*
X72080000Y-107000000D03*
X61920000Y-107000000D03*
D14*
X67000000Y-107000000D03*
D15*
X69540000Y-101920000D03*
X63190000Y-104460000D03*
D16*
X39500000Y-134500000D03*
D15*
X101190000Y-66460000D03*
D13*
X110080000Y-69000000D03*
D14*
X105000000Y-69000000D03*
D15*
X107540000Y-63920000D03*
D13*
X99920000Y-69000000D03*
D17*
X133750000Y-50925000D03*
X133750000Y-52750000D03*
D13*
X80920000Y-126000000D03*
X91080000Y-126000000D03*
D14*
X86000000Y-126000000D03*
D15*
X82190000Y-123460000D03*
X88540000Y-120920000D03*
D13*
X118920000Y-88000000D03*
D15*
X120190000Y-85460000D03*
D13*
X129080000Y-88000000D03*
D15*
X126540000Y-82920000D03*
D14*
X124000000Y-88000000D03*
D16*
X132500000Y-41500000D03*
D14*
X86000000Y-107000000D03*
D13*
X91080000Y-107000000D03*
X80920000Y-107000000D03*
D15*
X82190000Y-104460000D03*
X88540000Y-101920000D03*
D14*
X124000000Y-50000000D03*
D15*
X120190000Y-47460000D03*
D13*
X118920000Y-50000000D03*
D15*
X126540000Y-44920000D03*
D13*
X129080000Y-50000000D03*
D18*
X133750000Y-49325000D03*
X133750000Y-47500000D03*
D14*
X124000000Y-126000000D03*
D15*
X126540000Y-120920000D03*
D13*
X118920000Y-126000000D03*
X129080000Y-126000000D03*
D15*
X120190000Y-123460000D03*
D13*
X110080000Y-126000000D03*
D14*
X105000000Y-126000000D03*
D13*
X99920000Y-126000000D03*
D15*
X107540000Y-120920000D03*
X101190000Y-123460000D03*
X88540000Y-63920000D03*
X82190000Y-66460000D03*
D13*
X80920000Y-69000000D03*
D14*
X86000000Y-69000000D03*
D13*
X91080000Y-69000000D03*
D18*
X133750000Y-59575000D03*
X133750000Y-57750000D03*
D16*
X132500000Y-134500000D03*
D13*
X61920000Y-126000000D03*
D15*
X63190000Y-123460000D03*
D14*
X67000000Y-126000000D03*
D13*
X72080000Y-126000000D03*
D15*
X69540000Y-120920000D03*
D13*
X118920000Y-69000000D03*
D14*
X124000000Y-69000000D03*
D15*
X126540000Y-63920000D03*
X120190000Y-66460000D03*
D13*
X129080000Y-69000000D03*
D18*
X133750000Y-56162500D03*
X133750000Y-54337500D03*
D13*
X99920000Y-107000000D03*
D14*
X105000000Y-107000000D03*
D13*
X110080000Y-107000000D03*
D15*
X107540000Y-101920000D03*
X101190000Y-104460000D03*
D13*
X72080000Y-50000000D03*
D15*
X63190000Y-47460000D03*
X69540000Y-44920000D03*
D14*
X67000000Y-50000000D03*
D13*
X61920000Y-50000000D03*
D19*
X123750000Y-44500000D03*
D20*
X131250000Y-52540000D03*
X131250000Y-47460000D03*
X131250000Y-50000000D03*
X116750000Y-47460000D03*
X116750000Y-52540000D03*
D13*
X61920000Y-88000000D03*
D15*
X63190000Y-85460000D03*
X69540000Y-82920000D03*
D13*
X72080000Y-88000000D03*
D14*
X67000000Y-88000000D03*
D13*
X91080000Y-50000000D03*
D15*
X88540000Y-44920000D03*
X82190000Y-47460000D03*
D14*
X86000000Y-50000000D03*
D13*
X80920000Y-50000000D03*
D15*
X120190000Y-104460000D03*
D14*
X124000000Y-107000000D03*
D13*
X118920000Y-107000000D03*
X129080000Y-107000000D03*
D15*
X126540000Y-101920000D03*
D14*
X48000000Y-107000000D03*
D13*
X53080000Y-107000000D03*
D15*
X44190000Y-104460000D03*
D13*
X42920000Y-107000000D03*
D15*
X50540000Y-101920000D03*
D13*
X53080000Y-50000000D03*
D15*
X44190000Y-47460000D03*
D13*
X42920000Y-50000000D03*
D14*
X48000000Y-50000000D03*
D15*
X50540000Y-44920000D03*
X101190000Y-85460000D03*
D13*
X110080000Y-88000000D03*
D14*
X105000000Y-88000000D03*
D15*
X107540000Y-82920000D03*
D13*
X99920000Y-88000000D03*
D15*
X44190000Y-123460000D03*
X50540000Y-120920000D03*
D13*
X53080000Y-126000000D03*
D14*
X48000000Y-126000000D03*
D13*
X42920000Y-126000000D03*
D15*
X44190000Y-66460000D03*
D13*
X53080000Y-69000000D03*
X42920000Y-69000000D03*
D15*
X50540000Y-63920000D03*
D14*
X48000000Y-69000000D03*
D15*
X50540000Y-82920000D03*
D13*
X53080000Y-88000000D03*
D15*
X44190000Y-85460000D03*
D13*
X42920000Y-88000000D03*
D14*
X48000000Y-88000000D03*
X86000000Y-88000000D03*
D13*
X80920000Y-88000000D03*
D15*
X82190000Y-85460000D03*
X88540000Y-82920000D03*
D13*
X91080000Y-88000000D03*
X110080000Y-50000000D03*
D15*
X107540000Y-44920000D03*
X101190000Y-47460000D03*
D13*
X99920000Y-50000000D03*
D14*
X105000000Y-50000000D03*
D21*
X64475000Y-40025000D03*
D22*
X67015000Y-40025000D03*
X69555000Y-40025000D03*
D21*
X102420000Y-136000000D03*
D22*
X104960000Y-136000000D03*
X107500000Y-136000000D03*
D21*
X102460000Y-40000000D03*
D22*
X105000000Y-40000000D03*
X107540000Y-40000000D03*
D21*
X37975000Y-104475000D03*
D22*
X37975000Y-107015000D03*
X37975000Y-109555000D03*
D21*
X134000000Y-66475000D03*
D22*
X134000000Y-69015000D03*
X134000000Y-71555000D03*
D21*
X64460000Y-136000000D03*
D22*
X67000000Y-136000000D03*
X69540000Y-136000000D03*
D21*
X38000000Y-66460000D03*
D22*
X38000000Y-69000000D03*
X38000000Y-71540000D03*
M02*
