%FSLAX45Y45*%
G04 Gerber Fmt 4.5, Leading zero omitted, Abs format (unit mm)*
G04 Created by KiCad (PCBNEW (6.0.5)) date 2022-06-26 21:28:01*
%MOMM*%
%LPD*%
G01*
G04 APERTURE LIST*
%TA.AperFunction,Profile*%
%ADD10C,0.100000*%
%TD*%
%ADD11C,0.200000*%
%ADD12C,0.175000*%
%ADD13C,0.305000*%
%ADD14C,0.320000*%
%ADD15C,0.400000*%
G04 APERTURE END LIST*
D10*
X3600000Y-3800000D02*
X13600000Y-3800000D01*
X3600000Y-13800000D02*
X3600000Y-3800000D01*
X13600000Y-13800000D02*
X3600000Y-13800000D01*
X13600000Y-3800000D02*
X13600000Y-13800000D01*
D11*
D12*
X4204500Y-4912500D02*
X4379500Y-5087500D01*
X4379500Y-4912500D02*
X4204500Y-5087500D01*
X4204500Y-6812500D02*
X4379500Y-6987500D01*
X4379500Y-6812500D02*
X4204500Y-6987500D01*
X4204500Y-8712500D02*
X4379500Y-8887500D01*
X4379500Y-8712500D02*
X4204500Y-8887500D01*
X4204500Y-10612500D02*
X4379500Y-10787500D01*
X4379500Y-10612500D02*
X4204500Y-10787500D01*
X4204500Y-12512500D02*
X4379500Y-12687500D01*
X4379500Y-12512500D02*
X4204500Y-12687500D01*
X5220500Y-4912500D02*
X5395500Y-5087500D01*
X5395500Y-4912500D02*
X5220500Y-5087500D01*
X5220500Y-6812500D02*
X5395500Y-6987500D01*
X5395500Y-6812500D02*
X5220500Y-6987500D01*
X5220500Y-8712500D02*
X5395500Y-8887500D01*
X5395500Y-8712500D02*
X5220500Y-8887500D01*
X5220500Y-10612500D02*
X5395500Y-10787500D01*
X5395500Y-10612500D02*
X5220500Y-10787500D01*
X5220500Y-12512500D02*
X5395500Y-12687500D01*
X5395500Y-12512500D02*
X5220500Y-12687500D01*
X6104500Y-4912500D02*
X6279500Y-5087500D01*
X6279500Y-4912500D02*
X6104500Y-5087500D01*
X6104500Y-6812500D02*
X6279500Y-6987500D01*
X6279500Y-6812500D02*
X6104500Y-6987500D01*
X6104500Y-8712500D02*
X6279500Y-8887500D01*
X6279500Y-8712500D02*
X6104500Y-8887500D01*
X6104500Y-10612500D02*
X6279500Y-10787500D01*
X6279500Y-10612500D02*
X6104500Y-10787500D01*
X6104500Y-12512500D02*
X6279500Y-12687500D01*
X6279500Y-12512500D02*
X6104500Y-12687500D01*
X7120500Y-4912500D02*
X7295500Y-5087500D01*
X7295500Y-4912500D02*
X7120500Y-5087500D01*
X7120500Y-6812500D02*
X7295500Y-6987500D01*
X7295500Y-6812500D02*
X7120500Y-6987500D01*
X7120500Y-8712500D02*
X7295500Y-8887500D01*
X7295500Y-8712500D02*
X7120500Y-8887500D01*
X7120500Y-10612500D02*
X7295500Y-10787500D01*
X7295500Y-10612500D02*
X7120500Y-10787500D01*
X7120500Y-12512500D02*
X7295500Y-12687500D01*
X7295500Y-12512500D02*
X7120500Y-12687500D01*
X8004500Y-4912500D02*
X8179500Y-5087500D01*
X8179500Y-4912500D02*
X8004500Y-5087500D01*
X8004500Y-6812500D02*
X8179500Y-6987500D01*
X8179500Y-6812500D02*
X8004500Y-6987500D01*
X8004500Y-8712500D02*
X8179500Y-8887500D01*
X8179500Y-8712500D02*
X8004500Y-8887500D01*
X8004500Y-10612500D02*
X8179500Y-10787500D01*
X8179500Y-10612500D02*
X8004500Y-10787500D01*
X8004500Y-12512500D02*
X8179500Y-12687500D01*
X8179500Y-12512500D02*
X8004500Y-12687500D01*
X9020500Y-4912500D02*
X9195500Y-5087500D01*
X9195500Y-4912500D02*
X9020500Y-5087500D01*
X9020500Y-6812500D02*
X9195500Y-6987500D01*
X9195500Y-6812500D02*
X9020500Y-6987500D01*
X9020500Y-8712500D02*
X9195500Y-8887500D01*
X9195500Y-8712500D02*
X9020500Y-8887500D01*
X9020500Y-10612500D02*
X9195500Y-10787500D01*
X9195500Y-10612500D02*
X9020500Y-10787500D01*
X9020500Y-12512500D02*
X9195500Y-12687500D01*
X9195500Y-12512500D02*
X9020500Y-12687500D01*
X9904500Y-4912500D02*
X10079500Y-5087500D01*
X10079500Y-4912500D02*
X9904500Y-5087500D01*
X9904500Y-6812500D02*
X10079500Y-6987500D01*
X10079500Y-6812500D02*
X9904500Y-6987500D01*
X9904500Y-8712500D02*
X10079500Y-8887500D01*
X10079500Y-8712500D02*
X9904500Y-8887500D01*
X9904500Y-10612500D02*
X10079500Y-10787500D01*
X10079500Y-10612500D02*
X9904500Y-10787500D01*
X9904500Y-12512500D02*
X10079500Y-12687500D01*
X10079500Y-12512500D02*
X9904500Y-12687500D01*
X10920500Y-4912500D02*
X11095500Y-5087500D01*
X11095500Y-4912500D02*
X10920500Y-5087500D01*
X10920500Y-6812500D02*
X11095500Y-6987500D01*
X11095500Y-6812500D02*
X10920500Y-6987500D01*
X10920500Y-8712500D02*
X11095500Y-8887500D01*
X11095500Y-8712500D02*
X10920500Y-8887500D01*
X10920500Y-10612500D02*
X11095500Y-10787500D01*
X11095500Y-10612500D02*
X10920500Y-10787500D01*
X10920500Y-12512500D02*
X11095500Y-12687500D01*
X11095500Y-12512500D02*
X10920500Y-12687500D01*
X11804500Y-4912500D02*
X11979500Y-5087500D01*
X11979500Y-4912500D02*
X11804500Y-5087500D01*
X11804500Y-6812500D02*
X11979500Y-6987500D01*
X11979500Y-6812500D02*
X11804500Y-6987500D01*
X11804500Y-8712500D02*
X11979500Y-8887500D01*
X11979500Y-8712500D02*
X11804500Y-8887500D01*
X11804500Y-10612500D02*
X11979500Y-10787500D01*
X11979500Y-10612500D02*
X11804500Y-10787500D01*
X11804500Y-12512500D02*
X11979500Y-12687500D01*
X11979500Y-12512500D02*
X11804500Y-12687500D01*
X12820500Y-4912500D02*
X12995500Y-5087500D01*
X12995500Y-4912500D02*
X12820500Y-5087500D01*
X12820500Y-6812500D02*
X12995500Y-6987500D01*
X12995500Y-6812500D02*
X12820500Y-6987500D01*
X12820500Y-8712500D02*
X12995500Y-8887500D01*
X12995500Y-8712500D02*
X12820500Y-8887500D01*
X12820500Y-10612500D02*
X12995500Y-10787500D01*
X12995500Y-10612500D02*
X12820500Y-10787500D01*
X12820500Y-12512500D02*
X12995500Y-12687500D01*
X12995500Y-12512500D02*
X12820500Y-12687500D01*
D13*
X4571500Y-4746000D02*
G75*
G03*
X4571500Y-4746000I-152500J0D01*
G01*
X4571500Y-6646000D02*
G75*
G03*
X4571500Y-6646000I-152500J0D01*
G01*
X4571500Y-8546000D02*
G75*
G03*
X4571500Y-8546000I-152500J0D01*
G01*
X4571500Y-10446000D02*
G75*
G03*
X4571500Y-10446000I-152500J0D01*
G01*
X4571500Y-12346000D02*
G75*
G03*
X4571500Y-12346000I-152500J0D01*
G01*
X5206500Y-4492000D02*
G75*
G03*
X5206500Y-4492000I-152500J0D01*
G01*
X5206500Y-6392000D02*
G75*
G03*
X5206500Y-6392000I-152500J0D01*
G01*
X5206500Y-8292000D02*
G75*
G03*
X5206500Y-8292000I-152500J0D01*
G01*
X5206500Y-10192000D02*
G75*
G03*
X5206500Y-10192000I-152500J0D01*
G01*
X5206500Y-12092000D02*
G75*
G03*
X5206500Y-12092000I-152500J0D01*
G01*
X6471500Y-4746000D02*
G75*
G03*
X6471500Y-4746000I-152500J0D01*
G01*
X6471500Y-6646000D02*
G75*
G03*
X6471500Y-6646000I-152500J0D01*
G01*
X6471500Y-8546000D02*
G75*
G03*
X6471500Y-8546000I-152500J0D01*
G01*
X6471500Y-10446000D02*
G75*
G03*
X6471500Y-10446000I-152500J0D01*
G01*
X6471500Y-12346000D02*
G75*
G03*
X6471500Y-12346000I-152500J0D01*
G01*
X7106500Y-4492000D02*
G75*
G03*
X7106500Y-4492000I-152500J0D01*
G01*
X7106500Y-6392000D02*
G75*
G03*
X7106500Y-6392000I-152500J0D01*
G01*
X7106500Y-8292000D02*
G75*
G03*
X7106500Y-8292000I-152500J0D01*
G01*
X7106500Y-10192000D02*
G75*
G03*
X7106500Y-10192000I-152500J0D01*
G01*
X7106500Y-12092000D02*
G75*
G03*
X7106500Y-12092000I-152500J0D01*
G01*
X8371500Y-4746000D02*
G75*
G03*
X8371500Y-4746000I-152500J0D01*
G01*
X8371500Y-6646000D02*
G75*
G03*
X8371500Y-6646000I-152500J0D01*
G01*
X8371500Y-8546000D02*
G75*
G03*
X8371500Y-8546000I-152500J0D01*
G01*
X8371500Y-10446000D02*
G75*
G03*
X8371500Y-10446000I-152500J0D01*
G01*
X8371500Y-12346000D02*
G75*
G03*
X8371500Y-12346000I-152500J0D01*
G01*
X9006500Y-4492000D02*
G75*
G03*
X9006500Y-4492000I-152500J0D01*
G01*
X9006500Y-6392000D02*
G75*
G03*
X9006500Y-6392000I-152500J0D01*
G01*
X9006500Y-8292000D02*
G75*
G03*
X9006500Y-8292000I-152500J0D01*
G01*
X9006500Y-10192000D02*
G75*
G03*
X9006500Y-10192000I-152500J0D01*
G01*
X9006500Y-12092000D02*
G75*
G03*
X9006500Y-12092000I-152500J0D01*
G01*
X10271500Y-4746000D02*
G75*
G03*
X10271500Y-4746000I-152500J0D01*
G01*
X10271500Y-6646000D02*
G75*
G03*
X10271500Y-6646000I-152500J0D01*
G01*
X10271500Y-8546000D02*
G75*
G03*
X10271500Y-8546000I-152500J0D01*
G01*
X10271500Y-10446000D02*
G75*
G03*
X10271500Y-10446000I-152500J0D01*
G01*
X10271500Y-12346000D02*
G75*
G03*
X10271500Y-12346000I-152500J0D01*
G01*
X10906500Y-4492000D02*
G75*
G03*
X10906500Y-4492000I-152500J0D01*
G01*
X10906500Y-6392000D02*
G75*
G03*
X10906500Y-6392000I-152500J0D01*
G01*
X10906500Y-8292000D02*
G75*
G03*
X10906500Y-8292000I-152500J0D01*
G01*
X10906500Y-10192000D02*
G75*
G03*
X10906500Y-10192000I-152500J0D01*
G01*
X10906500Y-12092000D02*
G75*
G03*
X10906500Y-12092000I-152500J0D01*
G01*
X12171500Y-4746000D02*
G75*
G03*
X12171500Y-4746000I-152500J0D01*
G01*
X12171500Y-6646000D02*
G75*
G03*
X12171500Y-6646000I-152500J0D01*
G01*
X12171500Y-8546000D02*
G75*
G03*
X12171500Y-8546000I-152500J0D01*
G01*
X12171500Y-10446000D02*
G75*
G03*
X12171500Y-10446000I-152500J0D01*
G01*
X12171500Y-12346000D02*
G75*
G03*
X12171500Y-12346000I-152500J0D01*
G01*
X12806500Y-4492000D02*
G75*
G03*
X12806500Y-4492000I-152500J0D01*
G01*
X12806500Y-6392000D02*
G75*
G03*
X12806500Y-6392000I-152500J0D01*
G01*
X12806500Y-8292000D02*
G75*
G03*
X12806500Y-8292000I-152500J0D01*
G01*
X12806500Y-10192000D02*
G75*
G03*
X12806500Y-10192000I-152500J0D01*
G01*
X12806500Y-12092000D02*
G75*
G03*
X12806500Y-12092000I-152500J0D01*
G01*
D14*
X3950000Y-3990000D02*
X3950000Y-4310000D01*
X3790000Y-4150000D02*
X4110000Y-4150000D01*
X3950000Y-13290000D02*
X3950000Y-13610000D01*
X3790000Y-13450000D02*
X4110000Y-13450000D01*
X13250000Y-3990000D02*
X13250000Y-4310000D01*
X13090000Y-4150000D02*
X13410000Y-4150000D01*
X13250000Y-13290000D02*
X13250000Y-13610000D01*
X13090000Y-13450000D02*
X13410000Y-13450000D01*
D15*
X4941423Y-5141423D02*
X4941423Y-4858577D01*
X4658577Y-4858577D01*
X4658577Y-5141423D01*
X4941423Y-5141423D01*
X4941423Y-7041423D02*
X4941423Y-6758577D01*
X4658577Y-6758577D01*
X4658577Y-7041423D01*
X4941423Y-7041423D01*
X4941423Y-8941423D02*
X4941423Y-8658577D01*
X4658577Y-8658577D01*
X4658577Y-8941423D01*
X4941423Y-8941423D01*
X4941423Y-10841423D02*
X4941423Y-10558577D01*
X4658577Y-10558577D01*
X4658577Y-10841423D01*
X4941423Y-10841423D01*
X4941423Y-12741423D02*
X4941423Y-12458577D01*
X4658577Y-12458577D01*
X4658577Y-12741423D01*
X4941423Y-12741423D01*
X6841423Y-5141423D02*
X6841423Y-4858577D01*
X6558577Y-4858577D01*
X6558577Y-5141423D01*
X6841423Y-5141423D01*
X6841423Y-7041423D02*
X6841423Y-6758577D01*
X6558577Y-6758577D01*
X6558577Y-7041423D01*
X6841423Y-7041423D01*
X6841423Y-8941423D02*
X6841423Y-8658577D01*
X6558577Y-8658577D01*
X6558577Y-8941423D01*
X6841423Y-8941423D01*
X6841423Y-10841423D02*
X6841423Y-10558577D01*
X6558577Y-10558577D01*
X6558577Y-10841423D01*
X6841423Y-10841423D01*
X6841423Y-12741423D02*
X6841423Y-12458577D01*
X6558577Y-12458577D01*
X6558577Y-12741423D01*
X6841423Y-12741423D01*
X8741423Y-5141423D02*
X8741423Y-4858577D01*
X8458577Y-4858577D01*
X8458577Y-5141423D01*
X8741423Y-5141423D01*
X8741423Y-7041423D02*
X8741423Y-6758577D01*
X8458577Y-6758577D01*
X8458577Y-7041423D01*
X8741423Y-7041423D01*
X8741423Y-8941423D02*
X8741423Y-8658577D01*
X8458577Y-8658577D01*
X8458577Y-8941423D01*
X8741423Y-8941423D01*
X8741423Y-10841423D02*
X8741423Y-10558577D01*
X8458577Y-10558577D01*
X8458577Y-10841423D01*
X8741423Y-10841423D01*
X8741423Y-12741423D02*
X8741423Y-12458577D01*
X8458577Y-12458577D01*
X8458577Y-12741423D01*
X8741423Y-12741423D01*
X10641423Y-5141423D02*
X10641423Y-4858577D01*
X10358577Y-4858577D01*
X10358577Y-5141423D01*
X10641423Y-5141423D01*
X10641423Y-7041423D02*
X10641423Y-6758577D01*
X10358577Y-6758577D01*
X10358577Y-7041423D01*
X10641423Y-7041423D01*
X10641423Y-8941423D02*
X10641423Y-8658577D01*
X10358577Y-8658577D01*
X10358577Y-8941423D01*
X10641423Y-8941423D01*
X10641423Y-10841423D02*
X10641423Y-10558577D01*
X10358577Y-10558577D01*
X10358577Y-10841423D01*
X10641423Y-10841423D01*
X10641423Y-12741423D02*
X10641423Y-12458577D01*
X10358577Y-12458577D01*
X10358577Y-12741423D01*
X10641423Y-12741423D01*
X12541423Y-5141423D02*
X12541423Y-4858577D01*
X12258577Y-4858577D01*
X12258577Y-5141423D01*
X12541423Y-5141423D01*
X12541423Y-7041423D02*
X12541423Y-6758577D01*
X12258577Y-6758577D01*
X12258577Y-7041423D01*
X12541423Y-7041423D01*
X12541423Y-8941423D02*
X12541423Y-8658577D01*
X12258577Y-8658577D01*
X12258577Y-8941423D01*
X12541423Y-8941423D01*
X12541423Y-10841423D02*
X12541423Y-10558577D01*
X12258577Y-10558577D01*
X12258577Y-10841423D01*
X12541423Y-10841423D01*
X12541423Y-12741423D02*
X12541423Y-12458577D01*
X12258577Y-12458577D01*
X12258577Y-12741423D01*
X12541423Y-12741423D01*
D11*
X3852619Y-14115476D02*
X3852619Y-13915476D01*
X3900238Y-13915476D01*
X3928809Y-13925000D01*
X3947857Y-13944048D01*
X3957381Y-13963095D01*
X3966905Y-14001190D01*
X3966905Y-14029762D01*
X3957381Y-14067857D01*
X3947857Y-14086905D01*
X3928809Y-14105952D01*
X3900238Y-14115476D01*
X3852619Y-14115476D01*
X4052619Y-14115476D02*
X4052619Y-13982143D01*
X4052619Y-14020238D02*
X4062143Y-14001190D01*
X4071667Y-13991667D01*
X4090714Y-13982143D01*
X4109762Y-13982143D01*
X4176428Y-14115476D02*
X4176428Y-13982143D01*
X4176428Y-13915476D02*
X4166905Y-13925000D01*
X4176428Y-13934524D01*
X4185952Y-13925000D01*
X4176428Y-13915476D01*
X4176428Y-13934524D01*
X4300238Y-14115476D02*
X4281190Y-14105952D01*
X4271667Y-14086905D01*
X4271667Y-13915476D01*
X4405000Y-14115476D02*
X4385952Y-14105952D01*
X4376429Y-14086905D01*
X4376429Y-13915476D01*
X4633571Y-14115476D02*
X4633571Y-13915476D01*
X4700238Y-14058333D01*
X4766905Y-13915476D01*
X4766905Y-14115476D01*
X4947857Y-14115476D02*
X4947857Y-14010714D01*
X4938333Y-13991667D01*
X4919286Y-13982143D01*
X4881190Y-13982143D01*
X4862143Y-13991667D01*
X4947857Y-14105952D02*
X4928810Y-14115476D01*
X4881190Y-14115476D01*
X4862143Y-14105952D01*
X4852619Y-14086905D01*
X4852619Y-14067857D01*
X4862143Y-14048809D01*
X4881190Y-14039286D01*
X4928810Y-14039286D01*
X4947857Y-14029762D01*
X5043095Y-13982143D02*
X5043095Y-14182143D01*
X5043095Y-13991667D02*
X5062143Y-13982143D01*
X5100238Y-13982143D01*
X5119286Y-13991667D01*
X5128810Y-14001190D01*
X5138333Y-14020238D01*
X5138333Y-14077381D01*
X5128810Y-14096428D01*
X5119286Y-14105952D01*
X5100238Y-14115476D01*
X5062143Y-14115476D01*
X5043095Y-14105952D01*
X5224048Y-14096428D02*
X5233571Y-14105952D01*
X5224048Y-14115476D01*
X5214524Y-14105952D01*
X5224048Y-14096428D01*
X5224048Y-14115476D01*
X5224048Y-13991667D02*
X5233571Y-14001190D01*
X5224048Y-14010714D01*
X5214524Y-14001190D01*
X5224048Y-13991667D01*
X5224048Y-14010714D01*
D12*
X3420000Y-14357500D02*
X3595000Y-14532500D01*
X3595000Y-14357500D02*
X3420000Y-14532500D01*
D11*
X3957381Y-14535476D02*
X3843095Y-14535476D01*
X3900238Y-14535476D02*
X3900238Y-14335476D01*
X3881190Y-14364048D01*
X3862143Y-14383095D01*
X3843095Y-14392619D01*
X4043095Y-14516428D02*
X4052619Y-14525952D01*
X4043095Y-14535476D01*
X4033571Y-14525952D01*
X4043095Y-14516428D01*
X4043095Y-14535476D01*
X4119286Y-14335476D02*
X4252619Y-14335476D01*
X4166905Y-14535476D01*
X4424048Y-14335476D02*
X4328810Y-14335476D01*
X4319286Y-14430714D01*
X4328810Y-14421190D01*
X4347857Y-14411667D01*
X4395476Y-14411667D01*
X4414524Y-14421190D01*
X4424048Y-14430714D01*
X4433571Y-14449762D01*
X4433571Y-14497381D01*
X4424048Y-14516428D01*
X4414524Y-14525952D01*
X4395476Y-14535476D01*
X4347857Y-14535476D01*
X4328810Y-14525952D01*
X4319286Y-14516428D01*
X4557381Y-14335476D02*
X4576429Y-14335476D01*
X4595476Y-14345000D01*
X4605000Y-14354524D01*
X4614524Y-14373571D01*
X4624048Y-14411667D01*
X4624048Y-14459286D01*
X4614524Y-14497381D01*
X4605000Y-14516428D01*
X4595476Y-14525952D01*
X4576429Y-14535476D01*
X4557381Y-14535476D01*
X4538333Y-14525952D01*
X4528810Y-14516428D01*
X4519286Y-14497381D01*
X4509762Y-14459286D01*
X4509762Y-14411667D01*
X4519286Y-14373571D01*
X4528810Y-14354524D01*
X4538333Y-14345000D01*
X4557381Y-14335476D01*
X4709762Y-14535476D02*
X4709762Y-14402143D01*
X4709762Y-14421190D02*
X4719286Y-14411667D01*
X4738333Y-14402143D01*
X4766905Y-14402143D01*
X4785952Y-14411667D01*
X4795476Y-14430714D01*
X4795476Y-14535476D01*
X4795476Y-14430714D02*
X4805000Y-14411667D01*
X4824048Y-14402143D01*
X4852619Y-14402143D01*
X4871667Y-14411667D01*
X4881190Y-14430714D01*
X4881190Y-14535476D01*
X4976429Y-14535476D02*
X4976429Y-14402143D01*
X4976429Y-14421190D02*
X4985952Y-14411667D01*
X5005000Y-14402143D01*
X5033571Y-14402143D01*
X5052619Y-14411667D01*
X5062143Y-14430714D01*
X5062143Y-14535476D01*
X5062143Y-14430714D02*
X5071667Y-14411667D01*
X5090714Y-14402143D01*
X5119286Y-14402143D01*
X5138333Y-14411667D01*
X5147857Y-14430714D01*
X5147857Y-14535476D01*
X5538333Y-14325952D02*
X5366905Y-14583095D01*
X5795476Y-14335476D02*
X5814524Y-14335476D01*
X5833571Y-14345000D01*
X5843095Y-14354524D01*
X5852619Y-14373571D01*
X5862143Y-14411667D01*
X5862143Y-14459286D01*
X5852619Y-14497381D01*
X5843095Y-14516428D01*
X5833571Y-14525952D01*
X5814524Y-14535476D01*
X5795476Y-14535476D01*
X5776428Y-14525952D01*
X5766905Y-14516428D01*
X5757381Y-14497381D01*
X5747857Y-14459286D01*
X5747857Y-14411667D01*
X5757381Y-14373571D01*
X5766905Y-14354524D01*
X5776428Y-14345000D01*
X5795476Y-14335476D01*
X5947857Y-14516428D02*
X5957381Y-14525952D01*
X5947857Y-14535476D01*
X5938333Y-14525952D01*
X5947857Y-14516428D01*
X5947857Y-14535476D01*
X6081190Y-14335476D02*
X6100238Y-14335476D01*
X6119286Y-14345000D01*
X6128809Y-14354524D01*
X6138333Y-14373571D01*
X6147857Y-14411667D01*
X6147857Y-14459286D01*
X6138333Y-14497381D01*
X6128809Y-14516428D01*
X6119286Y-14525952D01*
X6100238Y-14535476D01*
X6081190Y-14535476D01*
X6062143Y-14525952D01*
X6052619Y-14516428D01*
X6043095Y-14497381D01*
X6033571Y-14459286D01*
X6033571Y-14411667D01*
X6043095Y-14373571D01*
X6052619Y-14354524D01*
X6062143Y-14345000D01*
X6081190Y-14335476D01*
X6319286Y-14335476D02*
X6281190Y-14335476D01*
X6262143Y-14345000D01*
X6252619Y-14354524D01*
X6233571Y-14383095D01*
X6224048Y-14421190D01*
X6224048Y-14497381D01*
X6233571Y-14516428D01*
X6243095Y-14525952D01*
X6262143Y-14535476D01*
X6300238Y-14535476D01*
X6319286Y-14525952D01*
X6328809Y-14516428D01*
X6338333Y-14497381D01*
X6338333Y-14449762D01*
X6328809Y-14430714D01*
X6319286Y-14421190D01*
X6300238Y-14411667D01*
X6262143Y-14411667D01*
X6243095Y-14421190D01*
X6233571Y-14430714D01*
X6224048Y-14449762D01*
X6452619Y-14421190D02*
X6433571Y-14411667D01*
X6424048Y-14402143D01*
X6414524Y-14383095D01*
X6414524Y-14373571D01*
X6424048Y-14354524D01*
X6433571Y-14345000D01*
X6452619Y-14335476D01*
X6490714Y-14335476D01*
X6509762Y-14345000D01*
X6519286Y-14354524D01*
X6528809Y-14373571D01*
X6528809Y-14383095D01*
X6519286Y-14402143D01*
X6509762Y-14411667D01*
X6490714Y-14421190D01*
X6452619Y-14421190D01*
X6433571Y-14430714D01*
X6424048Y-14440238D01*
X6414524Y-14459286D01*
X6414524Y-14497381D01*
X6424048Y-14516428D01*
X6433571Y-14525952D01*
X6452619Y-14535476D01*
X6490714Y-14535476D01*
X6509762Y-14525952D01*
X6519286Y-14516428D01*
X6528809Y-14497381D01*
X6528809Y-14459286D01*
X6519286Y-14440238D01*
X6509762Y-14430714D01*
X6490714Y-14421190D01*
X6624048Y-14535476D02*
X6662143Y-14535476D01*
X6681190Y-14525952D01*
X6690714Y-14516428D01*
X6709762Y-14487857D01*
X6719286Y-14449762D01*
X6719286Y-14373571D01*
X6709762Y-14354524D01*
X6700238Y-14345000D01*
X6681190Y-14335476D01*
X6643095Y-14335476D01*
X6624048Y-14345000D01*
X6614524Y-14354524D01*
X6605000Y-14373571D01*
X6605000Y-14421190D01*
X6614524Y-14440238D01*
X6624048Y-14449762D01*
X6643095Y-14459286D01*
X6681190Y-14459286D01*
X6700238Y-14449762D01*
X6709762Y-14440238D01*
X6719286Y-14421190D01*
X6795476Y-14335476D02*
X6795476Y-14373571D01*
X6871667Y-14335476D02*
X6871667Y-14373571D01*
X7166905Y-14611667D02*
X7157381Y-14602143D01*
X7138333Y-14573571D01*
X7128809Y-14554524D01*
X7119286Y-14525952D01*
X7109762Y-14478333D01*
X7109762Y-14440238D01*
X7119286Y-14392619D01*
X7128809Y-14364048D01*
X7138333Y-14345000D01*
X7157381Y-14316428D01*
X7166905Y-14306905D01*
X7338333Y-14335476D02*
X7243095Y-14335476D01*
X7233571Y-14430714D01*
X7243095Y-14421190D01*
X7262143Y-14411667D01*
X7309762Y-14411667D01*
X7328809Y-14421190D01*
X7338333Y-14430714D01*
X7347857Y-14449762D01*
X7347857Y-14497381D01*
X7338333Y-14516428D01*
X7328809Y-14525952D01*
X7309762Y-14535476D01*
X7262143Y-14535476D01*
X7243095Y-14525952D01*
X7233571Y-14516428D01*
X7471667Y-14335476D02*
X7490714Y-14335476D01*
X7509762Y-14345000D01*
X7519286Y-14354524D01*
X7528809Y-14373571D01*
X7538333Y-14411667D01*
X7538333Y-14459286D01*
X7528809Y-14497381D01*
X7519286Y-14516428D01*
X7509762Y-14525952D01*
X7490714Y-14535476D01*
X7471667Y-14535476D01*
X7452619Y-14525952D01*
X7443095Y-14516428D01*
X7433571Y-14497381D01*
X7424048Y-14459286D01*
X7424048Y-14411667D01*
X7433571Y-14373571D01*
X7443095Y-14354524D01*
X7452619Y-14345000D01*
X7471667Y-14335476D01*
X7776428Y-14535476D02*
X7776428Y-14335476D01*
X7862143Y-14535476D02*
X7862143Y-14430714D01*
X7852619Y-14411667D01*
X7833571Y-14402143D01*
X7805000Y-14402143D01*
X7785952Y-14411667D01*
X7776428Y-14421190D01*
X7985952Y-14535476D02*
X7966905Y-14525952D01*
X7957381Y-14516428D01*
X7947857Y-14497381D01*
X7947857Y-14440238D01*
X7957381Y-14421190D01*
X7966905Y-14411667D01*
X7985952Y-14402143D01*
X8014524Y-14402143D01*
X8033571Y-14411667D01*
X8043095Y-14421190D01*
X8052619Y-14440238D01*
X8052619Y-14497381D01*
X8043095Y-14516428D01*
X8033571Y-14525952D01*
X8014524Y-14535476D01*
X7985952Y-14535476D01*
X8166905Y-14535476D02*
X8147857Y-14525952D01*
X8138333Y-14506905D01*
X8138333Y-14335476D01*
X8319286Y-14525952D02*
X8300238Y-14535476D01*
X8262143Y-14535476D01*
X8243095Y-14525952D01*
X8233571Y-14506905D01*
X8233571Y-14430714D01*
X8243095Y-14411667D01*
X8262143Y-14402143D01*
X8300238Y-14402143D01*
X8319286Y-14411667D01*
X8328809Y-14430714D01*
X8328809Y-14449762D01*
X8233571Y-14468809D01*
X8405000Y-14525952D02*
X8424048Y-14535476D01*
X8462143Y-14535476D01*
X8481190Y-14525952D01*
X8490714Y-14506905D01*
X8490714Y-14497381D01*
X8481190Y-14478333D01*
X8462143Y-14468809D01*
X8433571Y-14468809D01*
X8414524Y-14459286D01*
X8405000Y-14440238D01*
X8405000Y-14430714D01*
X8414524Y-14411667D01*
X8433571Y-14402143D01*
X8462143Y-14402143D01*
X8481190Y-14411667D01*
X8557381Y-14611667D02*
X8566905Y-14602143D01*
X8585952Y-14573571D01*
X8595476Y-14554524D01*
X8605000Y-14525952D01*
X8614524Y-14478333D01*
X8614524Y-14440238D01*
X8605000Y-14392619D01*
X8595476Y-14364048D01*
X8585952Y-14345000D01*
X8566905Y-14316428D01*
X8557381Y-14306905D01*
X8919286Y-14611667D02*
X8909762Y-14602143D01*
X8890714Y-14573571D01*
X8881190Y-14554524D01*
X8871667Y-14525952D01*
X8862143Y-14478333D01*
X8862143Y-14440238D01*
X8871667Y-14392619D01*
X8881190Y-14364048D01*
X8890714Y-14345000D01*
X8909762Y-14316428D01*
X8919286Y-14306905D01*
X8995476Y-14402143D02*
X8995476Y-14535476D01*
X8995476Y-14421190D02*
X9005000Y-14411667D01*
X9024048Y-14402143D01*
X9052619Y-14402143D01*
X9071667Y-14411667D01*
X9081190Y-14430714D01*
X9081190Y-14535476D01*
X9205000Y-14535476D02*
X9185952Y-14525952D01*
X9176429Y-14516428D01*
X9166905Y-14497381D01*
X9166905Y-14440238D01*
X9176429Y-14421190D01*
X9185952Y-14411667D01*
X9205000Y-14402143D01*
X9233571Y-14402143D01*
X9252619Y-14411667D01*
X9262143Y-14421190D01*
X9271667Y-14440238D01*
X9271667Y-14497381D01*
X9262143Y-14516428D01*
X9252619Y-14525952D01*
X9233571Y-14535476D01*
X9205000Y-14535476D01*
X9328810Y-14402143D02*
X9405000Y-14402143D01*
X9357381Y-14335476D02*
X9357381Y-14506905D01*
X9366905Y-14525952D01*
X9385952Y-14535476D01*
X9405000Y-14535476D01*
X9624048Y-14402143D02*
X9624048Y-14602143D01*
X9624048Y-14411667D02*
X9643095Y-14402143D01*
X9681190Y-14402143D01*
X9700238Y-14411667D01*
X9709762Y-14421190D01*
X9719286Y-14440238D01*
X9719286Y-14497381D01*
X9709762Y-14516428D01*
X9700238Y-14525952D01*
X9681190Y-14535476D01*
X9643095Y-14535476D01*
X9624048Y-14525952D01*
X9833571Y-14535476D02*
X9814524Y-14525952D01*
X9805000Y-14506905D01*
X9805000Y-14335476D01*
X9995476Y-14535476D02*
X9995476Y-14430714D01*
X9985952Y-14411667D01*
X9966905Y-14402143D01*
X9928810Y-14402143D01*
X9909762Y-14411667D01*
X9995476Y-14525952D02*
X9976429Y-14535476D01*
X9928810Y-14535476D01*
X9909762Y-14525952D01*
X9900238Y-14506905D01*
X9900238Y-14487857D01*
X9909762Y-14468809D01*
X9928810Y-14459286D01*
X9976429Y-14459286D01*
X9995476Y-14449762D01*
X10062143Y-14402143D02*
X10138333Y-14402143D01*
X10090714Y-14335476D02*
X10090714Y-14506905D01*
X10100238Y-14525952D01*
X10119286Y-14535476D01*
X10138333Y-14535476D01*
X10281190Y-14525952D02*
X10262143Y-14535476D01*
X10224048Y-14535476D01*
X10205000Y-14525952D01*
X10195476Y-14506905D01*
X10195476Y-14430714D01*
X10205000Y-14411667D01*
X10224048Y-14402143D01*
X10262143Y-14402143D01*
X10281190Y-14411667D01*
X10290714Y-14430714D01*
X10290714Y-14449762D01*
X10195476Y-14468809D01*
X10462143Y-14535476D02*
X10462143Y-14335476D01*
X10462143Y-14525952D02*
X10443095Y-14535476D01*
X10405000Y-14535476D01*
X10385952Y-14525952D01*
X10376429Y-14516428D01*
X10366905Y-14497381D01*
X10366905Y-14440238D01*
X10376429Y-14421190D01*
X10385952Y-14411667D01*
X10405000Y-14402143D01*
X10443095Y-14402143D01*
X10462143Y-14411667D01*
X10538333Y-14611667D02*
X10547857Y-14602143D01*
X10566905Y-14573571D01*
X10576429Y-14554524D01*
X10585952Y-14525952D01*
X10595476Y-14478333D01*
X10595476Y-14440238D01*
X10585952Y-14392619D01*
X10576429Y-14364048D01*
X10566905Y-14345000D01*
X10547857Y-14316428D01*
X10538333Y-14306905D01*
X3595000Y-14740000D02*
G75*
G03*
X3595000Y-14740000I-100000J0D01*
G01*
X3833571Y-14630476D02*
X3957381Y-14630476D01*
X3890714Y-14706667D01*
X3919286Y-14706667D01*
X3938333Y-14716190D01*
X3947857Y-14725714D01*
X3957381Y-14744762D01*
X3957381Y-14792381D01*
X3947857Y-14811428D01*
X3938333Y-14820952D01*
X3919286Y-14830476D01*
X3862143Y-14830476D01*
X3843095Y-14820952D01*
X3833571Y-14811428D01*
X4043095Y-14811428D02*
X4052619Y-14820952D01*
X4043095Y-14830476D01*
X4033571Y-14820952D01*
X4043095Y-14811428D01*
X4043095Y-14830476D01*
X4176428Y-14630476D02*
X4195476Y-14630476D01*
X4214524Y-14640000D01*
X4224048Y-14649524D01*
X4233571Y-14668571D01*
X4243095Y-14706667D01*
X4243095Y-14754286D01*
X4233571Y-14792381D01*
X4224048Y-14811428D01*
X4214524Y-14820952D01*
X4195476Y-14830476D01*
X4176428Y-14830476D01*
X4157381Y-14820952D01*
X4147857Y-14811428D01*
X4138333Y-14792381D01*
X4128809Y-14754286D01*
X4128809Y-14706667D01*
X4138333Y-14668571D01*
X4147857Y-14649524D01*
X4157381Y-14640000D01*
X4176428Y-14630476D01*
X4424048Y-14630476D02*
X4328810Y-14630476D01*
X4319286Y-14725714D01*
X4328810Y-14716190D01*
X4347857Y-14706667D01*
X4395476Y-14706667D01*
X4414524Y-14716190D01*
X4424048Y-14725714D01*
X4433571Y-14744762D01*
X4433571Y-14792381D01*
X4424048Y-14811428D01*
X4414524Y-14820952D01*
X4395476Y-14830476D01*
X4347857Y-14830476D01*
X4328810Y-14820952D01*
X4319286Y-14811428D01*
X4557381Y-14630476D02*
X4576429Y-14630476D01*
X4595476Y-14640000D01*
X4605000Y-14649524D01*
X4614524Y-14668571D01*
X4624048Y-14706667D01*
X4624048Y-14754286D01*
X4614524Y-14792381D01*
X4605000Y-14811428D01*
X4595476Y-14820952D01*
X4576429Y-14830476D01*
X4557381Y-14830476D01*
X4538333Y-14820952D01*
X4528810Y-14811428D01*
X4519286Y-14792381D01*
X4509762Y-14754286D01*
X4509762Y-14706667D01*
X4519286Y-14668571D01*
X4528810Y-14649524D01*
X4538333Y-14640000D01*
X4557381Y-14630476D01*
X4709762Y-14830476D02*
X4709762Y-14697143D01*
X4709762Y-14716190D02*
X4719286Y-14706667D01*
X4738333Y-14697143D01*
X4766905Y-14697143D01*
X4785952Y-14706667D01*
X4795476Y-14725714D01*
X4795476Y-14830476D01*
X4795476Y-14725714D02*
X4805000Y-14706667D01*
X4824048Y-14697143D01*
X4852619Y-14697143D01*
X4871667Y-14706667D01*
X4881190Y-14725714D01*
X4881190Y-14830476D01*
X4976429Y-14830476D02*
X4976429Y-14697143D01*
X4976429Y-14716190D02*
X4985952Y-14706667D01*
X5005000Y-14697143D01*
X5033571Y-14697143D01*
X5052619Y-14706667D01*
X5062143Y-14725714D01*
X5062143Y-14830476D01*
X5062143Y-14725714D02*
X5071667Y-14706667D01*
X5090714Y-14697143D01*
X5119286Y-14697143D01*
X5138333Y-14706667D01*
X5147857Y-14725714D01*
X5147857Y-14830476D01*
X5538333Y-14620952D02*
X5366905Y-14878095D01*
X5795476Y-14630476D02*
X5814524Y-14630476D01*
X5833571Y-14640000D01*
X5843095Y-14649524D01*
X5852619Y-14668571D01*
X5862143Y-14706667D01*
X5862143Y-14754286D01*
X5852619Y-14792381D01*
X5843095Y-14811428D01*
X5833571Y-14820952D01*
X5814524Y-14830476D01*
X5795476Y-14830476D01*
X5776428Y-14820952D01*
X5766905Y-14811428D01*
X5757381Y-14792381D01*
X5747857Y-14754286D01*
X5747857Y-14706667D01*
X5757381Y-14668571D01*
X5766905Y-14649524D01*
X5776428Y-14640000D01*
X5795476Y-14630476D01*
X5947857Y-14811428D02*
X5957381Y-14820952D01*
X5947857Y-14830476D01*
X5938333Y-14820952D01*
X5947857Y-14811428D01*
X5947857Y-14830476D01*
X6147857Y-14830476D02*
X6033571Y-14830476D01*
X6090714Y-14830476D02*
X6090714Y-14630476D01*
X6071667Y-14659048D01*
X6052619Y-14678095D01*
X6033571Y-14687619D01*
X6224048Y-14649524D02*
X6233571Y-14640000D01*
X6252619Y-14630476D01*
X6300238Y-14630476D01*
X6319286Y-14640000D01*
X6328809Y-14649524D01*
X6338333Y-14668571D01*
X6338333Y-14687619D01*
X6328809Y-14716190D01*
X6214524Y-14830476D01*
X6338333Y-14830476D01*
X6462143Y-14630476D02*
X6481190Y-14630476D01*
X6500238Y-14640000D01*
X6509762Y-14649524D01*
X6519286Y-14668571D01*
X6528809Y-14706667D01*
X6528809Y-14754286D01*
X6519286Y-14792381D01*
X6509762Y-14811428D01*
X6500238Y-14820952D01*
X6481190Y-14830476D01*
X6462143Y-14830476D01*
X6443095Y-14820952D01*
X6433571Y-14811428D01*
X6424048Y-14792381D01*
X6414524Y-14754286D01*
X6414524Y-14706667D01*
X6424048Y-14668571D01*
X6433571Y-14649524D01*
X6443095Y-14640000D01*
X6462143Y-14630476D01*
X6719286Y-14830476D02*
X6605000Y-14830476D01*
X6662143Y-14830476D02*
X6662143Y-14630476D01*
X6643095Y-14659048D01*
X6624048Y-14678095D01*
X6605000Y-14687619D01*
X6795476Y-14630476D02*
X6795476Y-14668571D01*
X6871667Y-14630476D02*
X6871667Y-14668571D01*
X7166905Y-14906667D02*
X7157381Y-14897143D01*
X7138333Y-14868571D01*
X7128809Y-14849524D01*
X7119286Y-14820952D01*
X7109762Y-14773333D01*
X7109762Y-14735238D01*
X7119286Y-14687619D01*
X7128809Y-14659048D01*
X7138333Y-14640000D01*
X7157381Y-14611428D01*
X7166905Y-14601905D01*
X7338333Y-14630476D02*
X7243095Y-14630476D01*
X7233571Y-14725714D01*
X7243095Y-14716190D01*
X7262143Y-14706667D01*
X7309762Y-14706667D01*
X7328809Y-14716190D01*
X7338333Y-14725714D01*
X7347857Y-14744762D01*
X7347857Y-14792381D01*
X7338333Y-14811428D01*
X7328809Y-14820952D01*
X7309762Y-14830476D01*
X7262143Y-14830476D01*
X7243095Y-14820952D01*
X7233571Y-14811428D01*
X7471667Y-14630476D02*
X7490714Y-14630476D01*
X7509762Y-14640000D01*
X7519286Y-14649524D01*
X7528809Y-14668571D01*
X7538333Y-14706667D01*
X7538333Y-14754286D01*
X7528809Y-14792381D01*
X7519286Y-14811428D01*
X7509762Y-14820952D01*
X7490714Y-14830476D01*
X7471667Y-14830476D01*
X7452619Y-14820952D01*
X7443095Y-14811428D01*
X7433571Y-14792381D01*
X7424048Y-14754286D01*
X7424048Y-14706667D01*
X7433571Y-14668571D01*
X7443095Y-14649524D01*
X7452619Y-14640000D01*
X7471667Y-14630476D01*
X7776428Y-14830476D02*
X7776428Y-14630476D01*
X7862143Y-14830476D02*
X7862143Y-14725714D01*
X7852619Y-14706667D01*
X7833571Y-14697143D01*
X7805000Y-14697143D01*
X7785952Y-14706667D01*
X7776428Y-14716190D01*
X7985952Y-14830476D02*
X7966905Y-14820952D01*
X7957381Y-14811428D01*
X7947857Y-14792381D01*
X7947857Y-14735238D01*
X7957381Y-14716190D01*
X7966905Y-14706667D01*
X7985952Y-14697143D01*
X8014524Y-14697143D01*
X8033571Y-14706667D01*
X8043095Y-14716190D01*
X8052619Y-14735238D01*
X8052619Y-14792381D01*
X8043095Y-14811428D01*
X8033571Y-14820952D01*
X8014524Y-14830476D01*
X7985952Y-14830476D01*
X8166905Y-14830476D02*
X8147857Y-14820952D01*
X8138333Y-14801905D01*
X8138333Y-14630476D01*
X8319286Y-14820952D02*
X8300238Y-14830476D01*
X8262143Y-14830476D01*
X8243095Y-14820952D01*
X8233571Y-14801905D01*
X8233571Y-14725714D01*
X8243095Y-14706667D01*
X8262143Y-14697143D01*
X8300238Y-14697143D01*
X8319286Y-14706667D01*
X8328809Y-14725714D01*
X8328809Y-14744762D01*
X8233571Y-14763809D01*
X8405000Y-14820952D02*
X8424048Y-14830476D01*
X8462143Y-14830476D01*
X8481190Y-14820952D01*
X8490714Y-14801905D01*
X8490714Y-14792381D01*
X8481190Y-14773333D01*
X8462143Y-14763809D01*
X8433571Y-14763809D01*
X8414524Y-14754286D01*
X8405000Y-14735238D01*
X8405000Y-14725714D01*
X8414524Y-14706667D01*
X8433571Y-14697143D01*
X8462143Y-14697143D01*
X8481190Y-14706667D01*
X8557381Y-14906667D02*
X8566905Y-14897143D01*
X8585952Y-14868571D01*
X8595476Y-14849524D01*
X8605000Y-14820952D01*
X8614524Y-14773333D01*
X8614524Y-14735238D01*
X8605000Y-14687619D01*
X8595476Y-14659048D01*
X8585952Y-14640000D01*
X8566905Y-14611428D01*
X8557381Y-14601905D01*
X8919286Y-14906667D02*
X8909762Y-14897143D01*
X8890714Y-14868571D01*
X8881190Y-14849524D01*
X8871667Y-14820952D01*
X8862143Y-14773333D01*
X8862143Y-14735238D01*
X8871667Y-14687619D01*
X8881190Y-14659048D01*
X8890714Y-14640000D01*
X8909762Y-14611428D01*
X8919286Y-14601905D01*
X8995476Y-14697143D02*
X8995476Y-14830476D01*
X8995476Y-14716190D02*
X9005000Y-14706667D01*
X9024048Y-14697143D01*
X9052619Y-14697143D01*
X9071667Y-14706667D01*
X9081190Y-14725714D01*
X9081190Y-14830476D01*
X9205000Y-14830476D02*
X9185952Y-14820952D01*
X9176429Y-14811428D01*
X9166905Y-14792381D01*
X9166905Y-14735238D01*
X9176429Y-14716190D01*
X9185952Y-14706667D01*
X9205000Y-14697143D01*
X9233571Y-14697143D01*
X9252619Y-14706667D01*
X9262143Y-14716190D01*
X9271667Y-14735238D01*
X9271667Y-14792381D01*
X9262143Y-14811428D01*
X9252619Y-14820952D01*
X9233571Y-14830476D01*
X9205000Y-14830476D01*
X9328810Y-14697143D02*
X9405000Y-14697143D01*
X9357381Y-14630476D02*
X9357381Y-14801905D01*
X9366905Y-14820952D01*
X9385952Y-14830476D01*
X9405000Y-14830476D01*
X9624048Y-14697143D02*
X9624048Y-14897143D01*
X9624048Y-14706667D02*
X9643095Y-14697143D01*
X9681190Y-14697143D01*
X9700238Y-14706667D01*
X9709762Y-14716190D01*
X9719286Y-14735238D01*
X9719286Y-14792381D01*
X9709762Y-14811428D01*
X9700238Y-14820952D01*
X9681190Y-14830476D01*
X9643095Y-14830476D01*
X9624048Y-14820952D01*
X9833571Y-14830476D02*
X9814524Y-14820952D01*
X9805000Y-14801905D01*
X9805000Y-14630476D01*
X9995476Y-14830476D02*
X9995476Y-14725714D01*
X9985952Y-14706667D01*
X9966905Y-14697143D01*
X9928810Y-14697143D01*
X9909762Y-14706667D01*
X9995476Y-14820952D02*
X9976429Y-14830476D01*
X9928810Y-14830476D01*
X9909762Y-14820952D01*
X9900238Y-14801905D01*
X9900238Y-14782857D01*
X9909762Y-14763809D01*
X9928810Y-14754286D01*
X9976429Y-14754286D01*
X9995476Y-14744762D01*
X10062143Y-14697143D02*
X10138333Y-14697143D01*
X10090714Y-14630476D02*
X10090714Y-14801905D01*
X10100238Y-14820952D01*
X10119286Y-14830476D01*
X10138333Y-14830476D01*
X10281190Y-14820952D02*
X10262143Y-14830476D01*
X10224048Y-14830476D01*
X10205000Y-14820952D01*
X10195476Y-14801905D01*
X10195476Y-14725714D01*
X10205000Y-14706667D01*
X10224048Y-14697143D01*
X10262143Y-14697143D01*
X10281190Y-14706667D01*
X10290714Y-14725714D01*
X10290714Y-14744762D01*
X10195476Y-14763809D01*
X10462143Y-14830476D02*
X10462143Y-14630476D01*
X10462143Y-14820952D02*
X10443095Y-14830476D01*
X10405000Y-14830476D01*
X10385952Y-14820952D01*
X10376429Y-14811428D01*
X10366905Y-14792381D01*
X10366905Y-14735238D01*
X10376429Y-14716190D01*
X10385952Y-14706667D01*
X10405000Y-14697143D01*
X10443095Y-14697143D01*
X10462143Y-14706667D01*
X10538333Y-14906667D02*
X10547857Y-14897143D01*
X10566905Y-14868571D01*
X10576429Y-14849524D01*
X10585952Y-14820952D01*
X10595476Y-14773333D01*
X10595476Y-14735238D01*
X10585952Y-14687619D01*
X10576429Y-14659048D01*
X10566905Y-14640000D01*
X10547857Y-14611428D01*
X10538333Y-14601905D01*
X3495000Y-14960000D02*
X3495000Y-15160000D01*
X3395000Y-15060000D02*
X3595000Y-15060000D01*
X3833571Y-14950476D02*
X3957381Y-14950476D01*
X3890714Y-15026667D01*
X3919286Y-15026667D01*
X3938333Y-15036190D01*
X3947857Y-15045714D01*
X3957381Y-15064762D01*
X3957381Y-15112381D01*
X3947857Y-15131428D01*
X3938333Y-15140952D01*
X3919286Y-15150476D01*
X3862143Y-15150476D01*
X3843095Y-15140952D01*
X3833571Y-15131428D01*
X4043095Y-15131428D02*
X4052619Y-15140952D01*
X4043095Y-15150476D01*
X4033571Y-15140952D01*
X4043095Y-15131428D01*
X4043095Y-15150476D01*
X4128809Y-14969524D02*
X4138333Y-14960000D01*
X4157381Y-14950476D01*
X4205000Y-14950476D01*
X4224048Y-14960000D01*
X4233571Y-14969524D01*
X4243095Y-14988571D01*
X4243095Y-15007619D01*
X4233571Y-15036190D01*
X4119286Y-15150476D01*
X4243095Y-15150476D01*
X4366905Y-14950476D02*
X4385952Y-14950476D01*
X4405000Y-14960000D01*
X4414524Y-14969524D01*
X4424048Y-14988571D01*
X4433571Y-15026667D01*
X4433571Y-15074286D01*
X4424048Y-15112381D01*
X4414524Y-15131428D01*
X4405000Y-15140952D01*
X4385952Y-15150476D01*
X4366905Y-15150476D01*
X4347857Y-15140952D01*
X4338333Y-15131428D01*
X4328810Y-15112381D01*
X4319286Y-15074286D01*
X4319286Y-15026667D01*
X4328810Y-14988571D01*
X4338333Y-14969524D01*
X4347857Y-14960000D01*
X4366905Y-14950476D01*
X4557381Y-14950476D02*
X4576429Y-14950476D01*
X4595476Y-14960000D01*
X4605000Y-14969524D01*
X4614524Y-14988571D01*
X4624048Y-15026667D01*
X4624048Y-15074286D01*
X4614524Y-15112381D01*
X4605000Y-15131428D01*
X4595476Y-15140952D01*
X4576429Y-15150476D01*
X4557381Y-15150476D01*
X4538333Y-15140952D01*
X4528810Y-15131428D01*
X4519286Y-15112381D01*
X4509762Y-15074286D01*
X4509762Y-15026667D01*
X4519286Y-14988571D01*
X4528810Y-14969524D01*
X4538333Y-14960000D01*
X4557381Y-14950476D01*
X4709762Y-15150476D02*
X4709762Y-15017143D01*
X4709762Y-15036190D02*
X4719286Y-15026667D01*
X4738333Y-15017143D01*
X4766905Y-15017143D01*
X4785952Y-15026667D01*
X4795476Y-15045714D01*
X4795476Y-15150476D01*
X4795476Y-15045714D02*
X4805000Y-15026667D01*
X4824048Y-15017143D01*
X4852619Y-15017143D01*
X4871667Y-15026667D01*
X4881190Y-15045714D01*
X4881190Y-15150476D01*
X4976429Y-15150476D02*
X4976429Y-15017143D01*
X4976429Y-15036190D02*
X4985952Y-15026667D01*
X5005000Y-15017143D01*
X5033571Y-15017143D01*
X5052619Y-15026667D01*
X5062143Y-15045714D01*
X5062143Y-15150476D01*
X5062143Y-15045714D02*
X5071667Y-15026667D01*
X5090714Y-15017143D01*
X5119286Y-15017143D01*
X5138333Y-15026667D01*
X5147857Y-15045714D01*
X5147857Y-15150476D01*
X5538333Y-14940952D02*
X5366905Y-15198095D01*
X5795476Y-14950476D02*
X5814524Y-14950476D01*
X5833571Y-14960000D01*
X5843095Y-14969524D01*
X5852619Y-14988571D01*
X5862143Y-15026667D01*
X5862143Y-15074286D01*
X5852619Y-15112381D01*
X5843095Y-15131428D01*
X5833571Y-15140952D01*
X5814524Y-15150476D01*
X5795476Y-15150476D01*
X5776428Y-15140952D01*
X5766905Y-15131428D01*
X5757381Y-15112381D01*
X5747857Y-15074286D01*
X5747857Y-15026667D01*
X5757381Y-14988571D01*
X5766905Y-14969524D01*
X5776428Y-14960000D01*
X5795476Y-14950476D01*
X5947857Y-15131428D02*
X5957381Y-15140952D01*
X5947857Y-15150476D01*
X5938333Y-15140952D01*
X5947857Y-15131428D01*
X5947857Y-15150476D01*
X6147857Y-15150476D02*
X6033571Y-15150476D01*
X6090714Y-15150476D02*
X6090714Y-14950476D01*
X6071667Y-14979048D01*
X6052619Y-14998095D01*
X6033571Y-15007619D01*
X6224048Y-14969524D02*
X6233571Y-14960000D01*
X6252619Y-14950476D01*
X6300238Y-14950476D01*
X6319286Y-14960000D01*
X6328809Y-14969524D01*
X6338333Y-14988571D01*
X6338333Y-15007619D01*
X6328809Y-15036190D01*
X6214524Y-15150476D01*
X6338333Y-15150476D01*
X6509762Y-14950476D02*
X6471667Y-14950476D01*
X6452619Y-14960000D01*
X6443095Y-14969524D01*
X6424048Y-14998095D01*
X6414524Y-15036190D01*
X6414524Y-15112381D01*
X6424048Y-15131428D01*
X6433571Y-15140952D01*
X6452619Y-15150476D01*
X6490714Y-15150476D01*
X6509762Y-15140952D01*
X6519286Y-15131428D01*
X6528809Y-15112381D01*
X6528809Y-15064762D01*
X6519286Y-15045714D01*
X6509762Y-15036190D01*
X6490714Y-15026667D01*
X6452619Y-15026667D01*
X6433571Y-15036190D01*
X6424048Y-15045714D01*
X6414524Y-15064762D01*
X6652619Y-14950476D02*
X6671667Y-14950476D01*
X6690714Y-14960000D01*
X6700238Y-14969524D01*
X6709762Y-14988571D01*
X6719286Y-15026667D01*
X6719286Y-15074286D01*
X6709762Y-15112381D01*
X6700238Y-15131428D01*
X6690714Y-15140952D01*
X6671667Y-15150476D01*
X6652619Y-15150476D01*
X6633571Y-15140952D01*
X6624048Y-15131428D01*
X6614524Y-15112381D01*
X6605000Y-15074286D01*
X6605000Y-15026667D01*
X6614524Y-14988571D01*
X6624048Y-14969524D01*
X6633571Y-14960000D01*
X6652619Y-14950476D01*
X6795476Y-14950476D02*
X6795476Y-14988571D01*
X6871667Y-14950476D02*
X6871667Y-14988571D01*
X7166905Y-15226667D02*
X7157381Y-15217143D01*
X7138333Y-15188571D01*
X7128809Y-15169524D01*
X7119286Y-15140952D01*
X7109762Y-15093333D01*
X7109762Y-15055238D01*
X7119286Y-15007619D01*
X7128809Y-14979048D01*
X7138333Y-14960000D01*
X7157381Y-14931428D01*
X7166905Y-14921905D01*
X7328809Y-15017143D02*
X7328809Y-15150476D01*
X7281190Y-14940952D02*
X7233571Y-15083809D01*
X7357381Y-15083809D01*
X7585952Y-15150476D02*
X7585952Y-14950476D01*
X7671667Y-15150476D02*
X7671667Y-15045714D01*
X7662143Y-15026667D01*
X7643095Y-15017143D01*
X7614524Y-15017143D01*
X7595476Y-15026667D01*
X7585952Y-15036190D01*
X7795476Y-15150476D02*
X7776428Y-15140952D01*
X7766905Y-15131428D01*
X7757381Y-15112381D01*
X7757381Y-15055238D01*
X7766905Y-15036190D01*
X7776428Y-15026667D01*
X7795476Y-15017143D01*
X7824048Y-15017143D01*
X7843095Y-15026667D01*
X7852619Y-15036190D01*
X7862143Y-15055238D01*
X7862143Y-15112381D01*
X7852619Y-15131428D01*
X7843095Y-15140952D01*
X7824048Y-15150476D01*
X7795476Y-15150476D01*
X7976428Y-15150476D02*
X7957381Y-15140952D01*
X7947857Y-15121905D01*
X7947857Y-14950476D01*
X8128809Y-15140952D02*
X8109762Y-15150476D01*
X8071667Y-15150476D01*
X8052619Y-15140952D01*
X8043095Y-15121905D01*
X8043095Y-15045714D01*
X8052619Y-15026667D01*
X8071667Y-15017143D01*
X8109762Y-15017143D01*
X8128809Y-15026667D01*
X8138333Y-15045714D01*
X8138333Y-15064762D01*
X8043095Y-15083809D01*
X8214524Y-15140952D02*
X8233571Y-15150476D01*
X8271667Y-15150476D01*
X8290714Y-15140952D01*
X8300238Y-15121905D01*
X8300238Y-15112381D01*
X8290714Y-15093333D01*
X8271667Y-15083809D01*
X8243095Y-15083809D01*
X8224048Y-15074286D01*
X8214524Y-15055238D01*
X8214524Y-15045714D01*
X8224048Y-15026667D01*
X8243095Y-15017143D01*
X8271667Y-15017143D01*
X8290714Y-15026667D01*
X8366905Y-15226667D02*
X8376428Y-15217143D01*
X8395476Y-15188571D01*
X8405000Y-15169524D01*
X8414524Y-15140952D01*
X8424048Y-15093333D01*
X8424048Y-15055238D01*
X8414524Y-15007619D01*
X8405000Y-14979048D01*
X8395476Y-14960000D01*
X8376428Y-14931428D01*
X8366905Y-14921905D01*
X8728810Y-15226667D02*
X8719286Y-15217143D01*
X8700238Y-15188571D01*
X8690714Y-15169524D01*
X8681190Y-15140952D01*
X8671667Y-15093333D01*
X8671667Y-15055238D01*
X8681190Y-15007619D01*
X8690714Y-14979048D01*
X8700238Y-14960000D01*
X8719286Y-14931428D01*
X8728810Y-14921905D01*
X8805000Y-15017143D02*
X8805000Y-15150476D01*
X8805000Y-15036190D02*
X8814524Y-15026667D01*
X8833571Y-15017143D01*
X8862143Y-15017143D01*
X8881190Y-15026667D01*
X8890714Y-15045714D01*
X8890714Y-15150476D01*
X9014524Y-15150476D02*
X8995476Y-15140952D01*
X8985952Y-15131428D01*
X8976429Y-15112381D01*
X8976429Y-15055238D01*
X8985952Y-15036190D01*
X8995476Y-15026667D01*
X9014524Y-15017143D01*
X9043095Y-15017143D01*
X9062143Y-15026667D01*
X9071667Y-15036190D01*
X9081190Y-15055238D01*
X9081190Y-15112381D01*
X9071667Y-15131428D01*
X9062143Y-15140952D01*
X9043095Y-15150476D01*
X9014524Y-15150476D01*
X9138333Y-15017143D02*
X9214524Y-15017143D01*
X9166905Y-14950476D02*
X9166905Y-15121905D01*
X9176429Y-15140952D01*
X9195476Y-15150476D01*
X9214524Y-15150476D01*
X9433571Y-15017143D02*
X9433571Y-15217143D01*
X9433571Y-15026667D02*
X9452619Y-15017143D01*
X9490714Y-15017143D01*
X9509762Y-15026667D01*
X9519286Y-15036190D01*
X9528810Y-15055238D01*
X9528810Y-15112381D01*
X9519286Y-15131428D01*
X9509762Y-15140952D01*
X9490714Y-15150476D01*
X9452619Y-15150476D01*
X9433571Y-15140952D01*
X9643095Y-15150476D02*
X9624048Y-15140952D01*
X9614524Y-15121905D01*
X9614524Y-14950476D01*
X9805000Y-15150476D02*
X9805000Y-15045714D01*
X9795476Y-15026667D01*
X9776429Y-15017143D01*
X9738333Y-15017143D01*
X9719286Y-15026667D01*
X9805000Y-15140952D02*
X9785952Y-15150476D01*
X9738333Y-15150476D01*
X9719286Y-15140952D01*
X9709762Y-15121905D01*
X9709762Y-15102857D01*
X9719286Y-15083809D01*
X9738333Y-15074286D01*
X9785952Y-15074286D01*
X9805000Y-15064762D01*
X9871667Y-15017143D02*
X9947857Y-15017143D01*
X9900238Y-14950476D02*
X9900238Y-15121905D01*
X9909762Y-15140952D01*
X9928810Y-15150476D01*
X9947857Y-15150476D01*
X10090714Y-15140952D02*
X10071667Y-15150476D01*
X10033571Y-15150476D01*
X10014524Y-15140952D01*
X10005000Y-15121905D01*
X10005000Y-15045714D01*
X10014524Y-15026667D01*
X10033571Y-15017143D01*
X10071667Y-15017143D01*
X10090714Y-15026667D01*
X10100238Y-15045714D01*
X10100238Y-15064762D01*
X10005000Y-15083809D01*
X10271667Y-15150476D02*
X10271667Y-14950476D01*
X10271667Y-15140952D02*
X10252619Y-15150476D01*
X10214524Y-15150476D01*
X10195476Y-15140952D01*
X10185952Y-15131428D01*
X10176429Y-15112381D01*
X10176429Y-15055238D01*
X10185952Y-15036190D01*
X10195476Y-15026667D01*
X10214524Y-15017143D01*
X10252619Y-15017143D01*
X10271667Y-15026667D01*
X10347857Y-15226667D02*
X10357381Y-15217143D01*
X10376429Y-15188571D01*
X10385952Y-15169524D01*
X10395476Y-15140952D01*
X10405000Y-15093333D01*
X10405000Y-15055238D01*
X10395476Y-15007619D01*
X10385952Y-14979048D01*
X10376429Y-14960000D01*
X10357381Y-14931428D01*
X10347857Y-14921905D01*
X3565711Y-15450711D02*
X3565711Y-15309289D01*
X3424289Y-15309289D01*
X3424289Y-15450711D01*
X3565711Y-15450711D01*
X3938333Y-15337143D02*
X3938333Y-15470476D01*
X3890714Y-15260952D02*
X3843095Y-15403809D01*
X3966905Y-15403809D01*
X4043095Y-15451428D02*
X4052619Y-15460952D01*
X4043095Y-15470476D01*
X4033571Y-15460952D01*
X4043095Y-15451428D01*
X4043095Y-15470476D01*
X4176428Y-15270476D02*
X4195476Y-15270476D01*
X4214524Y-15280000D01*
X4224048Y-15289524D01*
X4233571Y-15308571D01*
X4243095Y-15346667D01*
X4243095Y-15394286D01*
X4233571Y-15432381D01*
X4224048Y-15451428D01*
X4214524Y-15460952D01*
X4195476Y-15470476D01*
X4176428Y-15470476D01*
X4157381Y-15460952D01*
X4147857Y-15451428D01*
X4138333Y-15432381D01*
X4128809Y-15394286D01*
X4128809Y-15346667D01*
X4138333Y-15308571D01*
X4147857Y-15289524D01*
X4157381Y-15280000D01*
X4176428Y-15270476D01*
X4366905Y-15270476D02*
X4385952Y-15270476D01*
X4405000Y-15280000D01*
X4414524Y-15289524D01*
X4424048Y-15308571D01*
X4433571Y-15346667D01*
X4433571Y-15394286D01*
X4424048Y-15432381D01*
X4414524Y-15451428D01*
X4405000Y-15460952D01*
X4385952Y-15470476D01*
X4366905Y-15470476D01*
X4347857Y-15460952D01*
X4338333Y-15451428D01*
X4328810Y-15432381D01*
X4319286Y-15394286D01*
X4319286Y-15346667D01*
X4328810Y-15308571D01*
X4338333Y-15289524D01*
X4347857Y-15280000D01*
X4366905Y-15270476D01*
X4557381Y-15270476D02*
X4576429Y-15270476D01*
X4595476Y-15280000D01*
X4605000Y-15289524D01*
X4614524Y-15308571D01*
X4624048Y-15346667D01*
X4624048Y-15394286D01*
X4614524Y-15432381D01*
X4605000Y-15451428D01*
X4595476Y-15460952D01*
X4576429Y-15470476D01*
X4557381Y-15470476D01*
X4538333Y-15460952D01*
X4528810Y-15451428D01*
X4519286Y-15432381D01*
X4509762Y-15394286D01*
X4509762Y-15346667D01*
X4519286Y-15308571D01*
X4528810Y-15289524D01*
X4538333Y-15280000D01*
X4557381Y-15270476D01*
X4709762Y-15470476D02*
X4709762Y-15337143D01*
X4709762Y-15356190D02*
X4719286Y-15346667D01*
X4738333Y-15337143D01*
X4766905Y-15337143D01*
X4785952Y-15346667D01*
X4795476Y-15365714D01*
X4795476Y-15470476D01*
X4795476Y-15365714D02*
X4805000Y-15346667D01*
X4824048Y-15337143D01*
X4852619Y-15337143D01*
X4871667Y-15346667D01*
X4881190Y-15365714D01*
X4881190Y-15470476D01*
X4976429Y-15470476D02*
X4976429Y-15337143D01*
X4976429Y-15356190D02*
X4985952Y-15346667D01*
X5005000Y-15337143D01*
X5033571Y-15337143D01*
X5052619Y-15346667D01*
X5062143Y-15365714D01*
X5062143Y-15470476D01*
X5062143Y-15365714D02*
X5071667Y-15346667D01*
X5090714Y-15337143D01*
X5119286Y-15337143D01*
X5138333Y-15346667D01*
X5147857Y-15365714D01*
X5147857Y-15470476D01*
X5538333Y-15260952D02*
X5366905Y-15518095D01*
X5795476Y-15270476D02*
X5814524Y-15270476D01*
X5833571Y-15280000D01*
X5843095Y-15289524D01*
X5852619Y-15308571D01*
X5862143Y-15346667D01*
X5862143Y-15394286D01*
X5852619Y-15432381D01*
X5843095Y-15451428D01*
X5833571Y-15460952D01*
X5814524Y-15470476D01*
X5795476Y-15470476D01*
X5776428Y-15460952D01*
X5766905Y-15451428D01*
X5757381Y-15432381D01*
X5747857Y-15394286D01*
X5747857Y-15346667D01*
X5757381Y-15308571D01*
X5766905Y-15289524D01*
X5776428Y-15280000D01*
X5795476Y-15270476D01*
X5947857Y-15451428D02*
X5957381Y-15460952D01*
X5947857Y-15470476D01*
X5938333Y-15460952D01*
X5947857Y-15451428D01*
X5947857Y-15470476D01*
X6147857Y-15470476D02*
X6033571Y-15470476D01*
X6090714Y-15470476D02*
X6090714Y-15270476D01*
X6071667Y-15299048D01*
X6052619Y-15318095D01*
X6033571Y-15327619D01*
X6328809Y-15270476D02*
X6233571Y-15270476D01*
X6224048Y-15365714D01*
X6233571Y-15356190D01*
X6252619Y-15346667D01*
X6300238Y-15346667D01*
X6319286Y-15356190D01*
X6328809Y-15365714D01*
X6338333Y-15384762D01*
X6338333Y-15432381D01*
X6328809Y-15451428D01*
X6319286Y-15460952D01*
X6300238Y-15470476D01*
X6252619Y-15470476D01*
X6233571Y-15460952D01*
X6224048Y-15451428D01*
X6405000Y-15270476D02*
X6538333Y-15270476D01*
X6452619Y-15470476D01*
X6709762Y-15270476D02*
X6614524Y-15270476D01*
X6605000Y-15365714D01*
X6614524Y-15356190D01*
X6633571Y-15346667D01*
X6681190Y-15346667D01*
X6700238Y-15356190D01*
X6709762Y-15365714D01*
X6719286Y-15384762D01*
X6719286Y-15432381D01*
X6709762Y-15451428D01*
X6700238Y-15460952D01*
X6681190Y-15470476D01*
X6633571Y-15470476D01*
X6614524Y-15460952D01*
X6605000Y-15451428D01*
X6795476Y-15270476D02*
X6795476Y-15308571D01*
X6871667Y-15270476D02*
X6871667Y-15308571D01*
X7166905Y-15546667D02*
X7157381Y-15537143D01*
X7138333Y-15508571D01*
X7128809Y-15489524D01*
X7119286Y-15460952D01*
X7109762Y-15413333D01*
X7109762Y-15375238D01*
X7119286Y-15327619D01*
X7128809Y-15299048D01*
X7138333Y-15280000D01*
X7157381Y-15251428D01*
X7166905Y-15241905D01*
X7233571Y-15289524D02*
X7243095Y-15280000D01*
X7262143Y-15270476D01*
X7309762Y-15270476D01*
X7328809Y-15280000D01*
X7338333Y-15289524D01*
X7347857Y-15308571D01*
X7347857Y-15327619D01*
X7338333Y-15356190D01*
X7224048Y-15470476D01*
X7347857Y-15470476D01*
X7528809Y-15270476D02*
X7433571Y-15270476D01*
X7424048Y-15365714D01*
X7433571Y-15356190D01*
X7452619Y-15346667D01*
X7500238Y-15346667D01*
X7519286Y-15356190D01*
X7528809Y-15365714D01*
X7538333Y-15384762D01*
X7538333Y-15432381D01*
X7528809Y-15451428D01*
X7519286Y-15460952D01*
X7500238Y-15470476D01*
X7452619Y-15470476D01*
X7433571Y-15460952D01*
X7424048Y-15451428D01*
X7776428Y-15470476D02*
X7776428Y-15270476D01*
X7862143Y-15470476D02*
X7862143Y-15365714D01*
X7852619Y-15346667D01*
X7833571Y-15337143D01*
X7805000Y-15337143D01*
X7785952Y-15346667D01*
X7776428Y-15356190D01*
X7985952Y-15470476D02*
X7966905Y-15460952D01*
X7957381Y-15451428D01*
X7947857Y-15432381D01*
X7947857Y-15375238D01*
X7957381Y-15356190D01*
X7966905Y-15346667D01*
X7985952Y-15337143D01*
X8014524Y-15337143D01*
X8033571Y-15346667D01*
X8043095Y-15356190D01*
X8052619Y-15375238D01*
X8052619Y-15432381D01*
X8043095Y-15451428D01*
X8033571Y-15460952D01*
X8014524Y-15470476D01*
X7985952Y-15470476D01*
X8166905Y-15470476D02*
X8147857Y-15460952D01*
X8138333Y-15441905D01*
X8138333Y-15270476D01*
X8319286Y-15460952D02*
X8300238Y-15470476D01*
X8262143Y-15470476D01*
X8243095Y-15460952D01*
X8233571Y-15441905D01*
X8233571Y-15365714D01*
X8243095Y-15346667D01*
X8262143Y-15337143D01*
X8300238Y-15337143D01*
X8319286Y-15346667D01*
X8328809Y-15365714D01*
X8328809Y-15384762D01*
X8233571Y-15403809D01*
X8405000Y-15460952D02*
X8424048Y-15470476D01*
X8462143Y-15470476D01*
X8481190Y-15460952D01*
X8490714Y-15441905D01*
X8490714Y-15432381D01*
X8481190Y-15413333D01*
X8462143Y-15403809D01*
X8433571Y-15403809D01*
X8414524Y-15394286D01*
X8405000Y-15375238D01*
X8405000Y-15365714D01*
X8414524Y-15346667D01*
X8433571Y-15337143D01*
X8462143Y-15337143D01*
X8481190Y-15346667D01*
X8557381Y-15546667D02*
X8566905Y-15537143D01*
X8585952Y-15508571D01*
X8595476Y-15489524D01*
X8605000Y-15460952D01*
X8614524Y-15413333D01*
X8614524Y-15375238D01*
X8605000Y-15327619D01*
X8595476Y-15299048D01*
X8585952Y-15280000D01*
X8566905Y-15251428D01*
X8557381Y-15241905D01*
X8919286Y-15546667D02*
X8909762Y-15537143D01*
X8890714Y-15508571D01*
X8881190Y-15489524D01*
X8871667Y-15460952D01*
X8862143Y-15413333D01*
X8862143Y-15375238D01*
X8871667Y-15327619D01*
X8881190Y-15299048D01*
X8890714Y-15280000D01*
X8909762Y-15251428D01*
X8919286Y-15241905D01*
X8995476Y-15337143D02*
X8995476Y-15470476D01*
X8995476Y-15356190D02*
X9005000Y-15346667D01*
X9024048Y-15337143D01*
X9052619Y-15337143D01*
X9071667Y-15346667D01*
X9081190Y-15365714D01*
X9081190Y-15470476D01*
X9205000Y-15470476D02*
X9185952Y-15460952D01*
X9176429Y-15451428D01*
X9166905Y-15432381D01*
X9166905Y-15375238D01*
X9176429Y-15356190D01*
X9185952Y-15346667D01*
X9205000Y-15337143D01*
X9233571Y-15337143D01*
X9252619Y-15346667D01*
X9262143Y-15356190D01*
X9271667Y-15375238D01*
X9271667Y-15432381D01*
X9262143Y-15451428D01*
X9252619Y-15460952D01*
X9233571Y-15470476D01*
X9205000Y-15470476D01*
X9328810Y-15337143D02*
X9405000Y-15337143D01*
X9357381Y-15270476D02*
X9357381Y-15441905D01*
X9366905Y-15460952D01*
X9385952Y-15470476D01*
X9405000Y-15470476D01*
X9624048Y-15337143D02*
X9624048Y-15537143D01*
X9624048Y-15346667D02*
X9643095Y-15337143D01*
X9681190Y-15337143D01*
X9700238Y-15346667D01*
X9709762Y-15356190D01*
X9719286Y-15375238D01*
X9719286Y-15432381D01*
X9709762Y-15451428D01*
X9700238Y-15460952D01*
X9681190Y-15470476D01*
X9643095Y-15470476D01*
X9624048Y-15460952D01*
X9833571Y-15470476D02*
X9814524Y-15460952D01*
X9805000Y-15441905D01*
X9805000Y-15270476D01*
X9995476Y-15470476D02*
X9995476Y-15365714D01*
X9985952Y-15346667D01*
X9966905Y-15337143D01*
X9928810Y-15337143D01*
X9909762Y-15346667D01*
X9995476Y-15460952D02*
X9976429Y-15470476D01*
X9928810Y-15470476D01*
X9909762Y-15460952D01*
X9900238Y-15441905D01*
X9900238Y-15422857D01*
X9909762Y-15403809D01*
X9928810Y-15394286D01*
X9976429Y-15394286D01*
X9995476Y-15384762D01*
X10062143Y-15337143D02*
X10138333Y-15337143D01*
X10090714Y-15270476D02*
X10090714Y-15441905D01*
X10100238Y-15460952D01*
X10119286Y-15470476D01*
X10138333Y-15470476D01*
X10281190Y-15460952D02*
X10262143Y-15470476D01*
X10224048Y-15470476D01*
X10205000Y-15460952D01*
X10195476Y-15441905D01*
X10195476Y-15365714D01*
X10205000Y-15346667D01*
X10224048Y-15337143D01*
X10262143Y-15337143D01*
X10281190Y-15346667D01*
X10290714Y-15365714D01*
X10290714Y-15384762D01*
X10195476Y-15403809D01*
X10462143Y-15470476D02*
X10462143Y-15270476D01*
X10462143Y-15460952D02*
X10443095Y-15470476D01*
X10405000Y-15470476D01*
X10385952Y-15460952D01*
X10376429Y-15451428D01*
X10366905Y-15432381D01*
X10366905Y-15375238D01*
X10376429Y-15356190D01*
X10385952Y-15346667D01*
X10405000Y-15337143D01*
X10443095Y-15337143D01*
X10462143Y-15346667D01*
X10538333Y-15546667D02*
X10547857Y-15537143D01*
X10566905Y-15508571D01*
X10576429Y-15489524D01*
X10585952Y-15460952D01*
X10595476Y-15413333D01*
X10595476Y-15375238D01*
X10585952Y-15327619D01*
X10576429Y-15299048D01*
X10566905Y-15280000D01*
X10547857Y-15251428D01*
X10538333Y-15241905D01*
M02*
