M48
; DRILL file {KiCad (6.0.5)} date Sun 26 Jun 2022 09:28:53 PM CEST
; FORMAT={-:-/ absolute / metric / decimal}
; #@! TF.CreationDate,2022-06-26T21:28:53+02:00
; #@! TF.GenerationSoftware,Kicad,Pcbnew,(6.0.5)
; #@! TF.FileFunction,Plated,1,4,PTH
FMAT,2
METRIC
; #@! TA.AperFunction,Plated,PTH,ViaDrill
T1C0.300
; #@! TA.AperFunction,Plated,PTH,ViaDrill
T2C0.400
; #@! TA.AperFunction,Plated,PTH,ComponentDrill
T3C0.650
; #@! TA.AperFunction,Plated,PTH,ComponentDrill
T4C0.800
; #@! TA.AperFunction,Plated,PTH,ComponentDrill
T5C1.000
%
G90
G05
T1
X189.774Y-46.0
X189.774Y-48.0
T2
X152.0Y-71.25
X153.5Y-103.75
X156.25Y-102.75
X157.75Y-110.5
X158.75Y-67.0
X159.75Y-70.0
X167.75Y-55.5
X168.75Y-119.0
X171.75Y-118.25
X173.0Y-125.75
X174.25Y-51.5
X175.5Y-54.5
X183.0Y-102.25
X184.25Y-89.25
X184.25Y-90.75
X184.25Y-92.0
X185.0Y-81.25
X185.0Y-87.25
X186.75Y-98.0
X187.525Y-46.25
X188.25Y-87.25
X188.25Y-92.75
X189.0Y-83.25
X190.0Y-54.25
X190.043Y-49.258
X192.0Y-95.75
X192.0Y-106.0
X192.5Y-46.25
X193.25Y-92.25
X193.75Y-87.25
X193.983Y-97.264
X194.0Y-49.5
X194.996Y-97.25
X196.023Y-97.25
X197.0Y-88.75
X197.236Y-93.014
X197.25Y-91.0
X197.25Y-92.0
X197.94Y-89.429
X198.0Y-75.0
X198.582Y-90.196
X198.75Y-77.25
X200.0Y-78.75
X201.0Y-63.75
X201.0Y-75.0
X201.75Y-59.75
X203.25Y-61.5
X204.0Y-63.75
X204.75Y-121.75
X205.75Y-124.5
X206.75Y-50.25
X207.0Y-83.75
X208.25Y-57.75
X211.25Y-57.0
X220.0Y-106.25
X222.25Y-65.5
X223.75Y-73.25
X226.75Y-72.5
X228.0Y-104.75
T4
X189.55Y-101.0
X194.43Y-101.0
T5
X142.0Y-66.46
X142.0Y-69.0
X142.0Y-71.54
X142.0Y-104.46
X142.0Y-107.0
X142.0Y-109.54
X168.475Y-39.975
X168.475Y-135.975
X171.015Y-39.975
X171.015Y-135.975
X173.555Y-39.975
X173.555Y-135.975
X206.475Y-39.975
X206.475Y-135.975
X209.015Y-39.975
X209.015Y-135.975
X211.555Y-39.975
X211.555Y-135.975
X237.975Y-103.21
X237.975Y-105.75
X237.975Y-108.29
X237.975Y-110.83
X238.0Y-66.46
X238.0Y-69.0
X238.0Y-71.54
T3
X184.42Y-40.72G85X184.42Y-39.67
G05
X184.42Y-44.57G85X184.42Y-43.82
G05
X195.58Y-40.72G85X195.58Y-39.67
G05
X195.58Y-44.57G85X195.58Y-43.82
G05
T0
M30
