G04 #@! TF.GenerationSoftware,KiCad,Pcbnew,(6.0.5)*
G04 #@! TF.CreationDate,2022-06-26T21:28:57+02:00*
G04 #@! TF.ProjectId,5x5x2-part2,35783578-322d-4706-9172-74322e6b6963,rev?*
G04 #@! TF.SameCoordinates,Original*
G04 #@! TF.FileFunction,Paste,Bot*
G04 #@! TF.FilePolarity,Positive*
%FSLAX46Y46*%
G04 Gerber Fmt 4.6, Leading zero omitted, Abs format (unit mm)*
G04 Created by KiCad (PCBNEW (6.0.5)) date 2022-06-26 21:28:57*
%MOMM*%
%LPD*%
G01*
G04 APERTURE LIST*
G04 Aperture macros list*
%AMRoundRect*
0 Rectangle with rounded corners*
0 $1 Rounding radius*
0 $2 $3 $4 $5 $6 $7 $8 $9 X,Y pos of 4 corners*
0 Add a 4 corners polygon primitive as box body*
4,1,4,$2,$3,$4,$5,$6,$7,$8,$9,$2,$3,0*
0 Add four circle primitives for the rounded corners*
1,1,$1+$1,$2,$3*
1,1,$1+$1,$4,$5*
1,1,$1+$1,$6,$7*
1,1,$1+$1,$8,$9*
0 Add four rect primitives between the rounded corners*
20,1,$1+$1,$2,$3,$4,$5,0*
20,1,$1+$1,$4,$5,$6,$7,0*
20,1,$1+$1,$6,$7,$8,$9,0*
20,1,$1+$1,$8,$9,$2,$3,0*%
G04 Aperture macros list end*
G04 #@! TA.AperFunction,Profile*
%ADD10C,0.100000*%
G04 #@! TD*
%ADD11O,1.200000X2.000000*%
%ADD12O,1.200000X2.400000*%
%ADD13RoundRect,0.250000X-0.262500X-0.450000X0.262500X-0.450000X0.262500X0.450000X-0.262500X0.450000X0*%
%ADD14RoundRect,0.250000X0.250000X0.475000X-0.250000X0.475000X-0.250000X-0.475000X0.250000X-0.475000X0*%
%ADD15RoundRect,0.250000X-0.250000X-0.475000X0.250000X-0.475000X0.250000X0.475000X-0.250000X0.475000X0*%
%ADD16RoundRect,0.250000X-0.475000X0.250000X-0.475000X-0.250000X0.475000X-0.250000X0.475000X0.250000X0*%
%ADD17RoundRect,0.250000X-0.650000X0.325000X-0.650000X-0.325000X0.650000X-0.325000X0.650000X0.325000X0*%
%ADD18RoundRect,0.250000X0.475000X-0.250000X0.475000X0.250000X-0.475000X0.250000X-0.475000X-0.250000X0*%
%ADD19RoundRect,0.250000X0.325000X0.650000X-0.325000X0.650000X-0.325000X-0.650000X0.325000X-0.650000X0*%
G04 APERTURE END LIST*
D10*
X240000000Y-38000000D02*
X240000000Y-138000000D01*
X240000000Y-138000000D02*
X140000000Y-138000000D01*
X140000000Y-138000000D02*
X140000000Y-38000000D01*
X194500000Y-38000000D02*
X194500000Y-44300000D01*
X185500000Y-38000000D02*
X140000000Y-38000000D01*
X194500000Y-38000000D02*
X240000000Y-38000000D01*
X194500000Y-44300000D02*
X185500000Y-44300000D01*
X185500000Y-44300000D02*
X185500000Y-38000000D01*
D11*
X195580000Y-44195000D03*
X184420000Y-44195000D03*
D12*
X195580000Y-40195000D03*
X184420000Y-40195000D03*
D13*
X191175000Y-102500000D03*
X193000000Y-102500000D03*
D14*
X195450000Y-95750000D03*
X193550000Y-95750000D03*
D15*
X190300000Y-93000000D03*
X192200000Y-93000000D03*
D14*
X190950000Y-95750000D03*
X189050000Y-95750000D03*
D16*
X193750000Y-89050000D03*
X193750000Y-90950000D03*
D14*
X191200000Y-104500000D03*
X189300000Y-104500000D03*
D17*
X191000000Y-87275000D03*
X191000000Y-90225000D03*
D15*
X192800000Y-104500000D03*
X194700000Y-104500000D03*
D18*
X188250000Y-90950000D03*
X188250000Y-89050000D03*
D19*
X190975000Y-98000000D03*
X188025000Y-98000000D03*
M02*
