G04 #@! TF.GenerationSoftware,KiCad,Pcbnew,(6.0.5)*
G04 #@! TF.CreationDate,2022-06-26T21:29:14+02:00*
G04 #@! TF.ProjectId,5x5x2-part2,35783578-322d-4706-9172-74322e6b6963,rev?*
G04 #@! TF.SameCoordinates,Original*
G04 #@! TF.FileFunction,Soldermask,Top*
G04 #@! TF.FilePolarity,Negative*
%FSLAX46Y46*%
G04 Gerber Fmt 4.6, Leading zero omitted, Abs format (unit mm)*
G04 Created by KiCad (PCBNEW (6.0.5)) date 2022-06-26 21:29:14*
%MOMM*%
%LPD*%
G01*
G04 APERTURE LIST*
G04 Aperture macros list*
%AMRoundRect*
0 Rectangle with rounded corners*
0 $1 Rounding radius*
0 $2 $3 $4 $5 $6 $7 $8 $9 X,Y pos of 4 corners*
0 Add a 4 corners polygon primitive as box body*
4,1,4,$2,$3,$4,$5,$6,$7,$8,$9,$2,$3,0*
0 Add four circle primitives for the rounded corners*
1,1,$1+$1,$2,$3*
1,1,$1+$1,$4,$5*
1,1,$1+$1,$6,$7*
1,1,$1+$1,$8,$9*
0 Add four rect primitives between the rounded corners*
20,1,$1+$1,$2,$3,$4,$5,0*
20,1,$1+$1,$4,$5,$6,$7,0*
20,1,$1+$1,$6,$7,$8,$9,0*
20,1,$1+$1,$8,$9,$2,$3,0*%
G04 Aperture macros list end*
G04 #@! TA.AperFunction,Profile*
%ADD10C,0.100000*%
G04 #@! TD*
%ADD11RoundRect,0.219750X-0.424618X0.106066X0.106066X-0.424618X0.424618X-0.106066X-0.106066X0.424618X0*%
%ADD12RoundRect,0.232500X-0.512652X-0.212132X-0.212132X-0.512652X0.512652X0.212132X0.212132X0.512652X0*%
%ADD13RoundRect,0.225625X-0.354437X-0.026517X-0.026517X-0.354437X0.354437X0.026517X0.026517X0.354437X0*%
%ADD14RoundRect,0.020000X-0.866206X0.265165X0.265165X-0.866206X0.866206X-0.265165X-0.265165X0.866206X0*%
%ADD15RoundRect,0.219550X-0.283479X-0.106066X-0.106066X-0.283479X0.283479X0.106066X0.106066X0.283479X0*%
%ADD16RoundRect,0.220000X-0.707107X0.106066X0.106066X-0.707107X0.707107X-0.106066X-0.106066X0.707107X0*%
%ADD17RoundRect,0.250000X0.450000X-0.262500X0.450000X0.262500X-0.450000X0.262500X-0.450000X-0.262500X0*%
%ADD18RoundRect,0.250000X-0.250000X-0.475000X0.250000X-0.475000X0.250000X0.475000X-0.250000X0.475000X0*%
%ADD19RoundRect,0.250000X0.325000X0.650000X-0.325000X0.650000X-0.325000X-0.650000X0.325000X-0.650000X0*%
%ADD20RoundRect,0.232500X0.212132X-0.512652X0.512652X-0.212132X-0.212132X0.512652X-0.512652X0.212132X0*%
%ADD21RoundRect,0.219750X-0.106066X-0.424618X0.424618X0.106066X0.106066X0.424618X-0.424618X-0.106066X0*%
%ADD22RoundRect,0.020000X-0.265165X-0.866206X0.866206X0.265165X0.265165X0.866206X-0.866206X-0.265165X0*%
%ADD23RoundRect,0.225625X0.026517X-0.354437X0.354437X-0.026517X-0.026517X0.354437X-0.354437X0.026517X0*%
%ADD24RoundRect,0.219550X0.106066X-0.283479X0.283479X-0.106066X-0.106066X0.283479X-0.283479X0.106066X0*%
%ADD25RoundRect,0.220000X-0.106066X-0.707107X0.707107X0.106066X0.106066X0.707107X-0.707107X-0.106066X0*%
%ADD26RoundRect,0.250000X-0.159099X0.512652X-0.512652X0.159099X0.159099X-0.512652X0.512652X-0.159099X0*%
%ADD27RoundRect,0.250000X-0.512652X-0.159099X-0.159099X-0.512652X0.512652X0.159099X0.159099X0.512652X0*%
%ADD28C,1.500000*%
%ADD29RoundRect,0.250000X0.475000X-0.250000X0.475000X0.250000X-0.475000X0.250000X-0.475000X-0.250000X0*%
%ADD30C,3.200000*%
%ADD31R,1.700000X1.700000*%
%ADD32O,1.700000X1.700000*%
%ADD33R,2.180000X1.600000*%
%ADD34R,2.470000X0.980000*%
%ADD35R,2.470000X3.600000*%
%ADD36RoundRect,0.243750X0.243750X0.456250X-0.243750X0.456250X-0.243750X-0.456250X0.243750X-0.456250X0*%
%ADD37RoundRect,0.250000X0.132583X-0.503814X0.503814X-0.132583X-0.132583X0.503814X-0.503814X0.132583X0*%
%ADD38RoundRect,0.250000X0.159099X-0.512652X0.512652X-0.159099X-0.159099X0.512652X-0.512652X0.159099X0*%
%ADD39RoundRect,0.250000X0.250000X0.475000X-0.250000X0.475000X-0.250000X-0.475000X0.250000X-0.475000X0*%
%ADD40R,0.600000X1.300000*%
%ADD41R,0.300000X1.300000*%
%ADD42O,1.200000X2.000000*%
%ADD43O,1.200000X2.400000*%
%ADD44RoundRect,0.250000X-0.325000X-0.650000X0.325000X-0.650000X0.325000X0.650000X-0.325000X0.650000X0*%
%ADD45RoundRect,0.250000X0.262500X0.450000X-0.262500X0.450000X-0.262500X-0.450000X0.262500X-0.450000X0*%
%ADD46RoundRect,0.232500X0.512652X0.212132X0.212132X0.512652X-0.512652X-0.212132X-0.212132X-0.512652X0*%
%ADD47RoundRect,0.219750X0.424618X-0.106066X-0.106066X0.424618X-0.424618X0.106066X0.106066X-0.424618X0*%
%ADD48RoundRect,0.225625X0.354437X0.026517X0.026517X0.354437X-0.354437X-0.026517X-0.026517X-0.354437X0*%
%ADD49RoundRect,0.020000X0.866206X-0.265165X-0.265165X0.866206X-0.866206X0.265165X0.265165X-0.866206X0*%
%ADD50RoundRect,0.219550X0.283479X0.106066X0.106066X0.283479X-0.283479X-0.106066X-0.106066X-0.283479X0*%
%ADD51RoundRect,0.220000X0.707107X-0.106066X-0.106066X0.707107X-0.707107X0.106066X0.106066X-0.707107X0*%
%ADD52RoundRect,0.219750X0.106066X0.424618X-0.424618X-0.106066X-0.106066X-0.424618X0.424618X0.106066X0*%
%ADD53RoundRect,0.232500X-0.212132X0.512652X-0.512652X0.212132X0.212132X-0.512652X0.512652X-0.212132X0*%
%ADD54RoundRect,0.020000X0.265165X0.866206X-0.866206X-0.265165X-0.265165X-0.866206X0.866206X0.265165X0*%
%ADD55RoundRect,0.225625X-0.026517X0.354437X-0.354437X0.026517X0.026517X-0.354437X0.354437X-0.026517X0*%
%ADD56RoundRect,0.219550X-0.106066X0.283479X-0.283479X0.106066X0.106066X-0.283479X0.283479X-0.106066X0*%
%ADD57RoundRect,0.220000X0.106066X0.707107X-0.707107X-0.106066X-0.106066X-0.707107X0.707107X0.106066X0*%
%ADD58R,0.530000X1.070000*%
%ADD59O,0.270000X1.500000*%
%ADD60O,1.500000X0.270000*%
%ADD61RoundRect,0.250000X0.512652X0.159099X0.159099X0.512652X-0.512652X-0.159099X-0.159099X-0.512652X0*%
%ADD62RoundRect,0.250000X-0.450000X0.262500X-0.450000X-0.262500X0.450000X-0.262500X0.450000X0.262500X0*%
%ADD63RoundRect,0.250000X-0.262500X-0.450000X0.262500X-0.450000X0.262500X0.450000X-0.262500X0.450000X0*%
G04 APERTURE END LIST*
D10*
X240000000Y-38000000D02*
X240000000Y-138000000D01*
X240000000Y-138000000D02*
X140000000Y-138000000D01*
X140000000Y-138000000D02*
X140000000Y-38000000D01*
X194500000Y-38000000D02*
X194500000Y-44300000D01*
X185500000Y-38000000D02*
X140000000Y-38000000D01*
X194500000Y-38000000D02*
X240000000Y-38000000D01*
X194500000Y-44300000D02*
X185500000Y-44300000D01*
X185500000Y-44300000D02*
X185500000Y-38000000D01*
D11*
X154969670Y-105232233D03*
D12*
X155217157Y-105903984D03*
D11*
X153732233Y-106469670D03*
D13*
X154863604Y-107530330D03*
D14*
X154350951Y-107088388D03*
D15*
X155680312Y-108347038D03*
D11*
X156030330Y-108767767D03*
D16*
X156422774Y-106961109D03*
D11*
X157267767Y-107530330D03*
D17*
X181000000Y-105912500D03*
X181000000Y-104087500D03*
X191150000Y-81250000D03*
X191150000Y-79425000D03*
D18*
X200050000Y-77250000D03*
X201950000Y-77250000D03*
D19*
X202475000Y-63750000D03*
X199525000Y-63750000D03*
D20*
X207903984Y-122782843D03*
D21*
X207232233Y-123030330D03*
D22*
X209088388Y-123649049D03*
D23*
X209530330Y-123136396D03*
D21*
X208469670Y-124267767D03*
X210767767Y-121969670D03*
D24*
X210347038Y-122319688D03*
D25*
X208961109Y-121577226D03*
D21*
X209530330Y-120732233D03*
D26*
X158671751Y-71078249D03*
X157328249Y-72421751D03*
D27*
X172828249Y-119328249D03*
X174171751Y-120671751D03*
D28*
X189550000Y-101000000D03*
X194430000Y-101000000D03*
D29*
X185000000Y-105950000D03*
X185000000Y-104050000D03*
D17*
X197750000Y-41575000D03*
X197750000Y-39750000D03*
D30*
X236500000Y-41500000D03*
D31*
X206475000Y-39975000D03*
D32*
X209015000Y-39975000D03*
X211555000Y-39975000D03*
D33*
X196590000Y-105750000D03*
X187410000Y-105750000D03*
D34*
X201910000Y-71800000D03*
X201910000Y-69500000D03*
X201910000Y-67200000D03*
D35*
X196250000Y-69500000D03*
D36*
X238937500Y-86000000D03*
X237062500Y-86000000D03*
D37*
X219000000Y-111250000D03*
X220290470Y-109959530D03*
D30*
X236500000Y-134500000D03*
D31*
X168475000Y-39975000D03*
D32*
X171015000Y-39975000D03*
X173555000Y-39975000D03*
D38*
X221078249Y-105171751D03*
X222421751Y-103828249D03*
D39*
X201900000Y-61500000D03*
X200000000Y-61500000D03*
D40*
X193210000Y-45050000D03*
X192410000Y-45050000D03*
D41*
X191250000Y-45050000D03*
X190250000Y-45050000D03*
X189750000Y-45050000D03*
X188750000Y-45050000D03*
D40*
X187590000Y-45050000D03*
X186790000Y-45050000D03*
X186790000Y-45050000D03*
X187590000Y-45050000D03*
D41*
X188250000Y-45050000D03*
X189250000Y-45050000D03*
X190750000Y-45050000D03*
X191750000Y-45050000D03*
D40*
X192410000Y-45050000D03*
X193210000Y-45050000D03*
D42*
X195580000Y-44195000D03*
X184420000Y-44195000D03*
D43*
X195580000Y-40195000D03*
X184420000Y-40195000D03*
D27*
X157328249Y-103828249D03*
X158671751Y-105171751D03*
D44*
X199525000Y-75000000D03*
X202475000Y-75000000D03*
D45*
X238912500Y-96000000D03*
X237087500Y-96000000D03*
D31*
X142000000Y-104460000D03*
D32*
X142000000Y-107000000D03*
X142000000Y-109540000D03*
D17*
X230500000Y-110162500D03*
X230500000Y-108337500D03*
D46*
X224782843Y-70096016D03*
D47*
X225030330Y-70767767D03*
D48*
X225136396Y-68469670D03*
D49*
X225649049Y-68911612D03*
D47*
X226267767Y-69530330D03*
X223969670Y-67232233D03*
D50*
X224319688Y-67652962D03*
D51*
X223577226Y-69038891D03*
D47*
X222732233Y-68469670D03*
D17*
X230500000Y-105750000D03*
X230500000Y-103925000D03*
D52*
X157267767Y-68469670D03*
D53*
X156596016Y-68717157D03*
D54*
X155411612Y-67850951D03*
D55*
X154969670Y-68363604D03*
D52*
X156030330Y-67232233D03*
X153732233Y-69530330D03*
D56*
X154152962Y-69180312D03*
D52*
X154969670Y-70767767D03*
D57*
X155538891Y-69922774D03*
D47*
X209530330Y-55267767D03*
D46*
X209282843Y-54596016D03*
D48*
X209636396Y-52969670D03*
D49*
X210149049Y-53411612D03*
D47*
X210767767Y-54030330D03*
D50*
X208819688Y-52152962D03*
D47*
X208469670Y-51732233D03*
D51*
X208077226Y-53538891D03*
D47*
X207232233Y-52969670D03*
D31*
X142000000Y-66460000D03*
D32*
X142000000Y-69000000D03*
X142000000Y-71540000D03*
D30*
X143500000Y-134500000D03*
D36*
X238937500Y-90000000D03*
X237062500Y-90000000D03*
D26*
X174421751Y-55578249D03*
X173078249Y-56921751D03*
D58*
X190950000Y-50850000D03*
X190000000Y-50850000D03*
X189050000Y-50850000D03*
X189050000Y-53150000D03*
X190000000Y-53150000D03*
X190950000Y-53150000D03*
D31*
X206475000Y-135975000D03*
D32*
X209015000Y-135975000D03*
X211555000Y-135975000D03*
D59*
X188250000Y-94250000D03*
X188750000Y-94250000D03*
X189250000Y-94250000D03*
X189750000Y-94250000D03*
X190250000Y-94250000D03*
X190750000Y-94250000D03*
X191250000Y-94250000D03*
X191750000Y-94250000D03*
X192250000Y-94250000D03*
X192750000Y-94250000D03*
X193250000Y-94250000D03*
X193750000Y-94250000D03*
D60*
X195250000Y-92750000D03*
X195250000Y-92250000D03*
X195250000Y-91750000D03*
X195250000Y-91250000D03*
X195250000Y-90750000D03*
X195250000Y-90250000D03*
X195250000Y-89750000D03*
X195250000Y-89250000D03*
X195250000Y-88750000D03*
X195250000Y-88250000D03*
X195250000Y-87750000D03*
X195250000Y-87250000D03*
D59*
X193750000Y-85750000D03*
X193250000Y-85750000D03*
X192750000Y-85750000D03*
X192250000Y-85750000D03*
X191750000Y-85750000D03*
X191250000Y-85750000D03*
X190750000Y-85750000D03*
X190250000Y-85750000D03*
X189750000Y-85750000D03*
X189250000Y-85750000D03*
X188750000Y-85750000D03*
X188250000Y-85750000D03*
D60*
X186750000Y-87250000D03*
X186750000Y-87750000D03*
X186750000Y-88250000D03*
X186750000Y-88750000D03*
X186750000Y-89250000D03*
X186750000Y-89750000D03*
X186750000Y-90250000D03*
X186750000Y-90750000D03*
X186750000Y-91250000D03*
X186750000Y-91750000D03*
X186750000Y-92250000D03*
X186750000Y-92750000D03*
D38*
X205828249Y-120671751D03*
X207171751Y-119328249D03*
D45*
X192575000Y-97250000D03*
X190750000Y-97250000D03*
X238912500Y-92000000D03*
X237087500Y-92000000D03*
X238912500Y-88000000D03*
X237087500Y-88000000D03*
D61*
X222671751Y-72171751D03*
X221328249Y-70828249D03*
D20*
X223403984Y-107282843D03*
D21*
X222732233Y-107530330D03*
D23*
X225030330Y-107636396D03*
D22*
X224588388Y-108149049D03*
D21*
X223969670Y-108767767D03*
X226267767Y-106469670D03*
D24*
X225847038Y-106819688D03*
D21*
X225030330Y-105232233D03*
D25*
X224461109Y-106077226D03*
D61*
X207171751Y-56671751D03*
X205828249Y-55328249D03*
D45*
X238912500Y-84000000D03*
X237087500Y-84000000D03*
D52*
X172767767Y-52969670D03*
D53*
X172096016Y-53217157D03*
D54*
X170911612Y-52350951D03*
D52*
X171530330Y-51732233D03*
D55*
X170469670Y-52863604D03*
D52*
X169232233Y-54030330D03*
D56*
X169652962Y-53680312D03*
D57*
X171038891Y-54422774D03*
D52*
X170469670Y-55267767D03*
D62*
X186500000Y-79425000D03*
X186500000Y-81250000D03*
X183000000Y-104087500D03*
X183000000Y-105912500D03*
D36*
X238937500Y-94000000D03*
X237062500Y-94000000D03*
D30*
X143500000Y-41500000D03*
D63*
X185587500Y-48000000D03*
X187412500Y-48000000D03*
D36*
X238937500Y-82000000D03*
X237062500Y-82000000D03*
D11*
X170469670Y-120732233D03*
D12*
X170717157Y-121403984D03*
D11*
X169232233Y-121969670D03*
D13*
X170363604Y-123030330D03*
D14*
X169850951Y-122588388D03*
D11*
X171530330Y-124267767D03*
D15*
X171180312Y-123847038D03*
D11*
X172767767Y-123030330D03*
D16*
X171922774Y-122461109D03*
D45*
X193912500Y-48000000D03*
X192087500Y-48000000D03*
D17*
X188900000Y-81250000D03*
X188900000Y-79425000D03*
D31*
X237975000Y-110830000D03*
D32*
X237975000Y-108290000D03*
X237975000Y-105750000D03*
X237975000Y-103210000D03*
D31*
X238000000Y-66460000D03*
D32*
X238000000Y-69000000D03*
X238000000Y-71540000D03*
D31*
X168475000Y-135975000D03*
D32*
X171015000Y-135975000D03*
X173555000Y-135975000D03*
M02*
