G04 #@! TF.GenerationSoftware,KiCad,Pcbnew,(6.0.5)*
G04 #@! TF.CreationDate,2022-06-26T21:28:57+02:00*
G04 #@! TF.ProjectId,5x5x2-part2,35783578-322d-4706-9172-74322e6b6963,rev?*
G04 #@! TF.SameCoordinates,Original*
G04 #@! TF.FileFunction,Copper,L2,Inr*
G04 #@! TF.FilePolarity,Positive*
%FSLAX46Y46*%
G04 Gerber Fmt 4.6, Leading zero omitted, Abs format (unit mm)*
G04 Created by KiCad (PCBNEW (6.0.5)) date 2022-06-26 21:28:57*
%MOMM*%
%LPD*%
G01*
G04 APERTURE LIST*
G04 #@! TA.AperFunction,Profile*
%ADD10C,0.100000*%
G04 #@! TD*
%ADD11C,0.150000*%
G04 #@! TA.AperFunction,NonConductor*
%ADD12C,0.150000*%
G04 #@! TD*
G04 #@! TA.AperFunction,ComponentPad*
%ADD13C,1.500000*%
G04 #@! TD*
G04 #@! TA.AperFunction,ComponentPad*
%ADD14R,1.700000X1.700000*%
G04 #@! TD*
G04 #@! TA.AperFunction,ComponentPad*
%ADD15O,1.700000X1.700000*%
G04 #@! TD*
G04 #@! TA.AperFunction,ComponentPad*
%ADD16O,1.200000X2.000000*%
G04 #@! TD*
G04 #@! TA.AperFunction,ComponentPad*
%ADD17O,1.200000X2.400000*%
G04 #@! TD*
G04 #@! TA.AperFunction,ViaPad*
%ADD18C,0.800000*%
G04 #@! TD*
G04 #@! TA.AperFunction,ViaPad*
%ADD19C,0.450000*%
G04 #@! TD*
G04 #@! TA.AperFunction,Conductor*
%ADD20C,0.254000*%
G04 #@! TD*
G04 #@! TA.AperFunction,Conductor*
%ADD21C,0.250000*%
G04 #@! TD*
G04 APERTURE END LIST*
D10*
X240000000Y-38000000D02*
X240000000Y-138000000D01*
X240000000Y-138000000D02*
X140000000Y-138000000D01*
X140000000Y-138000000D02*
X140000000Y-38000000D01*
X194500000Y-38000000D02*
X194500000Y-44300000D01*
X185500000Y-38000000D02*
X140000000Y-38000000D01*
X194500000Y-38000000D02*
X240000000Y-38000000D01*
X194500000Y-44300000D02*
X185500000Y-44300000D01*
X185500000Y-44300000D02*
X185500000Y-38000000D01*
D11*
D12*
X236214285Y-127297619D02*
X236261904Y-127250000D01*
X236357142Y-127202380D01*
X236595238Y-127202380D01*
X236690476Y-127250000D01*
X236738095Y-127297619D01*
X236785714Y-127392857D01*
X236785714Y-127488095D01*
X236738095Y-127630952D01*
X236166666Y-128202380D01*
X236785714Y-128202380D01*
D13*
X189550000Y-101000000D03*
X194430000Y-101000000D03*
D14*
X206475000Y-39975000D03*
D15*
X209015000Y-39975000D03*
X211555000Y-39975000D03*
D14*
X168475000Y-39975000D03*
D15*
X171015000Y-39975000D03*
X173555000Y-39975000D03*
D16*
X195580000Y-44195000D03*
X184420000Y-44195000D03*
D17*
X195580000Y-40195000D03*
X184420000Y-40195000D03*
D14*
X142000000Y-104460000D03*
D15*
X142000000Y-107000000D03*
X142000000Y-109540000D03*
D14*
X142000000Y-66460000D03*
D15*
X142000000Y-69000000D03*
X142000000Y-71540000D03*
D14*
X206475000Y-135975000D03*
D15*
X209015000Y-135975000D03*
X211555000Y-135975000D03*
D14*
X237975000Y-110830000D03*
D15*
X237975000Y-108290000D03*
X237975000Y-105750000D03*
X237975000Y-103210000D03*
D14*
X238000000Y-66460000D03*
D15*
X238000000Y-69000000D03*
X238000000Y-71540000D03*
D14*
X168475000Y-135975000D03*
D15*
X171015000Y-135975000D03*
X173555000Y-135975000D03*
D18*
X193250000Y-92250000D03*
X194000000Y-49500000D03*
X190042878Y-49257622D03*
X192000000Y-106000000D03*
X186750000Y-98000000D03*
X201000000Y-75000000D03*
X193750000Y-87250000D03*
X207000000Y-83750000D03*
X198750000Y-77250000D03*
X200000000Y-78750000D03*
X185000000Y-81250000D03*
X188250000Y-87250000D03*
X188250000Y-92750000D03*
X198000000Y-75000000D03*
X203250000Y-61500000D03*
X208250000Y-57750000D03*
X171750000Y-118250000D03*
X192500000Y-46250000D03*
X190000000Y-54250000D03*
X201000000Y-63750000D03*
X187525500Y-46250000D03*
X204000000Y-63750000D03*
X220000000Y-106250000D03*
X204750000Y-121750000D03*
X156250000Y-102750000D03*
X223750000Y-73250000D03*
X159750000Y-70000000D03*
X175500000Y-54500000D03*
X201750000Y-59750000D03*
X189000000Y-83250000D03*
X185000000Y-87250000D03*
X198581637Y-90195576D03*
X197940477Y-89428817D03*
X197000000Y-88750000D03*
X184250000Y-89250000D03*
X184250000Y-90750000D03*
X192000000Y-95750000D03*
D19*
X189774500Y-48000000D03*
X189774500Y-46000000D03*
D18*
X205750000Y-124500000D03*
X173000000Y-125750000D03*
X168750000Y-119000000D03*
X157750000Y-110500000D03*
X152000000Y-71250000D03*
X153500000Y-103750000D03*
X158750000Y-67000000D03*
X167750000Y-55500000D03*
X184250000Y-92000000D03*
X183000000Y-102250000D03*
X193982607Y-97263962D03*
X194996072Y-97250000D03*
X196023500Y-97250000D03*
X197236286Y-93013714D03*
X197250000Y-92000000D03*
X174250000Y-51500000D03*
X206750000Y-50250000D03*
X222250000Y-65500000D03*
X211250000Y-57000000D03*
X228000000Y-104750000D03*
X226750000Y-72500000D03*
X197250000Y-91000000D03*
D20*
X199306207Y-100443791D02*
X180643791Y-119106207D01*
X199740818Y-91354757D02*
X198581637Y-90195576D01*
X200900000Y-94153269D02*
X200900000Y-96596035D01*
X168475000Y-128178963D02*
X168475000Y-135975000D01*
X175953963Y-120700000D02*
X176796035Y-120700000D01*
X172106207Y-122293792D02*
X170068792Y-124331206D01*
X170068801Y-124331215D02*
G75*
G03*
X168475000Y-128178963I3847799J-3847785D01*
G01*
X200900009Y-96596035D02*
G75*
G02*
X199306207Y-100443791I-5441609J35D01*
G01*
X172106236Y-122293821D02*
G75*
G02*
X175953963Y-120700000I3847764J-3847679D01*
G01*
X199740804Y-91354771D02*
G75*
G02*
X200900000Y-94153269I-2798504J-2798529D01*
G01*
X180643784Y-119106200D02*
G75*
G02*
X176796035Y-120700000I-3847784J3847800D01*
G01*
X171743015Y-124539179D02*
X172776629Y-123505564D01*
X202656072Y-96237367D02*
X202656072Y-95110035D01*
X176624386Y-121911772D02*
X176981667Y-121911772D01*
X199684313Y-89884313D02*
X201062279Y-91262279D01*
X180829423Y-120317979D02*
X201062279Y-100085123D01*
X170149223Y-134497026D02*
X170149223Y-128386935D01*
X198584647Y-89428817D02*
X197940477Y-89428817D01*
X201062300Y-100085144D02*
G75*
G03*
X202656072Y-96237367I-3847800J3847744D01*
G01*
X170149256Y-128386935D02*
G75*
G02*
X171743015Y-124539179I5441544J35D01*
G01*
X199684293Y-89884333D02*
G75*
G03*
X198584647Y-89428817I-1099693J-1099667D01*
G01*
X176981667Y-121911741D02*
G75*
G03*
X180829423Y-120317979I33J5441541D01*
G01*
X172776641Y-123505576D02*
G75*
G02*
X176624386Y-121911772I3847759J-3847724D01*
G01*
X201062301Y-91262257D02*
G75*
G02*
X202656072Y-95110035I-3847801J-3847743D01*
G01*
X170582123Y-135542099D02*
G75*
G02*
X170149223Y-134497026I1045077J1045099D01*
G01*
X172327500Y-134747500D02*
X173555000Y-135975000D01*
X171100000Y-127738477D02*
X171100000Y-131784052D01*
X202906207Y-100493792D02*
X181693792Y-121706207D01*
X202906207Y-91706207D02*
X200911563Y-89711563D01*
X197023847Y-88726153D02*
X197000000Y-88750000D01*
X198475000Y-88702306D02*
X197081418Y-88702306D01*
X204500000Y-95553963D02*
X204500000Y-96646036D01*
X177846036Y-123300000D02*
X175538477Y-123300000D01*
X202906199Y-91706215D02*
G75*
G02*
X204500000Y-95553963I-3847799J-3847785D01*
G01*
X171100020Y-131784052D02*
G75*
G03*
X172327500Y-134747500I4190880J-48D01*
G01*
X204500010Y-96646036D02*
G75*
G02*
X202906207Y-100493792I-5441610J36D01*
G01*
X172400007Y-124600007D02*
G75*
G03*
X171100000Y-127738477I3138493J-3138493D01*
G01*
X197081418Y-88702313D02*
G75*
G03*
X197023848Y-88726154I-18J-81387D01*
G01*
X200911557Y-89711569D02*
G75*
G03*
X198475000Y-88702306I-2436557J-2436531D01*
G01*
X181693785Y-121706200D02*
G75*
G02*
X177846036Y-123300000I-3847785J3847800D01*
G01*
X172400007Y-124600007D02*
G75*
G02*
X175538477Y-123300000I3138493J-3138493D01*
G01*
X209564577Y-137151511D02*
X208067470Y-137151511D01*
X185617737Y-87882261D02*
X184250000Y-89250000D01*
X210250000Y-136466088D02*
X210250000Y-94306064D01*
X207357383Y-136857383D02*
X207063255Y-136563255D01*
X206156386Y-87958487D02*
X208656207Y-90458308D01*
X186012322Y-87517415D02*
X185929930Y-87586551D01*
X202308630Y-86364695D02*
X189179443Y-86364695D01*
X187904200Y-86532580D02*
G75*
G02*
X188323850Y-86439544I1275100J-4758520D01*
G01*
X186353335Y-87255744D02*
G75*
G02*
X186715861Y-87024795I2825565J-4035356D01*
G01*
X185770664Y-87730947D02*
G75*
G02*
X185929931Y-87586552I1961736J-2003753D01*
G01*
X187097135Y-86826321D02*
G75*
G02*
X187494253Y-86661830I2082165J-4465179D01*
G01*
X188323850Y-86439543D02*
G75*
G02*
X188750013Y-86383442I855450J-4851657D01*
G01*
X186012322Y-87517415D02*
G75*
G02*
X186353338Y-87255748I3166978J-3774285D01*
G01*
X210049245Y-136950756D02*
G75*
G03*
X210250000Y-136466088I-484645J484656D01*
G01*
X209564577Y-137151497D02*
G75*
G03*
X210049243Y-136950754I23J685397D01*
G01*
X186715862Y-87024796D02*
G75*
G02*
X187097134Y-86826319I2463438J-4266804D01*
G01*
X208067470Y-137151533D02*
G75*
G02*
X207357383Y-136857383I30J1004233D01*
G01*
X188750013Y-86383442D02*
G75*
G02*
X189179443Y-86364695I429387J-4907958D01*
G01*
X210250010Y-94306064D02*
G75*
G03*
X208656207Y-90458308I-5441610J-36D01*
G01*
X185617738Y-87882262D02*
G75*
G02*
X185770665Y-87730948I14337762J-14337638D01*
G01*
X202308630Y-86364661D02*
G75*
G02*
X206156386Y-87958487I-30J-5441539D01*
G01*
X187494252Y-86661826D02*
G75*
G02*
X187904199Y-86532576I1684848J-4629174D01*
G01*
X209015000Y-93768963D02*
X209015000Y-135975000D01*
X189023479Y-90750000D02*
X184250000Y-90750000D01*
X206393792Y-88893792D02*
X207421207Y-89921207D01*
X192871235Y-89156206D02*
X193133650Y-88893792D01*
X202546036Y-87300000D02*
X196981406Y-87300000D01*
X193133657Y-88893799D02*
G75*
G02*
X196981406Y-87300000I3847743J-3847701D01*
G01*
X202546036Y-87299990D02*
G75*
G02*
X206393791Y-88893793I-36J-5441610D01*
G01*
X209015010Y-93768963D02*
G75*
G03*
X207421206Y-89921208I-5441610J-37D01*
G01*
X189023479Y-90749969D02*
G75*
G03*
X192871235Y-89156206I21J5441569D01*
G01*
D21*
X175133883Y-124500000D02*
X205750000Y-124500000D01*
X173000000Y-125750000D02*
X173625000Y-125125000D01*
X175133883Y-124499994D02*
G75*
G03*
X173625001Y-125125001I17J-2133906D01*
G01*
X157750000Y-110500000D02*
X159000000Y-110500000D01*
X168750000Y-119000000D02*
X161133883Y-111383883D01*
X161133890Y-111383876D02*
G75*
G03*
X159000000Y-110500000I-2133890J-2133924D01*
G01*
X152750000Y-103000000D02*
X153500000Y-103750000D01*
X152000000Y-71250000D02*
X152000000Y-101189339D01*
X151999984Y-101189339D02*
G75*
G03*
X152750000Y-103000000I2560716J39D01*
G01*
X158750000Y-67000000D02*
X158750000Y-65750000D01*
X159633883Y-63616116D02*
X167750000Y-55500000D01*
X158750009Y-65750000D02*
G75*
G02*
X159633883Y-63616116I3017791J0D01*
G01*
D20*
X183625000Y-101625000D02*
X183000000Y-102250000D01*
X184250000Y-92000000D02*
X184250000Y-100116116D01*
X183624995Y-101624995D02*
G75*
G03*
X184250000Y-100116116I-1508895J1508895D01*
G01*
X196023500Y-97250000D02*
X196023500Y-97818461D01*
X142028186Y-104476511D02*
X179769525Y-104476511D01*
X195641961Y-98200000D02*
X190553962Y-98200000D01*
X183617281Y-102882718D02*
X186706206Y-99793792D01*
X195911761Y-98088261D02*
G75*
G03*
X196023500Y-97818461I-269761J269761D01*
G01*
X195911761Y-98088261D02*
G75*
G02*
X195641961Y-98200000I-269761J269761D01*
G01*
X179769525Y-104476539D02*
G75*
G03*
X183617281Y-102882718I-25J5441539D01*
G01*
X186706235Y-99793821D02*
G75*
G02*
X190553962Y-98200000I3847765J-3847679D01*
G01*
X182493792Y-105406207D02*
X187006207Y-100893792D01*
X190853963Y-99300000D02*
X194613681Y-99300000D01*
X178646036Y-107000000D02*
X142000000Y-107000000D01*
X197236286Y-93013714D02*
X197236286Y-96677395D01*
X187006236Y-100893821D02*
G75*
G02*
X190853963Y-99300000I3847764J-3847679D01*
G01*
X196468141Y-98531855D02*
G75*
G03*
X197236286Y-96677395I-1854441J1854455D01*
G01*
X178646036Y-107000010D02*
G75*
G03*
X182493792Y-105406207I-36J5441610D01*
G01*
X194613681Y-99299988D02*
G75*
G03*
X196468143Y-98531857I19J2622588D01*
G01*
X197250000Y-92000000D02*
X198075000Y-92825000D01*
X197306207Y-100772962D02*
X195972962Y-102106206D01*
X181757807Y-107706207D02*
X184170222Y-105293792D01*
X198900000Y-96925206D02*
X198900000Y-94816726D01*
X177910051Y-109300000D02*
X142409705Y-109300000D01*
X188017978Y-103700000D02*
X192125206Y-103700000D01*
X198075008Y-92824992D02*
G75*
G02*
X198900000Y-94816726I-1991708J-1991708D01*
G01*
X195972970Y-102106214D02*
G75*
G02*
X192125206Y-103700000I-3847770J3847814D01*
G01*
X177910051Y-109300020D02*
G75*
G03*
X181757806Y-107706206I-51J5441620D01*
G01*
X184170243Y-105293813D02*
G75*
G02*
X188017978Y-103700000I3847757J-3847687D01*
G01*
X197306215Y-100772970D02*
G75*
G03*
X198900000Y-96925206I-3847815J3847770D01*
G01*
D21*
X206750000Y-50250000D02*
X206125000Y-50875000D01*
X174250000Y-51500000D02*
X204616116Y-51500000D01*
X204616116Y-51500006D02*
G75*
G03*
X206124999Y-50874999I-16J2133906D01*
G01*
X222250000Y-65500000D02*
X221000000Y-65500000D01*
X211250000Y-57000000D02*
X218866116Y-64616116D01*
X218866109Y-64616123D02*
G75*
G03*
X221000000Y-65500000I2133891J2133923D01*
G01*
X227375000Y-104125000D02*
X228000000Y-104750000D01*
X226750000Y-102616116D02*
X226750000Y-72500000D01*
X227375005Y-104124995D02*
G75*
G02*
X226750000Y-102616116I1508895J1508895D01*
G01*
M02*
